<svg xmlns="http://www.w3.org/2000/svg" xmlns:xlink="http://www.w3.org/1999/xlink" version="1.1" style="enable-background:new 0 0 335.6 335.6;" xml:space="preserve" width="59" height="211"><rect id="backgroundrect" width="100%" height="100%" x="0" y="0" fill="none" stroke="none"/>

<g class="currentLayer" style=""><title>Layer 1</title><g id="svg_1" class="" fill-opacity="1" fill="#10bbe8">
	<path d="M53.606236267089855,207.14142303466798 c-8.5,-5.5 -16.1,-12.5 -22.7,-20.3 c-6.6,-7.8 -12.2,-16.4 -16.7,-25.6 c-9.2,-18.3 -14.1,-38.7 -14.2,-59.3 c-0.1,-10.3 1,-20.6 3.3,-30.7 c2.3,-10.1 6,-19.9 11.1,-28.9 c10.1,-18.1 25.5,-33.2 43.8,-42.3 c0.1,-0.1 0.30000000000000004,0 0.4,0.1 c0.1,0.1 0,0.30000000000000004 -0.1,0.4 c-8.2,6 -15.6,12.7 -22.2,20.2 c-0.8,0.9 -1.6,1.9 -2.4,2.9 l-2.4,2.9 c-1.5,2 -2.9,4 -4.3,6 c-1.4,2.1 -2.7,4.2 -4,6.2 c-1.2,2.1 -2.4,4.3 -3.6,6.5 c-4.5,8.7 -8.1,18 -10.6,27.5 c-2.6,9.5 -4,19.4 -4.3,29.3 c-0.5,19.8 3.7,39.8 12.1,57.9 c4.3,9 9.6,17.5 15.9,25.3 c6.3,7.8 13.5,14.8 21.1,21.4 c0.1,0.1 0.1,0.30000000000000004 0,0.4 C53.90623626708984,207.24142303466795 53.70623626708985,207.24142303466795 53.606236267089855,207.14142303466798 z" id="svg_2" fill="#10bbe8"/>
	<path d="M11.106236267089841,190.441423034668 c7.6,3.1 15.1,6.4 22.7,9.5 c3.8,1.6 7.6,3 11.4,4.4 l2.9,1 l2.9,0.9 c1,0.30000000000000004 1.9,0.5 2.9,0.8 c1,0.30000000000000004 1.9,0.4 2.8,0.6000000000000001 l-1.5,2 c-1.2,-3.1 -2.4,-6.2 -3.4,-9.4 c-1.1,-3.1 -2,-6.3 -2.9,-9.5 c-0.9,-3.2 -1.6,-6.4 -2.3,-9.7 c-0.6000000000000001,-3.3 -1.1,-6.5 -1.4,-9.8 c0.8,3.2 1.7000000000000002,6.4 2.7,9.5 c1,3.1 2,6.3 3.1,9.4 c1.1,3.1 2.2,6.2 3.3,9.3 c1.2,3.1 2.3,6.1 3.6,9.1 l0,0 c0.30000000000000004,0.7000000000000001 0,1.6 -0.8,1.9 c-0.2,0.1 -0.5,0.1 -0.7000000000000001,0.1 c-4.4,-0.6000000000000001 -8.2,-2 -12.1,-3.4 c-3.9,-1.5 -7.6,-3.2 -11.4,-4.9 c-3.7,-1.8 -7.4,-3.6 -11,-5.6 C18.20623626708985,194.64142303466798 14.606236267089841,192.64142303466798 11.106236267089841,190.441423034668 z" id="svg_3" fill="#10bbe8"/>
</g></g></svg>