<svg xmlns="http://www.w3.org/2000/svg" xmlns:xlink="http://www.w3.org/1999/xlink" version="1.1" style="" xml:space="preserve" width="512" height="512"><rect id="backgroundrect" width="100%" height="100%" x="0" y="0" fill="none" stroke="none"/>
<style type="text/css">
	.st0{opacity:0.1;enable-background:new    ;}
	.st1{fill:none;stroke:#0dc96f;stroke-width:49.886;stroke-linecap:round;stroke-linejoin:round;stroke-miterlimit:10;}
</style>



<g class="currentLayer" style=""><title>Layer 1</title><circle class="st0" cx="256" cy="256" r="256" id="svg_1" fill-opacity="1" fill="#0dc96f"/><polyline class="st1" points="168.1999969482422,266.70001220703125 233.1999969482422,331.79998779296875 356,209.10000610351562 " id="svg_2" fill-opacity="1" fill="#0dc96f" stroke-opacity="1" stroke="#73cea2" transform="rotate(-0.42557528614997864 262.10000610352074,270.4500122070308) "/><path d="M256,15 c32.5,0 64.1,6.4 93.8,18.9 c28.7,12.1 54.5,29.5 76.6,51.7 c22.1,22.1 39.5,47.9 51.7,76.6 c12.6,29.7 18.9,61.3 18.9,93.8 s-6.4,64.1 -18.9,93.8 c-12.1,28.7 -29.5,54.5 -51.7,76.6 c-22.1,22.1 -47.9,39.5 -76.6,51.7 C320.1,490.6 288.5,497 256,497 s-64.1,-6.4 -93.8,-18.9 c-28.7,-12.1 -54.5,-29.5 -76.6,-51.7 c-22.1,-22.1 -39.5,-47.9 -51.7,-76.6 C21.4,320.1 15,288.5 15,256 s6.4,-64.1 18.9,-93.8 c12.1,-28.7 29.5,-54.5 51.7,-76.6 c22.1,-22.1 47.9,-39.5 76.6,-51.7 C191.9,21.4 223.5,15 256,15 M256,0 C114.6,0 0,114.6 0,256 s114.6,256 256,256 s256,-114.6 256,-256 S397.4,0 256,0 L256,0 z" id="svg_3" class="" fill-opacity="1" fill="#0dc96f"/></g></svg>