<svg xmlns="http://www.w3.org/2000/svg" viewBox="0 0 21.14 15.44"><defs><style>.cls-1{fill:#002068;}.cls-2{fill:#0363ed;}</style></defs><g id="Laag_2" data-name="Laag 2"><g id="Laag_1-2" data-name="Laag 1"><path class="cls-1" d="M20.64,0H8.93a.5.5,0,0,0-.5.5V9.76a.5.5,0,0,0,.5.5h5.36v.51H11.58a.5.5,0,0,0-.5.5v.89a.5.5,0,0,0,.5.5h2.68a1.33,1.33,0,0,1-.41.75c-1.21,1.17-4.68,1.05-6.75,1l-1.28,0a1.79,1.79,0,0,1-1.4-.47A1.34,1.34,0,0,1,4.16,13a.28.28,0,0,0,0-.09H7a.51.51,0,0,0,.5-.5V.5A.51.51,0,0,0,7,0H.5A.51.51,0,0,0,0,.5V12.36a.51.51,0,0,0,.5.5H3.17a2.26,2.26,0,0,0,.48,1.67,2.71,2.71,0,0,0,2.17.83l1.24,0c.64,0,1.34,0,2.06,0,2.09,0,4.29-.22,5.43-1.31a2.32,2.32,0,0,0,.72-1.47H18a.5.5,0,0,0,.5-.5v-.89a.5.5,0,0,0-.5-.5h-2.7v-.51h5.35a.5.5,0,0,0,.5-.5V.5A.5.5,0,0,0,20.64,0ZM1,11.86V1H6.46V11.86Zm19.14-2.6H9.43v-1H20.14Zm0-2H9.43V1H20.14Z"/><path class="cls-1" d="M11.11,4.62a.5.5,0,0,1-.5-.5V2.69a.5.5,0,0,1,.5-.5h3.37a.5.5,0,0,1,.5.5.5.5,0,0,1-.5.5H11.61v.93A.5.5,0,0,1,11.11,4.62Z"/><rect class="cls-2" x="1.84" y="1.73" width="3.66" height="1"/><rect class="cls-2" x="1.84" y="3.72" width="3.66" height="1"/><rect class="cls-2" x="1.84" y="5.72" width="3.66" height="1"/><path class="cls-2" d="M3.67,8A1.66,1.66,0,1,0,5.33,9.65,1.66,1.66,0,0,0,3.67,8Zm0,2.32a.66.66,0,1,1,.66-.66A.67.67,0,0,1,3.67,10.31Z"/></g></g></svg>