<?xml version="1.0" encoding="utf-8"?>
<!-- Generator: Adobe Illustrator 25.2.0, SVG Export Plug-In . SVG Version: 6.00 Build 0)  -->
<svg version="1.1" id="Laag_1" xmlns="http://www.w3.org/2000/svg" xmlns:xlink="http://www.w3.org/1999/xlink" x="0px" y="0px"
	 viewBox="0 0 99.2 99.2" style="enable-background:new 0 0 99.2 99.2;" xml:space="preserve">
<style type="text/css">
	.st0{fill:#0363ED;}
	.st1{fill:#002068;}
</style>
<g>
	<g>
		<path class="st0" d="M49.6,99.2C22.3,99.2,0,77,0,49.6S22.3,0,49.6,0C77,0,99.2,22.3,99.2,49.6S77,99.2,49.6,99.2z M49.6,5.2
			C25.1,5.2,5.2,25.1,5.2,49.6s19.9,44.5,44.5,44.5s44.5-19.9,44.5-44.5S74.1,5.2,49.6,5.2z"/>
	</g>
	<g>
		<path class="st1" d="M37.6,52.7h13.6c1.1,0,1.6,0.5,1.6,1.6V57c0,1.1-0.5,1.6-1.6,1.6H37.7c0,1.1,0.3,2.3,0.7,3.5
			c0.4,1.2,1.1,2.3,2,3.2c0.9,0.9,2.1,1.7,3.6,2.3c1.5,0.6,3.3,0.9,5.4,0.9c2.1,0,3.9-0.2,5.3-0.7s2.5-1,3.4-1.8s1.6-1.5,2.1-2.5
			c0.5-0.9,0.9-1.8,1.3-2.7c0.1-0.4,0.4-0.8,0.7-1.1c0.3-0.3,0.8-0.5,1.4-0.5h6c0.5,0,1,0.2,1.5,0.6c0.4,0.4,0.6,0.9,0.6,1.5
			c-0.1,1.8-0.6,3.7-1.6,5.7c-1,1.9-2.4,3.7-4.2,5.3c-1.8,1.6-4.1,2.9-6.9,3.9c-2.7,1-5.9,1.5-9.6,1.5c-3.4,0-6.5-0.5-9.1-1.6
			c-2.7-1-4.9-2.4-6.8-4.2c-1.9-1.7-3.3-3.8-4.3-6.1c-1-2.3-1.5-4.8-1.6-7.4h-4.8c-1.1,0-1.6-0.5-1.6-1.6v-2.7
			c0-1.1,0.5-1.6,1.6-1.6h4.8v-2.2h-4.8c-1.1,0-1.6-0.5-1.6-1.6v-2.7c0-1.1,0.5-1.6,1.6-1.6h4.8c0.1-3,0.6-5.7,1.6-8.2
			c1-2.5,2.4-4.6,4.3-6.4c1.9-1.8,4.1-3.2,6.8-4.2c2.7-1,5.7-1.5,9.1-1.5c3.7,0,6.9,0.5,9.6,1.6c2.7,1,5,2.4,6.9,3.9
			c1.8,1.6,3.2,3.4,4.2,5.3s1.5,3.8,1.6,5.7c0,0.6-0.1,1.1-0.6,1.5c-0.4,0.4-0.9,0.6-1.5,0.6h-6c-0.6,0-1.1-0.2-1.4-0.5
			c-0.3-0.3-0.6-0.7-0.7-1.1c-0.3-0.9-0.8-1.8-1.3-2.7c-0.5-0.9-1.2-1.7-2.1-2.5c-0.9-0.7-2-1.3-3.4-1.8c-1.4-0.4-3.2-0.7-5.3-0.7
			c-2.1,0-3.9,0.3-5.4,0.9c-1.5,0.6-2.7,1.4-3.6,2.3c-0.9,1-1.6,2.2-2,3.5c-0.4,1.3-0.7,2.8-0.7,4.3h13.5c1.1,0,1.6,0.5,1.6,1.6v2.7
			c0,1.1-0.5,1.6-1.6,1.6H37.6V52.7z"/>
	</g>
</g>
</svg>
