<svg xmlns="http://www.w3.org/2000/svg" viewBox="0 0 16.72 13.81"><defs><style>.cls-1{fill:#002068;}.cls-2{fill:#0363ed;}</style></defs><g id="Laag_2" data-name="Laag 2"><g id="Laag_1-2" data-name="Laag 1"><path class="cls-1" d="M3.24,11a.5.5,0,0,1-.5-.5V5.17a.5.5,0,0,1,.5-.5.5.5,0,0,1,.5.5v5.28A.51.51,0,0,1,3.24,11Z"/><path class="cls-1" d="M5.26,11a.5.5,0,0,1-.5-.5V5.17a.5.5,0,0,1,.5-.5.5.5,0,0,1,.5.5v5.28A.51.51,0,0,1,5.26,11Z"/><path class="cls-1" d="M7.28,10.93a.5.5,0,0,1-.5-.5V5.15a.5.5,0,0,1,.5-.5.51.51,0,0,1,.5.5v5.28A.51.51,0,0,1,7.28,10.93Z"/><path class="cls-1" d="M9.3,10.93a.5.5,0,0,1-.5-.5V5.15a.5.5,0,0,1,.5-.5.51.51,0,0,1,.5.5v5.28A.51.51,0,0,1,9.3,10.93Z"/><path class="cls-1" d="M11.32,10.93a.5.5,0,0,1-.5-.5V5.15a.5.5,0,0,1,.5-.5.51.51,0,0,1,.5.5v5.28A.51.51,0,0,1,11.32,10.93Z"/><path class="cls-1" d="M13.34,10.93a.5.5,0,0,1-.5-.5V5.15a.5.5,0,0,1,.5-.5.51.51,0,0,1,.5.5v5.28A.51.51,0,0,1,13.34,10.93Z"/><path class="cls-1" d="M16.72,4.38v6.81a2.62,2.62,0,0,1-2.62,2.62H2.62A2.62,2.62,0,0,1,0,11.19V4.38A2.64,2.64,0,0,1,2.08,1.81V.5a.5.5,0,0,1,.5-.5h10a.51.51,0,0,1,.5.5V1a.65.65,0,0,0-.2,0,1.67,1.67,0,0,0-.8.2V1H3.08v.76h8.29a1.78,1.78,0,0,0-.29,1v0H2.58A1.62,1.62,0,0,0,1,4.38v6.81a1.62,1.62,0,0,0,1.62,1.62H14.1a1.63,1.63,0,0,0,1.62-1.62V4.38a1.61,1.61,0,0,0-1.14-1.54.37.37,0,0,0,0-.11,1.78,1.78,0,0,0-.29-1A2.62,2.62,0,0,1,16.72,4.38Z"/><path class="cls-2" d="M14.3,1.77A1.73,1.73,0,0,0,13,1a.65.65,0,0,0-.2,0,1.67,1.67,0,0,0-.8.2,1.76,1.76,0,0,0-.66.58,1.78,1.78,0,0,0-.29,1v0a1.75,1.75,0,0,0,3.5.08.37.37,0,0,0,0-.11A1.78,1.78,0,0,0,14.3,1.77ZM12.83,3.49a.75.75,0,0,1-.75-.73v0A.75.75,0,0,1,12.83,2,.64.64,0,0,1,13,2a.76.76,0,0,1,.56.72v0A.76.76,0,0,1,12.83,3.49Z"/></g></g></svg>