<svg xmlns="http://www.w3.org/2000/svg" viewBox="0 0 22.76 13.58"><defs><style>.cls-1{fill:#002068;}.cls-2{fill:#0363ed;}</style></defs><g id="Laag_2" data-name="Laag 2"><g id="Laag_1-2" data-name="Laag 1"><path class="cls-1" d="M22.49,10.75,18.71,7V1a.67.67,0,0,0-.66-.67H15.92a.67.67,0,0,0-.67.67V3.52L12,.26A.94.94,0,0,0,11.37,0a.92.92,0,0,0-.63.26L.26,10.75A.9.9,0,0,0,.26,12l1.25,1.25a1,1,0,0,0,.75.31A1.06,1.06,0,0,0,3,13.27l8.36-8.36,8.37,8.36a1.09,1.09,0,0,0,1.5,0L22.49,12h0A.9.9,0,0,0,22.49,10.75Zm-2,1.81L12,4.14a.86.86,0,0,0-.64-.28,1,1,0,0,0-.63.27L2.21,12.56,1,11.38,11.37,1.05,15.12,4.8a.66.66,0,0,0,.72.14.65.65,0,0,0,.41-.61v-3h1.46V7.11a.67.67,0,0,0,.19.47l3.81,3.8Z"/><path class="cls-2" d="M13.15,8.9H9.69a1,1,0,0,0-1,1v1.81a1,1,0,0,0,1,1h3.46a1,1,0,0,0,1-1V9.93A1,1,0,0,0,13.15,8.9Zm-2.23,2.85H9.66l0-1.84h1.23Zm2.26,0s0,0,0,0H11.92V9.92h1.26Z"/></g></g></svg>