<?xml version="1.0" encoding="utf-8"?>
<!-- Generator: Adobe Illustrator 24.3.0, SVG Export Plug-In . SVG Version: 6.00 Build 0)  -->
<svg version="1.1" id="Laag_1" xmlns="http://www.w3.org/2000/svg" xmlns:xlink="http://www.w3.org/1999/xlink" x="0px" y="0px"
	 viewBox="0 0 14.8 13.9" style="enable-background:new 0 0 14.8 13.9;" xml:space="preserve">
<style type="text/css">
	.st0{fill:none;stroke:#10BBE8;stroke-linecap:round;stroke-linejoin:round;stroke-miterlimit:10;}
	.st1{fill:none;stroke:#0363ED;stroke-linecap:round;stroke-linejoin:round;stroke-miterlimit:10;}
</style>
<g>
	<line class="st0" x1="1.3" y1="2.8" x2="7.5" y2="2.8"/>
	<line class="st0" x1="1.3" y1="5" x2="5.7" y2="5"/>
	<g>
		<polygon class="st0" points="10.2,9 7.9,10 7.6,7.6 7.9,7 11.3,0.8 13.9,2.3 		"/>
		<line class="st0" x1="10.6" y1="8.2" x2="8" y2="6.8"/>
		<line class="st0" x1="13.2" y1="3.4" x2="10.7" y2="2"/>
	</g>
	<path class="st1" d="M0.2,11.8c0,0,0.2,1.5,1.3,1.5s3.3-3,3.3-4.5S1.9,7,1.9,10.4c0,1.7,1.2,2.7,2.2,2.6c1-0.1,1.8-1.2,1.8-1.9
		c0,0,0.4,1.8,1.5,1.8s1.9-1.8,1.9-1.8"/>
</g>
</svg>
