<svg xmlns="http://www.w3.org/2000/svg" viewBox="0 0 20.39 17.5"><defs><style>.cls-1{fill:#0363ed;}.cls-2{fill:#002068;}</style></defs><g id="Laag_2" data-name="Laag 2"><g id="Laag_1-2" data-name="Laag 1"><path class="cls-1" d="M7.07,11.89a.66.66,0,0,0-.61-.39H6.12l.18-2a.65.65,0,0,0-.44-.63.66.66,0,0,0-.75.21L2.53,12.29a.69.69,0,0,0-.09.72.67.67,0,0,0,.61.39H3.4l-.19,2a.67.67,0,0,0,.44.63.66.66,0,0,0,.23,0,.67.67,0,0,0,.52-.25L7,12.6A.66.66,0,0,0,7.07,11.89Zm-3.33.51L5.2,10.58,5,12.5h.76L4.31,14.32,4.5,12.4Z"/><path class="cls-2" d="M19.47,3.14h-.64a.17.17,0,0,0,0-.07v-2A1.07,1.07,0,0,0,17.77,0h-.18a1.07,1.07,0,0,0-1.07,1.07v2a.17.17,0,0,0,0,.07h-.74a.17.17,0,0,0,0-.07v-2A1.07,1.07,0,0,0,14.73,0h-.21a1.07,1.07,0,0,0-1.07,1.07v2a.17.17,0,0,0,0,.07h-.82a.92.92,0,0,0-.92.92V5.29A4.23,4.23,0,0,0,15.56,9.6v1.48a2.06,2.06,0,0,1-4.12,0V6.33a1.21,1.21,0,0,0,0-.19,3.59,3.59,0,0,0-7.17.19V7.4H1.86A1.86,1.86,0,0,0,0,9.26v6.37A1.87,1.87,0,0,0,1.86,17.5H8.23a1.87,1.87,0,0,0,1.87-1.87V9.26A1.87,1.87,0,0,0,8.23,7.4h-3V6.33a2.59,2.59,0,0,1,5.18,0v4.75a3.06,3.06,0,0,0,6.12,0V9.6a4.23,4.23,0,0,0,3.83-4.31V4.06A.92.92,0,0,0,19.47,3.14ZM8.23,8.4a.87.87,0,0,1,.87.86v6.37a.87.87,0,0,1-.87.87H1.86A.86.86,0,0,1,1,15.63V9.26a.86.86,0,0,1,.86-.86Zm9.29-5.33v-2A.07.07,0,0,1,17.59,1h.18a.07.07,0,0,1,.07.07v2a.07.07,0,0,1-.07.07h-.18A.07.07,0,0,1,17.52,3.07Zm-3.07,0v-2A.07.07,0,0,1,14.52,1h.21a.07.07,0,0,1,.07.07v2a.07.07,0,0,1-.07.07h-.21A.07.07,0,0,1,14.45,3.07Zm4.94,2.22a3.34,3.34,0,1,1-6.67,0V4.14h6.67Z"/><path class="cls-2" d="M11.44,6.14v.19a1.21,1.21,0,0,0,0-.19Z"/></g></g></svg>