<svg xmlns="http://www.w3.org/2000/svg" viewBox="0 0 23.16 12.06"><defs><style>.cls-1{fill:#002068;}.cls-2{fill:#0363ed;}</style></defs><g id="Laag_2" data-name="Laag 2"><g id="Laag_1-2" data-name="Laag 1"><path class="cls-1" d="M22.21,2a2.63,2.63,0,0,0-3.4.06V1.64A1.48,1.48,0,0,0,17.52,0H9.61A1.48,1.48,0,0,0,8.32,1.64V3.87L1.67,1.21a.51.51,0,0,0-.62.21l-1,1.69a.51.51,0,0,0,.16.67L8.32,9v1.41a1.49,1.49,0,0,0,1.29,1.64h7.91a1.48,1.48,0,0,0,1.29-1.64v-.11l3.76-4.58a2.59,2.59,0,0,0,.59-1.65A2.66,2.66,0,0,0,22.21,2ZM8.32,7.82,1.17,3.2l.53-.9L8.32,5Zm9.49,2.6c0,.39-.19.64-.29.64H9.61c-.09,0-.29-.25-.29-.64V1.64c0-.39.2-.64.29-.64h7.91c.1,0,.29.25.29.64Zm4-5.32-3,3.62V3.59L19.28,3a1.63,1.63,0,0,1,2.29-.23,1.65,1.65,0,0,1,.59,1.28A1.61,1.61,0,0,1,21.8,5.1Z"/><path class="cls-2" d="M14.17,2.25a.65.65,0,0,0-1,0C12.42,3.2,11.11,5,11.11,6a2.56,2.56,0,0,0,2.07,2.51v1a.5.5,0,0,0,1,0v-1A2.56,2.56,0,0,0,16.25,6C16.25,5,14.94,3.2,14.17,2.25Zm0,5.26V6.32a.5.5,0,0,0-1,0V7.51A1.55,1.55,0,0,1,12.11,6a7,7,0,0,1,1.57-2.8A7,7,0,0,1,15.25,6,1.55,1.55,0,0,1,14.18,7.51Z"/></g></g></svg>