<?xml version="1.0" encoding="utf-8"?>
<!-- Generator: Adobe Illustrator 24.3.0, SVG Export Plug-In . SVG Version: 6.00 Build 0)  -->
<svg version="1.1" id="Laag_1" xmlns="http://www.w3.org/2000/svg" xmlns:xlink="http://www.w3.org/1999/xlink" x="0px" y="0px"
	 viewBox="0 0 16.5 13.4" style="enable-background:new 0 0 16.5 13.4;" xml:space="preserve">
<style type="text/css">
	.st0{fill:#FFFFFF;}
	.st1{fill:#0363ED;}
	.st2{fill:#10BBE8;}
</style>
<g>
	<g>
		<path class="st0" d="M8.7,7.1L8.5,6.9l0,0L8.3,6.8L6.9,5.4L6.6,5.1l-1,1.1l2.2,2.2l0.1,0.1l1.1-1L8.7,7.1z M6.3,6.1l0.3-0.3
			l1.3,1.3L7.6,7.4L6.3,6.1z"/>
		<path class="st1" d="M9.5,7.3C9.5,7.2,9.4,7.2,9.5,7.3L6.9,4.7C6.8,4.6,6.7,4.6,6.5,4.6c-0.1,0-0.2,0.1-0.3,0.1L6.1,4.9L5.3,5.6
			L5.2,5.8C5.1,5.8,5.1,5.9,5.1,6.1c0,0.2,0,0.3,0.1,0.4l2.3,2.3l0.3-0.2l0.1-0.1l1.1-1l0.1-0.1l0.1-0.1l0.1,0.1l0.2,0.2
			C9.6,7.5,9.5,7.4,9.5,7.3z M7.6,7.4L6.3,6.1l0.3-0.3l1.3,1.3l0.1,0.2l0.1,0l0.2,0.2L8,7.9L7.9,7.8L7.6,7.4z"/>
	</g>
	<g>
		<path class="st0" d="M8.8,1C9,0.9,8.9,0.6,8.7,0.5c-1.3-0.2-3,0.2-4.5,1.7C2.7,3.7,2.7,3.7,2.7,3.7l0.4,0.4L2.2,4.9L1.9,4.6
			L0.5,5.9l2,2l1.4-1.4L3.5,6.2l0.8-0.8l0.7,0.7l0.3,0.3l0.2-0.2l1-1.1l0.2-0.2L6.5,4.6L5.7,3.8C6,3.5,6.3,3.2,6.6,2.9
			C7.2,2.2,8,1.5,8.8,1z M5.3,3.4c-0.2,0.2-0.2,0.5,0,0.7l0.8,0.8L5.3,5.6L4.7,5C4.5,4.8,4.2,4.8,4,5L3.1,5.8C2.9,6,2.9,6.3,3.1,6.5
			l0,0L2.5,7.2L1.2,5.9l0.7-0.7l0,0c0.2,0.2,0.5,0.2,0.7,0l0.8-0.8c0.1-0.1,0.1-0.2,0.1-0.4c0-0.1-0.1-0.3-0.1-0.3l0,0l1.1-1.1
			C5.8,1.3,7.1,1,7.9,1c-0.7,0.5-1.2,1-1.7,1.5C5.9,2.8,5.6,3.1,5.3,3.4z"/>
		<path class="st1" d="M9.4,0.6C9.3,0.3,9.1,0.1,8.8,0.1C7-0.2,5.3,0.4,3.8,1.9L2.4,3.4C2.3,3.4,2.2,3.6,2.2,3.7S2.3,4,2.4,4.1l0,0
			L2.2,4.2l0,0C2,4,1.7,4,1.5,4.2L0.1,5.6C0,5.7,0,5.8,0,5.9c0,0.1,0,0.3,0.1,0.3l2,2c0.1,0.1,0.2,0.2,0.4,0.2
			c0.1,0,0.3-0.1,0.3-0.2l1.4-1.4c0.2-0.2,0.2-0.5,0-0.7l0,0L4.3,6L5,6.7c0.1,0.1,0.4,0.2,0.5,0.1c0.1,0,0.1-0.1,0.2-0.1l0.2-0.2
			l1.3-1.3c0,0,0.1-0.1,0.1-0.2c0.1-0.2,0-0.4-0.1-0.5L6.4,3.7c0.2-0.2,0.3-0.3,0.5-0.5C7.5,2.7,8.2,1.9,9,1.4
			C9.3,1.3,9.4,1,9.4,0.6z M5.3,3.4c-0.2,0.2-0.2,0.5,0,0.7l0.8,0.8L5.3,5.6L4.7,5C4.5,4.8,4.2,4.8,4,5L3.1,5.8
			C2.9,6,2.9,6.3,3.1,6.5l0,0L2.5,7.2L1.2,5.9l0.7-0.7l0,0c0.2,0.2,0.5,0.2,0.7,0l0.8-0.8c0.1-0.1,0.1-0.2,0.1-0.4
			c0-0.1-0.1-0.3-0.1-0.3l0,0l1.1-1.1C5.8,1.3,7.1,1,7.9,1c-0.7,0.5-1.2,1-1.7,1.5C5.9,2.8,5.6,3.1,5.3,3.4z"/>
	</g>
	<g>
		<path class="st0" d="M9.1,7.4L9,7.5l-1.1,1L7.8,8.6l0,0c0,0,0-0.1,0-0.1v0c0,0,0,0,0,0l1.1-1.1c0,0,0.1,0,0.2,0L9.1,7.4z"/>
		<path class="st0" d="M12.4,10.7l-2.1-2.1l-0.1-0.1L10,8.3L9.7,7.9L9.3,8.3L8.8,8.9L8.6,9.2l0,0l0.4,0.4L9.2,10l2,1.9
			c0.3,0.3,0.9,0.3,1.3,0C12.8,11.6,12.8,11,12.4,10.7z M12.1,11.6c-0.1,0.2-0.4,0.2-0.5,0l-2-2L10.1,9l2,2c0.1,0.1,0.1,0.2,0.1,0.3
			C12.2,11.4,12.2,11.5,12.1,11.6z"/>
		<path class="st1" d="M12.8,10.3l-2.1-2.1l-0.4-0.4L9.9,7.5L9.6,7.1L9.4,6.9C9.3,6.8,9.2,6.8,9.1,6.8c0,0-0.1,0-0.1,0h0
			c-0.1,0-0.3,0.1-0.4,0.2l0,0L8.1,7.3L7.8,7.6L7.6,7.9L7.4,8l0,0C7.3,8.1,7.2,8.2,7.2,8.4c0,0,0,0.1,0,0.1v0c0,0.1,0.1,0.3,0.2,0.4
			l0.1-0.1l0.3-0.2l0.1-0.1l1.1-1l0.1-0.1l0.1-0.1l0.1,0.1l0.2,0.2l0.1,0.1l0.1,0.1L9.7,7.9L9.3,8.3l0.4,0.4l0.2,0.2L10.1,9l2,2
			c0.1,0.1,0.1,0.2,0.1,0.3c0,0.1,0,0.2-0.1,0.3c-0.1,0.2-0.4,0.2-0.5,0L9.4,9.4L9.2,9.3L8.8,8.9L8.6,9.2l0,0L8.2,9.7L8.5,10
			l0.4,0.4l1.9,1.9c0.3,0.3,0.6,0.4,1,0.4c0.3,0,0.7-0.1,1-0.4C13.3,11.8,13.3,10.9,12.8,10.3z"/>
	</g>
</g>
<g>
	<g>
		<path class="st2" d="M16.2,3.3c-0.2-0.2-0.5-0.1-0.9,0.1l-1.4,0.9l-0.6-1l1.3-0.8c0.1-0.1,0.6-0.3,0.6-0.8c0-0.5-0.6-0.8-0.9-0.9
			c-1.2-0.5-2.7-0.2-3.6,0.8C9.5,2.7,9.2,4.2,9.9,5.5L9.1,6.2L8.8,6.5L8.4,6.9L7.7,7.7C7.6,7.7,7.6,7.8,7.6,7.9c0,0.1,0,0.2,0,0.2v0
			c0,0,0,0,0,0c0,0.1,0.1,0.2,0.1,0.2l0,0.1v0l0.1,0.1l0.1-0.1l1.1-1l0.1-0.1l0.1-0.1l0.1,0.1l0.2-0.2l0.1-0.1l0.1-0.1L10,6.7
			l0.8-0.8c0.2-0.2,0.2-0.4,0-0.6c-0.6-0.9-0.4-2.1,0.4-2.9C12,1.7,13,1.4,13.8,1.8l-1.5,0.9c-0.2,0.1-0.3,0.4-0.2,0.7l1.1,1.8
			c0.1,0.1,0.2,0.2,0.3,0.2c0.1,0,0.3,0,0.4-0.1l1.5-0.9c-0.1,0.5-0.3,0.9-0.7,1.3c-0.9,0.9-2,1.1-2.9,0.4c-0.2-0.1-0.5-0.1-0.6,0.1
			l-0.8,0.8L10,7.4l0,0.1L9.6,7.8l0.1,0.1L9.7,7.9L9.3,8.3L8.8,8.9L8.6,9.2l0.2,0.2C8.8,9.5,8.9,9.5,9,9.5c0,0,0.1,0,0.1,0
			c0.1,0,0.2,0,0.3-0.1c0,0,0,0,0.1,0l1.2-1.2L10.8,8l0.8-0.8c1.2,0.6,2.7,0.4,3.9-0.8c0.6-0.6,1-1.4,1-2.4
			C16.5,3.9,16.5,3.5,16.2,3.3z"/>
	</g>
	<g>
		<path class="st0" d="M10.3,7.7L9.7,7.1L9.3,6.8c-0.1-0.1-0.2-0.1-0.2,0L9,6.8L8.7,7.1L8.3,7.5L7.9,7.8L7.5,8.1v0h0L7.2,8.4
			L7.2,8.4l-2.5,2.2c-0.5,0.5-0.5,1.3,0,1.8C5.1,13,6,13,6.5,12.5L8.5,10l0.3-0.4L9,9.5l0.2-0.3l0.5-0.6L10,8.3L10.3,8
			c0,0,0,0,0-0.1C10.4,7.8,10.3,7.8,10.3,7.7z M9.3,8.3L8.8,8.9L8.6,9.2l0,0L8.2,9.7l-2.1,2.4c-0.3,0.3-0.8,0.3-1.1,0
			c-0.3-0.3-0.3-0.8,0-1.1l2.5-2.1l0.1-0.1l0.3-0.2l0.1-0.1l1.1-1l0.1-0.1l0.1-0.1l0.1,0.1l0.2,0.2l0.1,0.1l0.1,0.1L9.7,7.9L9.3,8.3
			z"/>
		<path class="st2" d="M10.7,7.4L10,6.7L9.7,6.4C9.5,6.2,9.3,6.2,9.1,6.2C9,6.2,8.9,6.3,8.8,6.4L8.7,6.4L8.3,6.8L7.9,7.1L7.6,7.4
			L7.2,7.7L6.8,8.1l-2.5,2.2c-0.3,0.3-0.5,0.8-0.5,1.3c0,0.5,0.2,0.9,0.5,1.3c0.4,0.4,0.8,0.5,1.3,0.5c0.5,0,0.9-0.2,1.3-0.6l2-2.4
			L9.2,10l0.3-0.4L10.1,9l0.3-0.4l0.3-0.3c0,0,0,0,0-0.1c0.1-0.1,0.1-0.2,0.1-0.3C10.9,7.8,10.8,7.5,10.7,7.4z M8.2,9.7l-2.1,2.4
			c-0.3,0.3-0.8,0.3-1.1,0c-0.3-0.3-0.3-0.8,0-1.1l2.5-2.1l0.1-0.1l0.3-0.2l0.1-0.1l1.1-1l0.1-0.1l0.1-0.1l0.1,0.1l0.2,0.2l0.1,0.1
			l0.1,0.1L9.7,7.9L9.3,8.3L8.8,8.9L8.6,9.2l0,0L8.2,9.7z"/>
	</g>
</g>
</svg>
