<?xml version="1.0" encoding="utf-8"?>
<!-- Generator: Adobe Illustrator 25.2.0, SVG Export Plug-In . SVG Version: 6.00 Build 0)  -->
<svg version="1.1" id="Laag_1" xmlns="http://www.w3.org/2000/svg" xmlns:xlink="http://www.w3.org/1999/xlink" x="0px" y="0px"
	 viewBox="0 0 96.5 84.1" style="enable-background:new 0 0 96.5 84.1;" xml:space="preserve">
<style type="text/css">
	.st0{fill:#CD0067;}
	.st1{fill:#FFFFFF;}
</style>
<g>
	<rect x="10.7" y="47.4" width="15.5" height="25.7"/>
	<path d="M27.4,34.5c0,4.8-3.9,8.8-8.8,8.8c-4.8,0-8.8-3.9-8.8-8.8c0-4.8,3.9-8.8,8.8-8.8C23.4,25.8,27.4,29.7,27.4,34.5z"/>
	<g>
		<g>
			<path d="M55.5,0H0v84.1h55.5v0c12.1-0.2,21.7-3.2,28.5-9c8.3-7,12.5-18.2,12.5-33.1c0-7.1-1.1-13.5-3.3-19
				C91.1,17.8,88,13.4,84,9.8C77,3.6,67.1,0.2,55.5,0C55.5,0,55.5,0,55.5,0z M54.4,5.6c10.8,0,19.7,2.9,25.9,8.4
				c7,6.2,10.6,15.7,10.6,28.1c0,24.5-11.9,36.5-36.5,36.5c-1.9,0-43.9,0-48.8,0c0-5,0-67.9,0-72.9C10.5,5.6,52.5,5.6,54.4,5.6z"/>
		</g>
	</g>
	<g>
		<g>
			<path class="st0" d="M52.9,73.1H33.3V12.4h19.6h-0.8c16.4,0,33.8,6.5,33.8,30.4c0,25.3-17.4,30.3-33.8,30.3H52.9z"/>
		</g>
	</g>
	<g>
		<g>
			<path class="st1" d="M29.9,28h5.4c1.2,0,2.1,0.1,2.8,0.3c0.9,0.3,1.6,0.7,2.2,1.3c0.6,0.6,1.1,1.4,1.4,2.4
				c0.3,0.9,0.5,2.1,0.5,3.4c0,1.2-0.1,2.2-0.4,3.1c-0.4,1.1-0.9,1.9-1.6,2.6c-0.5,0.5-1.2,0.9-2.1,1.2c-0.7,0.2-1.5,0.3-2.6,0.3
				h-5.5V28z M32.8,30.5v9.6h2.2c0.8,0,1.4,0,1.8-0.1c0.5-0.1,0.9-0.3,1.2-0.6c0.3-0.3,0.6-0.8,0.8-1.4c0.2-0.7,0.3-1.5,0.3-2.7
				c0-1.1-0.1-2-0.3-2.6c-0.2-0.6-0.5-1.1-0.8-1.4c-0.4-0.3-0.8-0.6-1.4-0.7c-0.4-0.1-1.2-0.1-2.4-0.1H32.8z"/>
			<path class="st1" d="M29.5,27.6V43h5.9c1.1,0,2-0.1,2.7-0.3c0.9-0.3,1.7-0.7,2.2-1.3c0.7-0.7,1.3-1.6,1.7-2.7
				c0.3-0.9,0.5-2,0.5-3.2c0-1.4-0.2-2.6-0.5-3.6c-0.3-1-0.8-1.8-1.5-2.5c-0.7-0.7-1.5-1.2-2.4-1.5c-0.7-0.2-1.6-0.3-2.9-0.3H29.5z
				 M35.3,28.4c1.2,0,2.1,0.1,2.7,0.3c0.8,0.2,1.5,0.6,2,1.2c0.6,0.6,1,1.3,1.3,2.2c0.3,0.9,0.5,2,0.5,3.3c0,1.2-0.1,2.2-0.4,3
				c-0.3,1-0.8,1.8-1.5,2.4c-0.5,0.5-1.1,0.8-1.9,1.1c-0.6,0.2-1.4,0.3-2.5,0.3c0,0-4.5,0-5.1,0c0-0.7,0-13.1,0-13.8
				C31,28.4,35.3,28.4,35.3,28.4z"/>
			<path class="st1" d="M32.4,30.1v10.4h2.6c0.9,0,1.5,0,1.9-0.2c0.5-0.1,1-0.4,1.4-0.7c0.4-0.3,0.7-0.9,0.9-1.6
				c0.2-0.7,0.3-1.6,0.3-2.8c0-1.2-0.1-2.1-0.3-2.7c-0.2-0.7-0.5-1.2-0.9-1.6c-0.4-0.4-0.9-0.7-1.6-0.8c-0.4-0.1-1.3-0.1-2.5-0.1
				H32.4z M34.2,30.9c1.5,0,2.1,0.1,2.3,0.1c0.5,0.1,0.9,0.3,1.2,0.6c0.3,0.3,0.6,0.7,0.7,1.2c0.2,0.6,0.3,1.4,0.3,2.5
				c0,1.1-0.1,1.9-0.3,2.6c-0.2,0.6-0.4,1-0.7,1.2c-0.3,0.2-0.6,0.4-1,0.5c-0.3,0.1-0.9,0.1-1.7,0.1c0,0-1.3,0-1.8,0
				c0-0.7,0-8.1,0-8.8C33.6,30.9,34.2,30.9,34.2,30.9z"/>
		</g>
		<g>
			<path class="st1" d="M45.5,42.6V28h10.8v2.5h-7.9v3.2h7.3v2.5h-7.3v3.9h8.1v2.5H45.5z"/>
			<path class="st1" d="M45.1,27.6V43h11.9v-3.3c0,0-7.4,0-8.1,0c0-0.6,0-2.6,0-3.1c0.7,0,7.3,0,7.3,0v-3.3c0,0-6.6,0-7.3,0
				c0-0.5,0-1.9,0-2.4c0.7,0,7.9,0,7.9,0v-3.3H45.1z M55.9,28.4c0,0.5,0,1.2,0,1.7c-0.7,0-7.9,0-7.9,0v4c0,0,6.6,0,7.3,0
				c0,0.5,0,1.2,0,1.7c-0.7,0-7.3,0-7.3,0v4.7c0,0,7.4,0,8.1,0c0,0.5,0,1.2,0,1.7c-0.7,0-9.6,0-10.3,0c0-0.7,0-13.1,0-13.8
				C46.6,28.4,55.2,28.4,55.9,28.4z"/>
		</g>
		<g>
			<path class="st1" d="M73,42.6h-3.2l-1.3-3.3h-5.8l-1.2,3.3h-3.1L64.1,28h3.1L73,42.6z M67.6,36.9l-2-5.4l-2,5.4H67.6z"/>
			<path class="st1" d="M63.8,27.6l-6,15.4h4c0,0,1-2.9,1.2-3.3c0.5,0,4.8,0,5.3,0c0.2,0.4,1.3,3.3,1.3,3.3h4.1l-6.2-15.4H63.8z
				 M66.9,28.4c0.2,0.5,5.1,12.8,5.5,13.8c-0.7,0-2,0-2.3,0c-0.2-0.4-1.3-3.3-1.3-3.3h-6.4c0,0-1,2.9-1.2,3.3c-0.4,0-1.6,0-2.3,0
				c0.4-1,5.2-13.3,5.4-13.8C64.7,28.4,66.5,28.4,66.9,28.4z"/>
			<path class="st1" d="M63.1,37.3h5.1l-2.6-7L63.1,37.3z M65.6,32.6c0.4,1.2,1.2,3.2,1.4,3.9c-0.7,0-2.1,0-2.8,0
				C64.4,35.8,65.2,33.8,65.6,32.6z"/>
		</g>
		<g>
			<path class="st1" d="M75.5,42.6V28.2h2.9v12h7.3v2.5H75.5z"/>
			<path class="st1" d="M75.1,27.8V43h11.1v-3.3c0,0-6.6,0-7.3,0c0-0.7,0-12,0-12H75.1z M78,28.6c0,0.7,0,12,0,12s6.6,0,7.3,0
				c0,0.5,0,1.2,0,1.7c-0.7,0-8.8,0-9.5,0c0-0.7,0-12.9,0-13.7C76.4,28.6,77.5,28.6,78,28.6z"/>
		</g>
	</g>
</g>
</svg>
