<svg xmlns="http://www.w3.org/2000/svg" viewBox="0 0 2500 498.6"><defs><style>.cls-1{fill:#78a431;}.cls-2{fill:#675041;}</style></defs><g id="Laag_2" data-name="Laag 2"><g id="Layer_1" data-name="Layer 1"><path class="cls-1" d="M173.4,3.2a147.2,147.2,0,0,0-58.4,0C45.3,17.4,0,72.6,0,144V368c0,9.2,1.1,15.6,3.9,20.9l.3.4a25.3,25.3,0,0,0,16,12.3,25,25,0,0,0,20.5-3.8C52.4,390,53.8,376.5,53.8,367V276.7H235v91a45.8,45.8,0,0,0,4.9,21.2,25.8,25.8,0,0,0,15.9,12.4,36.6,36.6,0,0,0,6.1.7,23.6,23.6,0,0,0,14.5-4.6c10.6-7.1,12-18.8,12-30.8V143.7C288,72.2,243.1,17.4,173.4,3.2Zm61.2,141.2v82.1H54.1V144.4c0-35.4,12.4-60.2,39.7-77.9,19.1-13.4,44.2-18.4,69-13.8a76.9,76.9,0,0,1,31.8,13.5l.4.3c26.9,18.1,39.6,42.9,39.6,77.9ZM824.1,279.9a25.2,25.2,0,0,0-14.8-12.7c-6.8-2.1-13.8-1.1-20.2,2.1-12.4,6-14.9,19.5-15.6,24.1l-2.1,11.3-.3,3.5c-8.2,35.1-36.5,54.2-72.6,48.9-23.3-3.6-54.5-16-54.5-80.4v-4.2h70.8c8.5,0,34.3,0,34.3-25.5,0-12.7-9.5-23.3-20.9-24a96.8,96.8,0,0,0-15.2-.8H644v-98c0-9.2-1-15.5-3.9-20.9V103a25.8,25.8,0,0,0-15.9-12.4,24.9,24.9,0,0,0-20.5,3.9c-10.6,7.1-12.1,18.8-12.1,30.8V271.4c0,83.2,30.1,124.9,97.7,135.9a132.2,132.2,0,0,0,23.4,2.1c53,0,97.6-32.9,111.8-85.2,1-4.3,1.8-8.2,2.5-12.1v-.3c2.1-15.2,1.4-23.7-2.9-31.9Zm345.8-69.7c-22.7-84.6-109-133.4-196.8-111.5-44.9,11.4-81.4,38.6-102.6,76.8s-25.1,83.9-11,128.5c21.3,65.4,81.8,106.5,150.8,106.5a174.8,174.8,0,0,0,38.2-4.3,169.1,169.1,0,0,0,55.5-23.3c12.8-8.5,23.4-17.7,29.1-24.8,8.8-10.6,14.1-19.1,13-29a24.6,24.6,0,0,0-29.3-21.6l-1.1.4c-6.7,2.1-12,4.9-16.3,9.2l-4.6,5.6-6.7,6.1-.3.3c-14.9,14.9-33,25.1-52.4,29-52.7,12.1-104.8-15.9-123.9-66.1-1.4-4.3-2.4-8.2-3.5-11.7h231.4l5-.7,7.8-.4c8.5-.7,14.8-3.9,19.1-9.9,7.8-11,7.4-27.2-1.4-59.1Zm-259.1,8.9c18.1-57.4,75.8-88.2,133.8-71.2,36.4,10.6,64.7,40.4,73.9,77.5a68,68,0,0,1,1.8,8.5l-213-1.7c.7-4.6,2.1-8.5,3.5-13.1Zm531.9-31.9c-1.1-4.6-2.5-8.5-3.6-12l-1-3.2c-18.4-51-60.9-81-113.3-80.7a112.5,112.5,0,0,0-25.1,2.5c-41.7,9.2-91.3,39.3-91.3,130.2V367.7a43,43,0,0,0,5,21.2,25.8,25.8,0,0,0,15.9,12.4,36.6,36.6,0,0,0,6,.7,23.4,23.4,0,0,0,14.5-4.6c11-7.4,11-20.2,11-30.8V224c0-48.1,15.2-71.5,50.6-78.5,23.7-5.4,47.1,2.4,61.6,19.8,7,8.5,11.3,16.6,13.1,23.7,5.3,25.5,8.1,33.2,11.6,38.2l1.1,1.4c7.8,8.9,21.6,11.3,32.9,5.7,16.3-8.9,14.5-29.8,11-47.1Z"/><path class="cls-2" d="M1750.5,48.9C1724.3,17.4,1685.1-.7,1642.6,0c-79.6,1.1-133.4,58.8-133.4,143.7v224a43,43,0,0,0,5,21.2,25.6,25.6,0,0,0,15.9,12.4,35.3,35.3,0,0,0,6,.7,23.4,23.4,0,0,0,14.5-4.6c11-7.4,12.4-19.8,12.4-30.8V265.1h77.5c73.2,0,123.1-38.3,136.9-104.8,8.2-40-1.4-80.3-26.9-111.4Zm-24.7,84.9c-1.1,47.7-36.1,80.7-85.7,80.7h-1l-75.4-1.1V139.1c0-33.3,4.9-48.8,20.9-65.1s36.1-24.1,60.5-23.7C1692.9,51.3,1726.1,85.7,1725.8,133.8Zm387.8,101.9c-.7-12.7-2.5-24.1-5.7-34.3-10.9-38.3-36.8-70.1-72.5-89.9-38.2-20.9-83.2-25.5-126.3-12.8-56.3,16.7-98.8,62-110.4,118.9-17.4,85.7,30.7,165.6,111.8,186.5a177.2,177.2,0,0,0,44.9,5.7,156.8,156.8,0,0,0,64.4-13.5c16.3-7.4,30.8-17.3,42.1-29.3v.7c0,9.5,0,15.2,2.9,20.9l.3.3a25.8,25.8,0,0,0,15.9,12.4,25.2,25.2,0,0,0,20.6-3.9c10.9-7.4,12.7-19.8,12.7-30.8V241.7l-.7-6ZM1980.5,356.4c-58.3,13.4-112.5-18.4-128.1-75.8v-.3a104.2,104.2,0,0,1-4.2-22.3c-3.2-50.6,27.2-96.3,74.3-110.8a116.7,116.7,0,0,1,34.3-5.3,104.7,104.7,0,0,1,60.9,19.1c27.2,19.1,43.5,50.3,44.6,85.3C2064.4,300.4,2031.8,344.7,1980.5,356.4Zm414.1-243.1-11,5.3,11-5.3-.4-.8a25.3,25.3,0,0,0-15.9-12.3,24.9,24.9,0,0,0-20.6,3.9c-10.6,7-11.6,19.1-11.6,30.7V277.4c0,28-8.5,50.6-23.7,64.1-13.5,11.7-31.5,16.3-52.4,13.4-36.1-4.9-55.9-30.7-55.9-72.9V134.1c0-8.8-.7-15.2-3.6-21.2a25.6,25.6,0,0,0-15.9-12.4,24.9,24.9,0,0,0-20.5,3.9c-11,7.4-12.7,19.8-12.7,30.8V283.1c0,59.1,26.9,100.9,76,117.8,37.9,13.1,79.3,6.8,108-14.5v1.1c-4.6,31.1-20.6,49.9-48.9,57.3-15.2,4.3-30.8,3.2-42.8-2.8-9.9-5-17-10.6-21.2-16.6l-7.8-10-5-5.6a31.4,31.4,0,0,0-7-7.4l-1.4-1.5-1.5-.7a24.7,24.7,0,0,0-23.3-1,25.7,25.7,0,0,0-14.9,18.7c-1.7,11.3,2.9,20.9,11,33.3l.3.3a127.2,127.2,0,0,0,23,24.1c19.2,15.2,44.3,23,70.8,23a141.3,141.3,0,0,0,34-4.2c57-14.5,88.5-60.2,88.5-128.5V134.1C2399.5,123.2,2396.3,117.1,2394.6,113.3Z"/><path class="cls-1" d="M560.2,187.2a86.5,86.5,0,0,0-3.6-12l-1-3.2c-18.4-51-60.9-81-113.3-80.7a110.1,110.1,0,0,0-25.1,2.5c-41.8,9.2-91.3,39.3-91.3,130.2V367.7a42.9,42.9,0,0,0,5,20.9v.3a25.6,25.6,0,0,0,15.9,12.4,35.3,35.3,0,0,0,6,.7,23.4,23.4,0,0,0,14.5-4.6c10.6-7.1,12-19.1,12-30.8v-34l-1-59.8h75.3c24.8,0,30.8-12.7,31.5-23.7.4-9.2-3.1-14.8-6-18-5.3-5.7-13.8-8.5-25.5-8.5H377.9c.4-46.7,15.6-69.7,50.6-77.1,23.7-5.4,47.1,2.4,61.6,19.8,7.1,8.8,11.3,16.6,13.1,23.7,5.3,25.5,8.1,33.2,11.7,38.2l1,1.4c7.8,8.9,21.6,11.3,32.9,5.7,16.7-8.9,14.9-29.8,11.4-47.1Z"/><path class="cls-2" d="M2488.7,78.9q-11.7,11.7-27.6,11.7a36.5,36.5,0,0,1-27.6-11.7,38.6,38.6,0,0,1-11.3-27.6,38.6,38.6,0,0,1,11.3-27.6,37.4,37.4,0,0,1,27.6-11.3,38,38,0,0,1,27.6,11.3c7.8,7.5,11.3,16.7,11.3,27.6s-3.9,19.8-11.3,27.6M2437,27.3c-6.4,6.7-9.9,14.5-9.9,23.7a32.8,32.8,0,0,0,9.9,24,31.7,31.7,0,0,0,23.7,9.9c9.2,0,17.4-3.1,23.7-9.9s9.9-14.5,9.9-24-3.1-17.4-9.9-23.7a31.7,31.7,0,0,0-23.7-9.9c-9.2,0-17,3.5-23.7,9.9m23,2.1c5.3,0,9.2.3,11.7,1.4,4.2,1.8,6.7,5.3,6.7,11,0,3.9-1.4,6.7-4.2,8.5a15,15,0,0,1-6.4,2.1,12.7,12.7,0,0,1,7.4,4.2c1.4,2.2,2.5,4.6,2.5,6.8v6.3c0,1.1,0,1.8.4,2.2l.3.3h-7.1V66.5c0-4.9-1.4-8.1-3.9-9.9s-4.2-1.4-8.4-1.4h-6.1v17h-7.7V29.4Zm8.2,7.1c-1.8-1.1-5-1.8-9.2-1.8h-6.4V50.3h6.7a17.4,17.4,0,0,0,7.1-1.1,7,7,0,0,0,4.6-6.7c0-2.8-.7-5-2.8-6"/></g></g></svg>