<svg xmlns="http://www.w3.org/2000/svg" viewBox="0 0 10.45 16.93"><defs><style>.cls-1{fill:#002068;}.cls-2{fill:#0363ed;}</style></defs><g id="Laag_2" data-name="Laag 2"><g id="Laag_1-2" data-name="Laag 1"><path class="cls-1" d="M1.91,4.58h0Z"/><path class="cls-1" d="M3.43,2.85A.76.76,0,0,0,4,3.07H6.39a.76.76,0,0,0,.55-.22Z"/><path class="cls-1" d="M10.4,13.39V10.77l-.32-.13A13.75,13.75,0,0,0,8,10L7.7,9.93a2.85,2.85,0,0,0-.1-.51A4.78,4.78,0,0,0,9.09,5.86c0-.11,0-.25,0-.41a1,1,0,0,0,.51-.84V4.12A1.72,1.72,0,0,0,10,3V2A2,2,0,0,0,8,0H2.4a2,2,0,0,0-2,2V3A1.77,1.77,0,0,0,.92,4.27v.34a1,1,0,0,0,.4.76c0,.22,0,.39,0,.49A4.83,4.83,0,0,0,2.74,9.39v0a3.17,3.17,0,0,0-.08.51L2.42,10a13.64,13.64,0,0,0-2.07.61L0,10.71v2.65C0,14.63,0,16.25.41,16.72a.61.61,0,0,0,.47.21H9.57a.64.64,0,0,0,.48-.21C10.49,16.25,10.48,14.63,10.4,13.39ZM1.6,3.12a.6.6,0,0,0-.15.09l0,0a.83.83,0,0,1,0-.22V2a1,1,0,0,1,1-1H8A1,1,0,0,1,9,2V3a.61.61,0,0,1,0,.14l-.07,0a2.47,2.47,0,0,0-1.17-.27h-.8a.76.76,0,0,1-.55.22H4a.76.76,0,0,1-.54-.22H2.76a2.47,2.47,0,0,0-.39,0A2,2,0,0,0,2,3,1.06,1.06,0,0,0,1.77,3ZM2,4.64l-.11-.06h0l-.06,0,0-.43a1.12,1.12,0,0,1,.86-.27h5a1.92,1.92,0,0,1,.47.06l.12,0A.74.74,0,0,1,8.51,4l.09.08.13.37-.12.06,0,0,0,0-.12.06a.19.19,0,0,1-.09,0,1.51,1.51,0,0,1-.44.06H2.59l-.26,0a.92.92,0,0,1-.25-.08Zm.25,1.22V5.73l.31,0h5.5v.11A3.79,3.79,0,0,1,6.82,8.78a2.51,2.51,0,0,1-3.28,0A3.8,3.8,0,0,1,2.28,5.86Zm2.9,6.4A2.62,2.62,0,0,0,7.41,11v1.87H3V11.12A2.61,2.61,0,0,0,5.18,12.26Zm-1.51-2a4.7,4.7,0,0,0,1.52.18,4.05,4.05,0,0,0,1.52-.22,1.64,1.64,0,0,1-3,0Zm5.67,5.67H1.11A11.57,11.57,0,0,1,1,13.39v-2c.33-.12.66-.22,1-.31v2.8H8.41V11.13c.33.09.66.2,1,.32v2A11,11,0,0,1,9.34,15.93Z"/><path class="cls-1" d="M3.43,2.85A.76.76,0,0,0,4,3.07H6.39a.76.76,0,0,0,.55-.22Z"/><path class="cls-2" d="M7.18,2.27h0a.78.78,0,0,1-.24.57.76.76,0,0,1-.55.22H4a.76.76,0,0,1-.54-.22.77.77,0,0,1-.26-.58A.79.79,0,0,1,4,1.48H6.39A.79.79,0,0,1,7.18,2.27Z"/></g></g></svg>