<?xml version="1.0" encoding="utf-8"?>
<!-- Generator: Adobe Illustrator 24.3.0, SVG Export Plug-In . SVG Version: 6.00 Build 0)  -->
<svg version="1.1" id="Laag_1" xmlns="http://www.w3.org/2000/svg" xmlns:xlink="http://www.w3.org/1999/xlink" x="0px" y="0px"
	 viewBox="0 0 306.8 42.6" style="enable-background:new 0 0 306.8 42.6;" xml:space="preserve">
<style type="text/css">
	.st0{fill:#0363ED;}
</style>
<g id="Laag_2_1_">
	<g id="Laag_1-2">
		<path class="st0" d="M80.1,16.9h-4.5c-0.5,0-0.9-0.4-0.9-0.9c0-0.5,0.4-0.9,0.9-0.9h4.2c0-0.1-0.1-0.3-0.1-0.4
			c-0.4-1.3-1-2.5-1.9-3.5c-0.9-0.9-1.9-1.6-3.1-2.1c-1.1-0.4-2.3-0.7-3.5-0.7c-1,0-1.9,0.1-2.8,0.3c-0.6,0.1-1.2,0.4-1.8,0.7
			c-0.4,0.3-0.8,0.6-1.2,0.9c-0.3,0.3-0.6,0.6-0.9,1l0.2-1.1c0.1-0.3,0-0.6-0.2-0.9C64.3,9.1,64,9,63.7,9h-5.7
			c-0.7,0-1.4,0.6-1.5,1.3l-6.6,31c-0.1,0.3,0,0.7,0.2,0.9c0.2,0.3,0.5,0.4,0.8,0.4h6c0.4,0,0.7-0.1,1-0.4c0.3-0.2,0.5-0.5,0.5-0.9
			l2.2-10.1c0.2,0.3,0.4,0.7,0.7,0.9c0.4,0.4,0.8,0.7,1.2,0.9c0.6,0.3,1.2,0.5,1.8,0.7c0.8,0.2,1.6,0.3,2.4,0.3
			c2.9,0.1,5.7-0.8,8-2.5c1.6-1.4,2.8-3.2,3.5-5.3h-6c-0.5-0.1-0.8-0.5-0.8-1c0-0.4,0.4-0.7,0.8-0.8h6.6c0.1-0.4,0.2-0.7,0.3-1.1
			c0.1-0.2,0.1-0.5,0.2-0.9s0.1-0.6,0.2-1h-8.5c-0.1,0.3-0.2,0.7-0.3,1c-0.3,1.1-0.9,2.1-1.7,2.9c-0.9,0.9-2.2,1.3-3.4,1.2
			c-0.6,0-1.2-0.1-1.7-0.3c-0.4-0.2-0.8-0.5-1.1-0.9c-0.3-0.4-0.4-0.8-0.5-1.2c-0.1-0.4-0.1-0.8-0.1-1.3c0-0.6,0.1-1.1,0.2-1.6
			c0.1-0.6,0.3-1.2,0.5-1.7c0.2-0.5,0.4-0.9,0.7-1.4c0.3-0.4,0.6-0.9,1-1.2c0.4-0.4,0.9-0.7,1.4-0.9c0.6-0.2,1.3-0.3,1.9-0.3
			c0.6,0,1.2,0.1,1.8,0.3c0.4,0.2,0.8,0.5,1.1,0.9c0.3,0.4,0.4,0.8,0.5,1.3c0.1,0.5,0.1,1,0,1.5h8.5v-0.2
			C80.1,18.7,80.1,17.8,80.1,16.9z"/>
		<path class="st0" d="M107.4,15.4c-0.5-1.3-1.2-2.6-2.2-3.6c-1.1-1.1-2.3-1.9-3.7-2.4c-1.5-0.6-3.1-0.9-4.7-0.9
			c-1.9,0-3.9,0.3-5.7,0.8c-1.6,0.5-3,1.3-4.3,2.3c-1.2,1-2.2,2.1-2.9,3.4c-0.8,1.3-1.4,2.7-1.8,4.2c-0.1,0.5-0.3,1.1-0.4,1.8
			s-0.3,1.4-0.4,1.8c-0.3,1.4-0.1,2.9,0.3,4.3c0.5,1.3,1.2,2.6,2.2,3.5c1.1,1,2.3,1.9,3.7,2.4c1.5,0.6,3.1,0.9,4.7,0.9
			c2,0,4-0.2,5.9-0.8c1.6-0.5,3-1.2,4.3-2.3c1.2-0.9,2.1-2.1,2.8-3.4c0.7-1.3,1.3-2.7,1.7-4.2c0.2-0.6,0.4-1.2,0.5-1.8
			c0.2-0.7,0.3-1.4,0.3-1.8C108,18.3,107.9,16.8,107.4,15.4z M99.2,19.7c-0.1,0.5-0.2,1-0.2,1.6c-0.1,0.5-0.2,1.1-0.4,1.6
			c-0.3,1.1-1,2.1-1.9,2.8c-1,0.7-2.1,1-3.3,1c-1,0.1-2.1-0.3-2.8-1c-0.6-0.8-0.9-1.8-0.7-2.8c0.1-0.5,0.2-1,0.3-1.6
			c0.1-0.5,0.2-1.1,0.4-1.6c0.3-1.1,1-2.1,1.9-2.8c0.9-0.7,2.1-1,3.3-1c1-0.1,2.1,0.3,2.8,1C99.1,17.7,99.4,18.7,99.2,19.7z"/>
		<path class="st0" d="M134.8,16.8c-0.5-3.1-2.5-5.7-5.2-7.1c-1.7-0.8-3.5-1.2-5.3-1.1c-2,0-3.9,0.3-5.8,0.9
			c-1.6,0.5-3.1,1.4-4.3,2.5c-1.2,1.1-2.3,2.4-3,3.9c-0.8,1.6-1.4,3.3-1.8,5c-0.4,1.8-0.5,3.6-0.1,5.4c0.3,1.5,1,3,2,4.2
			c1,1.2,2.2,2.1,3.6,2.7c1.6,0.7,3.2,1,4.9,1c2.1,0.1,4.2-0.3,6.2-0.9c1.5-0.5,2.8-1.2,4.1-2.1c0.9-0.7,1.7-1.5,2.3-2.4
			c0.4-0.5,0.7-1.1,0.9-1.7c0.2-0.7-0.1-1-0.8-1h-6.2c-0.3,0-0.6,0-0.8,0.1c-0.3,0.2-0.6,0.3-0.9,0.5c-0.5,0.4-1,0.6-1.6,0.8
			c-0.8,0.2-1.5,0.3-2.3,0.3c-0.5,0-1-0.1-1.4-0.2c-0.5-0.1-0.9-0.3-1.3-0.6c-0.4-0.3-0.6-0.7-0.8-1.1c-0.2-0.6-0.2-1.2,0-1.8H133
			c0.7,0,1.4-0.6,1.5-1.3l0.3-1.3C135.1,19.9,135.1,18.3,134.8,16.8z M126.8,18.7h-8.5c0.4-1,1-1.9,1.8-2.6c0.9-0.8,2.1-1.2,3.3-1.2
			c1.1-0.1,2.1,0.3,2.8,1.2C126.6,16.9,126.9,17.8,126.8,18.7L126.8,18.7z"/>
		<path class="st0" d="M166.2,0.4C166,0.1,165.7,0,165.3,0h-6c-0.4,0-0.7,0.1-1,0.4c-0.3,0.2-0.5,0.5-0.6,0.9l-2.2,10.1
			c-0.2-0.3-0.4-0.6-0.7-0.9c-0.4-0.4-0.8-0.7-1.2-0.9c-0.6-0.3-1.2-0.5-1.8-0.7c-0.8-0.2-1.6-0.3-2.4-0.3c-2.9-0.1-5.7,0.8-8,2.5
			c-2,1.7-3.5,4.4-4.4,8.1c-0.1,0.2-0.1,0.5-0.2,0.9s-0.2,0.7-0.2,1s-0.1,0.7-0.2,1.1l-0.1,0.9c-0.3,1.6-0.3,3.3,0.2,4.9
			c0.4,1.3,1,2.5,1.9,3.5c0.9,0.9,1.9,1.6,3.1,2.1c1.1,0.5,2.3,0.7,3.6,0.7c1,0,1.9-0.1,2.8-0.3c0.6-0.1,1.2-0.4,1.8-0.7
			c0.4-0.3,0.8-0.6,1.2-0.9l0.9-1l-0.2,1.1c-0.1,0.3,0,0.6,0.2,0.9c0.2,0.3,0.5,0.4,0.8,0.4h5.7c0.4,0,0.7-0.1,1-0.4
			c0.3-0.2,0.5-0.5,0.6-0.9l6.6-31.1C166.4,0.9,166.3,0.6,166.2,0.4z M153.9,19.6c0,0.6-0.1,1.1-0.2,1.7c-0.1,0.6-0.3,1.1-0.5,1.6
			c-0.2,0.5-0.4,0.9-0.7,1.4c-0.3,0.4-0.6,0.9-1,1.2c-0.9,0.8-2.1,1.2-3.3,1.2c-0.6,0-1.2-0.1-1.8-0.3c-0.4-0.2-0.8-0.5-1.1-0.9
			c-0.3-0.4-0.4-0.8-0.5-1.3c-0.1-0.5-0.1-1.1,0-1.6c0.1-0.5,0.1-0.9,0.2-1.3c0.1-0.5,0.2-0.9,0.4-1.3c0.3-1.1,0.9-2.1,1.7-2.9
			c0.9-0.9,2.2-1.3,3.4-1.2c0.6,0,1.2,0.1,1.7,0.3c0.4,0.2,0.8,0.5,1.1,0.9c0.3,0.4,0.4,0.8,0.5,1.2C154,18.7,154,19.2,153.9,19.6z"
			/>
		<path class="st0" d="M194.2,9.7c0-0.4-0.4-0.7-0.8-0.7c0,0,0,0,0,0h-7.9c-0.4,0-0.8,0.1-1.2,0.3c-0.3,0.2-0.6,0.3-0.9,0.5
			l-7.7,6.8L179,1.3c0.1-0.3,0-0.6-0.2-0.9C178.6,0.1,178.3,0,178,0h-6c-0.4,0-0.7,0.1-1,0.4c-0.3,0.2-0.5,0.5-0.5,0.9l-6.6,31.1
			c-0.1,0.3,0,0.6,0.2,0.9c0.2,0.3,0.5,0.4,0.8,0.4h6c0.4,0,0.7-0.1,1-0.4c0.3-0.2,0.5-0.5,0.6-0.9l1.7-8l5.7,8.5
			c0.2,0.3,0.4,0.5,0.7,0.6c0.3,0.2,0.7,0.2,1.1,0.2h6.2c0.3,0,0.6-0.1,0.9-0.3c0.3-0.2,0.4-0.5,0.5-0.8c0-0.1,0-0.3,0-0.4
			c-0.1-0.2-0.2-0.4-0.3-0.5L182,21.4l11.7-10.5C194.1,10.6,194.2,10.1,194.2,9.7z"/>
		<path class="st0" d="M206.2,0.4C206,0.1,205.7,0,205.3,0h-6c-0.4,0-0.7,0.1-1,0.4c-0.3,0.2-0.5,0.5-0.5,0.9l-6.6,31.1
			c-0.1,0.3,0,0.6,0.2,0.9c0.2,0.3,0.5,0.4,0.8,0.4h6c0.4,0,0.7-0.1,1-0.4c0.3-0.2,0.5-0.5,0.6-0.9l6.6-31.1
			C206.5,1,206.4,0.6,206.2,0.4z"/>
		<path class="st0" d="M232.8,9.4C232.6,9.1,232.3,9,232,9h-6c-0.4,0-0.7,0.1-1,0.4c-0.3,0.2-0.5,0.5-0.6,0.9l-2.5,12
			c-0.2,1.2-0.8,2.3-1.6,3.3c-0.8,0.9-2,1.3-3.2,1.2c-1.4,0-2.3-0.4-2.7-1.2c-0.4-1-0.5-2.2-0.2-3.3l2.5-12c0.1-0.3,0-0.6-0.2-0.9
			C216.3,9.1,216,9,215.7,9h-6c-0.4,0-0.7,0.1-1,0.4c-0.3,0.2-0.5,0.5-0.6,0.9l-2.8,13c-0.4,1.6-0.5,3.2-0.1,4.8
			c0.5,2.5,2.3,4.5,4.7,5.3c1.2,0.4,2.4,0.6,3.7,0.6c0.9,0,1.7-0.1,2.5-0.3c0.6-0.1,1.3-0.4,1.8-0.7c0.5-0.2,0.9-0.5,1.4-0.9
			c0.4-0.3,0.7-0.7,1.1-1l-0.2,1.1c-0.1,0.3,0,0.6,0.2,0.9c0.2,0.3,0.5,0.4,0.8,0.4h5.5c0.4,0,0.7-0.1,1-0.4
			c0.3-0.2,0.5-0.5,0.5-0.9l4.7-22.1C233.1,10,233,9.6,232.8,9.4z"/>
		<path class="st0" d="M257.1,12.7c-0.6-0.9-1.3-1.6-2.2-2.1c-1.1-0.7-2.2-1.2-3.4-1.5c-1.4-0.4-2.8-0.6-4.3-0.6
			c-1.7,0-3.4,0.2-5,0.5c-1.3,0.3-2.5,0.8-3.6,1.5c-0.9,0.6-1.7,1.4-2.3,2.4c-0.6,0.9-1,1.9-1.2,3c-0.5,1.8-0.2,3.7,0.8,5.2
			c1.2,1.5,3,2.5,5,2.7c1.3,0.2,2.4,0.4,3.4,0.6c0.7,0.1,1.5,0.2,2.2,0.4c0.4,0.1,0.8,0.3,1.1,0.5c0.2,0.2,0.3,0.5,0.2,0.8
			c-0.1,0.5-0.6,0.8-1.3,1.1c-0.8,0.3-1.7,0.4-2.5,0.4c-0.7,0-1.4-0.1-2.1-0.3c-0.3-0.1-0.7-0.3-0.9-0.6c-0.2-0.2-0.4-0.4-0.5-0.6
			c-0.2-0.2-0.4-0.3-0.7-0.3h-5.9c-0.4,0-0.7,0.1-1,0.4c-0.3,0.2-0.5,0.5-0.6,0.9c-0.1,0.8,0.1,1.6,0.6,2.3c0.6,0.9,1.3,1.6,2.1,2.2
			c1.1,0.7,2.2,1.3,3.5,1.6c1.5,0.4,3,0.7,4.6,0.6c1.9,0,3.7-0.2,5.5-0.6c1.4-0.3,2.7-0.8,3.9-1.6c1-0.6,1.8-1.4,2.5-2.4
			c0.6-0.9,1-1.9,1.2-3c0.2-0.9,0.2-1.8,0.1-2.7c-0.1-0.9-0.5-1.7-1-2.4c-0.6-0.8-1.3-1.4-2.1-1.9c-1.1-0.6-2.3-0.9-3.5-1.1
			l-3.3-0.5c-0.6-0.1-1.3-0.2-1.9-0.4c-0.3-0.1-0.6-0.2-0.9-0.5c-0.1-0.3-0.1-0.5,0-0.8c0.1-0.5,0.5-0.9,0.9-1
			c0.6-0.2,1.2-0.3,1.9-0.3c0.6,0,1.3,0.1,1.9,0.2c0.4,0.1,0.7,0.3,1,0.5c0.2,0.2,0.5,0.4,0.6,0.5c0.2,0.2,0.5,0.3,0.8,0.2h5.6
			c0.4,0,0.7-0.1,1-0.4c0.3-0.2,0.5-0.5,0.5-0.9C257.9,14.3,257.6,13.5,257.1,12.7z"/>
		<path class="st0" d="M264.1,28.3c-0.2-0.3-0.5-0.4-0.8-0.4h-3.2c-0.4,0-0.7,0.1-1,0.4c-0.3,0.2-0.5,0.5-0.6,0.9l-0.7,3.2
			c-0.1,0.3,0,0.6,0.2,0.9c0.2,0.3,0.5,0.4,0.8,0.4h3.2c0.4,0,0.7-0.1,1-0.4c0.3-0.2,0.5-0.5,0.5-0.9l0.7-3.2
			C264.3,28.9,264.3,28.5,264.1,28.3z"/>
		<path class="st0" d="M293.4,14.7c-0.2-1.2-0.7-2.4-1.5-3.3c-0.8-0.9-1.8-1.6-3-2.1c-1.4-0.5-2.8-0.8-4.2-0.7
			c-0.9,0-1.7,0.1-2.6,0.3c-0.7,0.2-1.4,0.4-2,0.7c-0.6,0.3-1.1,0.6-1.6,1c-0.5,0.4-0.9,0.8-1.2,1.2l0.3-1.5c0.1-0.3,0-0.6-0.2-0.9
			c-0.2-0.3-0.5-0.4-0.8-0.4h-1.8c-0.4,0-0.7,0.1-1,0.4c-0.3,0.2-0.5,0.5-0.6,0.9l-4.7,22.1c-0.1,0.3,0,0.6,0.2,0.9
			c0.2,0.3,0.5,0.4,0.8,0.4h1.8c0.7,0,1.3-0.6,1.5-1.3l2.6-12.5c0.4-2.1,1.4-4,3.1-5.4c1.6-1.2,3.6-1.9,5.6-1.8
			c4.1,0,5.6,2.4,4.6,7.2l-2.6,12.5c-0.1,0.3,0,0.7,0.2,0.9c0.2,0.3,0.5,0.4,0.8,0.4h1.8c0.4,0,0.7-0.1,1-0.4
			c0.3-0.2,0.5-0.5,0.5-0.9l2.8-13.2C293.6,17.6,293.6,16.1,293.4,14.7z"/>
		<path class="st0" d="M306.6,0.4c-0.2-0.3-0.5-0.4-0.8-0.4H304c-0.4,0-0.7,0.1-1,0.4c-0.3,0.2-0.5,0.5-0.5,0.9l-6.6,31.1
			c-0.1,0.3,0,0.7,0.2,0.9c0.2,0.3,0.5,0.4,0.8,0.4h1.7c0.4,0,0.7-0.1,1-0.4c0.3-0.2,0.5-0.5,0.5-0.9l6.6-31.1
			C306.8,1,306.8,0.6,306.6,0.4z"/>
		<path class="st0" d="M52.9,9.3c-0.1,0.3-0.2,0.6-0.5,0.7c-0.2,0.2-0.5,0.3-0.8,0.3h-6.2c-0.3,0-0.7,0-1-0.2
			c-0.3-0.2-0.5-0.3-0.7-0.6c-0.1-0.1-0.2-0.3-0.4-0.5c-0.2-0.3-0.4-0.5-0.7-0.7c-0.4-0.3-0.8-0.5-1.3-0.6c-0.7-0.2-1.3-0.3-2-0.3
			c-0.6,0-1.2,0-1.8,0.1C37,7.8,36.5,7.9,36,8.1c-0.4,0.2-0.9,0.4-1.2,0.7c-0.3,0.3-0.6,0.7-0.6,1.2c-0.1,0.4,0,0.8,0.2,1.2
			c0.3,0.4,0.8,0.7,1.3,0.9c0.9,0.4,1.7,0.6,2.7,0.8c1.1,0.3,2.5,0.6,4.2,0.9c3.3,0.7,5.7,1.9,7,3.5c1.4,1.6,1.7,3.9,1.1,6.9
			c-0.6,3.1-2.4,5.7-5.1,7.3c-2.7,1.7-6.5,2.5-11.2,2.5c-1.8,0-3.6-0.3-5.3-0.8c-1.5-0.5-2.9-1.3-4.2-2.3c-1.1-0.8-2-1.9-2.7-3.1
			c-0.6-1.1-0.9-2.3-0.8-3.6c0.1-0.3,0.2-0.5,0.5-0.7c0.2-0.2,0.5-0.3,0.8-0.3h6.2c0.3,0,0.7,0,1,0.2c0.2,0.1,0.5,0.3,0.6,0.5
			c0.2,0.2,0.3,0.4,0.5,0.6c0.2,0.3,0.5,0.6,0.8,0.9c0.4,0.3,0.9,0.6,1.4,0.8c0.7,0.2,1.5,0.4,2.3,0.3c1.5,0,2.9-0.1,4.3-0.5
			c1-0.2,1.9-1,2.1-2c0.1-0.4,0-0.9-0.4-1.2c-0.5-0.4-1.1-0.7-1.7-0.9c-1-0.3-2-0.6-3-0.8l-4.3-1c-2.8-0.6-4.8-1.7-6-3.2H12.3
			c-0.5,0-0.9-0.4-0.9-0.9c0-0.5,0.4-0.9,0.9-0.9c0,0,0,0,0,0h13.3c-0.4-1.2-0.6-2.6-0.4-3.9H0.9c-0.5,0-0.9-0.4-0.9-0.9
			c0-0.5,0.4-0.9,0.9-0.9c0,0,0,0,0,0h24.6C25.8,8.2,26.3,7,27,5.9c0-0.1,0.1-0.2,0.2-0.2H7.7C7.3,5.6,7,5.1,7.1,4.6
			C7.2,4.3,7.4,4.1,7.7,4h20.9c0.4-0.4,0.9-0.8,1.3-1.1c1.3-1,2.8-1.7,4.4-2.1c2-0.5,4-0.8,6.1-0.8c1.8,0,3.5,0.3,5.2,0.9
			c1.4,0.5,2.8,1.3,4,2.2c1,0.8,1.9,1.8,2.5,3C52.6,7.1,52.9,8.2,52.9,9.3z"/>
	</g>
</g>
</svg>
