<svg xmlns="http://www.w3.org/2000/svg" viewBox="0 0 1988.4 364.3"><defs><style>.cls-1{fill:#fff;}</style></defs><g id="Laag_2" data-name="Laag 2"><g id="Laag_1-2" data-name="Laag 1"><path class="cls-1" d="M776.4,1.1c-.9.7-7.4,9-14.5,18.6l-72.4,97.1c-1.9,2.4-21.9,29.3-33.8,45.4l-6.8,9a46.7,46.7,0,0,0-3.5,4.6c-1.3,1.9-15.5,21-31.5,42.5s-30.9,41.5-33,44.5c-4.9,6.8-5.4,5.4-2.5-7.7s4.7-21.3,6-27.8c.5-2.8,1.9-9.5,3.1-15,5.5-25.7,5.6-26.4,12.4-61.5.9-4.7,2.1-10.5,2.6-13,4.1-20.4,5.2-28.2,5.6-39.5.8-19-1.7-30.6-9.2-43.4-9.5-16.1-25.4-26.8-47.2-31.5-5-1.1-12.4-1.6-24-1.6-42.5,0-78.8,13.9-114.3,43.8-10,8.4-29.7,28.2-36.5,36.7l-4.6,5.5c-.3.3-4.1,5.2-8.5,11-14.1,18.4-35.7,52-47.9,74.5-2.1,3.8-4.9,8.4-6.2,10.2s-2.3,3.7-2.3,4.4-.3,1-.6.6.2-3.6,4.6-16.2c1.5-4.4,3-8.9,3.3-10,.8-2.7,3.6-10.6,4.7-13s2.1-5.2,3.5-9c6.9-18,22.2-51.1,28-60.5,1.2-1.9,3.9-6.7,6-10.5,5.9-10.6,17.7-28.4,29.3-44,5.8-7.7,10.5-14.7,10.6-15.5s1.4-1.6-24.4-.1c-7.4.5-23.6.7-36,.6-21.4-.2-27-.6-57.5-4.1-23.8-2.6-49.8-4.4-65.5-4.4s-39.5,2.5-48.5,4.8l-9.5,2.3c-11.9,2.6-31.6,9.7-43.6,15.6C76.7,61.9,50.1,84.8,29.9,114.8,18.4,131.9,8.1,156.3,4,175.8c-.8,4.1-2.1,10-2.7,13-1.7,7.4-1.7,54.5-.1,62,3.7,16.7,4.7,20.3,7.4,28.5,12.5,37.1,37,63.1,73.3,77.6a186.7,186.7,0,0,0,19.5,5.6c6.3,1.5,11.9,1.8,34,1.8,29-.1,38.2-1.3,63.5-8.5,13.2-3.7,12.4-2.9,16.6-18.5,1.1-4.4,2.8-10.5,3.6-13.5s2.7-10.5,4.3-16.5,3.6-13.7,4.6-17l2.4-9c.4-1.7,1.5-5.6,2.4-8.7,2.3-7.8,1.1-9.4-5.1-6.4a143.3,143.3,0,0,1-13.3,5.6l-7.5,3c-2.8,1.2-15.9,4.6-22.9,6-3.3.7-12.7,1.3-21,1.3-16.6.2-20.7-.7-31.9-6.6-7-3.7-16.2-13.3-20-20.8-6.5-12.9-8.8-30.4-6.8-50.8,1.4-13.4,2.2-17,6.7-31.4,6-18.6,13.6-31.3,27.1-45,26.3-26.7,59.4-36.8,102.3-31.2,15.7,2.1,22.1,3.3,52.9,10.7,2.9.7,5.6,1.9,5.9,2.7s-1.8,15.5-4,24.4c-.5,2.2-1.6,7.6-2.3,12s-2.8,14.9-4.5,23.2-4.4,22-6.1,30.5-3.7,18.9-4.5,23-2.2,10.6-2.9,14.5-1.6,8.3-2,10-1.2,6.4-2,10.5c-4.6,23.3-5.7,28.9-6.5,32.5s-1.9,9.2-3,15.5-3.2,16.7-4.5,23c-5.2,25.6-5,24.1-3,25.6s97.3,2.1,99.7.2,2.7-6.5,4.7-16.8c4.6-23.4,8.1-40.1,9.1-44,.5-1.9,1.8-7.3,2.9-12,3.4-14.8,8.1-34.4,9.1-38,7.4-26.2,9.4-32.5,14.2-44.5,14-35,32.4-64.6,50.4-81.5,8.9-8.3,11.9-10.5,20.1-14.6s8-3.9,17.2-3.9c10.9.1,14.3,1.3,18.5,6.8s5.2,12,3.7,25.5c-.7,6.4-1.6,13.3-2.1,15.2s-1.5,7.1-2.4,11.5c-7.2,38.2-15.5,80.5-18.2,92.5a60.7,60.7,0,0,0-1.4,8.4,73.4,73.4,0,0,1-1.5,8.5c-2.2,10.3-4.3,20.3-7.5,37.1s-5.4,27.7-7.5,37.9-1.9,11.7-.1,12.4,29.5.5,63.8.4l62.3-.2,74.9-75L812.7,131c63.9-64,74-74.5,73.1-76s-9.6-6-20-11.3l-80.4-41C779.2-.5,778.5-.6,776.4,1.1Z"/><path class="cls-1" d="M1047.4,1.4c0,1.1,2.2,8.7,3,10.9s1.9,5.1,3.1,9,2.8,8.4,3.5,10.2a15.3,15.3,0,0,1,1.4,5,5.5,5.5,0,0,0,.8,2.8c.5.6,1.9,4.4,3.1,8.5s2.7,8.4,3.1,9.5,5.4,15.9,11,32.9,10.8,32.2,11.6,33.8,1.6,2.8,10.3,2.8,10.6-.5,11.7-5.9a9.6,9.6,0,0,1,1.5-3.7,3.1,3.1,0,0,0,.9-2.4,16.2,16.2,0,0,1,1.4-5.2c.8-1.8,4.4-12.8,8.1-24.3s7.1-21.9,7.5-23,2.3-6.5,4-12,4.5-13.6,6-18,3.1-9.1,3.5-10.5a26.4,26.4,0,0,1,1.5-4.5c2.4-6,4.9-15,4.1-15.8S1142,.9,1135,1l-12.7.3-1.8,5.5c-2.5,7.7-7.4,23.5-11.1,36-1.7,5.8-3.8,12.3-4.5,14.5s-2.1,6.7-3,10c-3,10.6-3,10.6-5.4,5.5a26.8,26.8,0,0,1-2.1-6,25.3,25.3,0,0,0-1.4-5.5c-.8-2.2-2.9-8.7-4.6-14.5l-4.5-14.5-4.5-14.5c-1.7-5.8-3.8-12-4.6-13.8L1073.4.8h-13C1053.3.8,1047.4,1.1,1047.4,1.4Z"/><path class="cls-1" d="M1255.7,1.4c-1,.5-1.3,13.6-1.3,61.2,0,36.5.4,61.3,1,62.2s3.3,1.6,10.3,1.8c12.7.5,12.7.5,12.7-14.6,0-9.5.3-12.2,1.8-14.2,2.5-3.7,6.4-8,7.3-8s5.5,8.1,11.4,18c12.3,20.6,10.3,19.3,27.5,18.8,8.8-.3,10.5-.6,10.8-1.9s-2.6-6.1-6.1-11.5l-12.2-18.9c-15.8-24.3-14.8-22.5-13.3-24.3,3.6-4.4,15.8-18.2,20-22.7,12-12.9,11.9-13.5-3.7-13.5-6.4,0-12.5.4-13.5,1s-7.3,7.8-14.1,16.2c-11.4,14.1-14.9,17.9-15.7,16.7s-.4-15.3-.5-33.4l-.2-33-10.5-.2A93.8,93.8,0,0,0,1255.7,1.4Z"/><path class="cls-1" d="M1179.9,33.7a33.1,33.1,0,0,0-16.6,7.2c-5.6,4.4-5.2,6.3,3.1,13.7l6.9,6.2,4.6-3.2c4.4-3.1,5.1-3.3,13.5-3.3s9.1.2,11.9,2.9,4.7,8,3.6,11.5-1.3,2.1-13,2.1c-6.8,0-14.7.5-17.7,1.2-5.7,1.2-14.3,6.4-16.9,10a31.1,31.1,0,0,0-4.9,16.1c0,11.6,5.9,21.5,15.5,26.1,4.9,2.3,6.7,2.6,16.3,2.6s11.2-.3,15.1-2.5,6.9-3.1,7.3-.3.8,2.3,9.8,2.6a72.9,72.9,0,0,0,11.8-.3l2.4-.6-.5-33.7c-.4-36.2-.6-38.1-5.9-45.9s-14.3-12.2-30.3-12.8A122.9,122.9,0,0,0,1179.9,33.7Zm26.4,55c1,.6,1.2,2.2.9,5.5-1.1,9.2-6.5,13.1-17.5,12.4-7.6-.5-11.3-3.2-11.3-8.4s1-6.5,5.4-8.5S1203.6,87,1206.3,88.7Z"/><path class="cls-1" d="M1405.1,33.5a27.2,27.2,0,0,0-8.8,3.4,31.3,31.3,0,0,1-5.8,2.9c-.5,0-1.4-1.4-2-3l-1-3h-9.3c-5.1,0-10,.5-10.8,1s-1.5,7.1-1.8,44.9-.1,44.1,1.3,45.4,18.8,2.3,21,.1,1.5-5.7,1.5-29.7c0-25.6.2-28.6,2-32.4,4.5-10.1,18.3-11.3,24.8-2.2,1.5,2.1,1.8,6.4,2.2,33.1.3,16.8.9,31,1.3,31.5s16.9,1.7,20.2.9l2.5-.6V96.2c0-27.7.1-29.7,2-33.5,5.3-10.3,20.2-10.7,25.7-.7,1.6,2.9,1.8,6.7,2.1,33.5l.3,30.3,2.4.6c4.7,1.2,19.5,0,20.5-1.6s1-14.1,1-30.8c0-37.4-1.3-43.5-11.1-52.9-6-5.6-12-7.6-23.4-7.6s-14.6,1.2-22.2,7c-3.7,2.9-3,3-10.6-2.1S1416.3,32.4,1405.1,33.5Z"/><path class="cls-1" d="M1548.4,33.7c-6.2,1-14,5.2-18.6,10.1-8.8,9.3-12.4,19.9-12.4,36.9,0,23.6,7.9,37.5,24.8,44,7.1,2.8,27.8,3,34.4.5s15.5-8.5,16.9-11.2.8-2.7-4.2-7.8a66.8,66.8,0,0,0-6.9-6.4c-1.1-.6-3.4.3-7.5,2.8-5.6,3.4-6.5,3.7-14.1,3.7s-8.6-.3-11.6-2.4-8.1-9.6-7.7-13.1l.4-2.5,28-.5,28-.5V78.8c0-27.1-13.6-44-36.6-45.4A84.4,84.4,0,0,0,1548.4,33.7Zm14.2,20.4c4.9,1.7,7.5,4.2,9.8,9.4,3.2,7.3,3,7.4-14.9,7.1l-15.6-.3V66.7c.1-4.8,3.7-9.7,8.8-12S1557.7,52.4,1562.6,54.1Z"/><path class="cls-1" d="M1658.4,33.7c-5,1.2-9.2,3-11.3,4.8s-3.3,1-3.9-2.2-1.2-2-10.7-2.3c-6.7-.2-10.8.1-11.7.9s-1.4,8.7-1.4,45c0,38.4.2,43.9,1.6,45.3s20.3,2.3,22.2.4,1.2-9,1.2-30.2c0-26.9.1-29.3,2-33,4.7-9.6,17.8-10.3,24.2-1.4,2.3,3.2,2.3,3.8,2.8,34.3l.5,31h23l.3-32.9c.2-27.6,0-33.9-1.3-38.4-2.8-9.6-7.6-15.3-16.3-19.5C1675.6,33.6,1663.4,32.6,1658.4,33.7Z"/><path class="cls-1" d="M1746.4,33.4c-6.6.9-16.1,5.8-20.5,10.5s-7.5,13.4-7.5,18.9,3.5,14.4,7,17.9c5,4.9,10.7,6.9,25.6,8.6,11.4,1.3,14.3,2,16.1,3.7,5.1,4.8,1.1,11.5-7.6,12.9s-25-1.9-27.6-6.1c-1.3-2.1-3.4-.8-10.4,6.1s-8.2,8.7.1,14.1,14.5,6.8,30.4,6.8c18,0,25.7-2.4,33.6-10.7,10.1-10.6,10.2-27.9.1-38-4.6-4.5-13.2-8.3-18.8-8.3s-18.7-2.1-21-3.2c-6.8-3.6-3.6-11.8,5.4-13.4,4.4-.9,16.7,1.1,19.8,3.1a9,9,0,0,0,4,1.5c2.7,0,14.7-12.4,14-14.4s-6.7-5.6-13.2-7.8C1770.9,33.9,1753.1,32.6,1746.4,33.4Z"/><path class="cls-1" d="M1840.8,33.7c-6.1,1-15.2,5.9-19.5,10.4-7.2,7.4-13,23.7-12.9,36.4s5.6,28.9,10.8,34.7c3.1,3.3,9.8,7.4,15.7,9.5,7.6,2.7,26.1,3,32.7.5,8.4-3.1,18.8-10.1,18.8-12.7s-13.2-13.2-14.9-12.9a7.4,7.4,0,0,0-2.8,1.8c-4.2,4.1-13.7,6.4-20.8,4.9s-11.1-4.6-13.6-10.1c-3.7-8.2-5-7.8,26.6-8.4l28-.5.3-8.5c.9-26.1-13.3-43.9-36.3-45.3A65.5,65.5,0,0,0,1840.8,33.7Zm15.8,21c5.3,2,11.2,13.5,8,15.5-.4.2-7.5.6-15.7.7-17.3.2-18.1-.1-15.1-6.9C1838.1,54.5,1846.9,50.9,1856.6,54.7Z"/><path class="cls-1" d="M1945.1,35.7a23.8,23.8,0,0,0-5,3c-1.9,1.9-4.7,1.2-5.7-1.4s-1.1-2.6-11.2-2.3l-10.3.3v90h22l.5-30.5c.5-32.7.5-32.8,6.1-37.4,2.6-2.2,4-2.6,9.2-2.6s7.9.8,12.2,5.9c1.9,2.2,2,4.3,2.5,33.5l.5,31.1,11.3.3,11.2.3V90.3c0-19.5-.4-35.5-.8-35.5s-1.4-1.9-2.1-4.1c-1.7-5.6-9.3-12.9-15.8-15.2S1950.3,33.3,1945.1,35.7Z"/></g></g></svg>