<svg xmlns="http://www.w3.org/2000/svg" viewBox="0 0 16.18 20.64"><defs><style>.cls-1{fill:#002068;}.cls-2{fill:#0363ed;}</style></defs><g id="Laag_2" data-name="Laag 2"><g id="Laag_1-2" data-name="Laag 1"><path class="cls-1" d="M14.82,0H8.63A1.36,1.36,0,0,0,7.27,1.36v.29a1.36,1.36,0,0,0,1,1.3V8.5H3.08a1.35,1.35,0,0,0-1.27-.86H1.37A1.37,1.37,0,0,0,0,9v6.17a1.37,1.37,0,0,0,1.37,1.37h.44a1.35,1.35,0,0,0,1.32-1H8.65c.15-.32.34-.66.54-1h-6v-5h6V3h5v8a3.59,3.59,0,0,1-.82,2.27c.19.27.39.56.58.85A4.55,4.55,0,0,0,15.24,11v-8a1.35,1.35,0,0,0,.94-1.29V1.36A1.36,1.36,0,0,0,14.82,0ZM2.18,15.18a.37.37,0,0,1-.37.37H1.37A.37.37,0,0,1,1,15.18V9a.36.36,0,0,1,.37-.37h.44A.36.36,0,0,1,2.18,9Zm13-13.53a.37.37,0,0,1-.36.37H8.63a.37.37,0,0,1-.36-.37V1.36A.36.36,0,0,1,8.63,1h6.19a.36.36,0,0,1,.36.36Z"/><path class="cls-2" d="M14,14.09c-.19-.29-.39-.58-.58-.85-.44-.62-.86-1.17-1.16-1.53a.67.67,0,0,0-.53-.25.71.71,0,0,0-.54.25,25.9,25.9,0,0,0-2,2.81c-.2.34-.39.68-.54,1a4.11,4.11,0,0,0-.45,1.59,3.53,3.53,0,1,0,7.05,0A6.86,6.86,0,0,0,14,14.09Zm-2.27,5.55A2.53,2.53,0,0,1,9.2,17.11a3.83,3.83,0,0,1,.57-1.59c.17-.32.37-.65.6-1a23,23,0,0,1,1.36-1.88c.31.4.64.83.94,1.27.19.28.38.56.55.83a5.65,5.65,0,0,1,1,2.37A2.52,2.52,0,0,1,11.73,19.64Z"/><path class="cls-1" d="M6.54,11.21H4.41a.5.5,0,0,1-.5-.5.5.5,0,0,1,.5-.5H6.54a.5.5,0,0,1,.5.5A.5.5,0,0,1,6.54,11.21Z"/><path class="cls-1" d="M9.07,11.21H8.19a.5.5,0,0,1-.5-.5.5.5,0,0,1,.5-.5h.88a.5.5,0,0,1,.5.5A.5.5,0,0,1,9.07,11.21Z"/></g></g></svg>