<svg xmlns="http://www.w3.org/2000/svg" viewBox="0 0 15.44 17"><defs><style>.cls-1{fill:#002068;}.cls-2{fill:#0363ed;}</style></defs><g id="Laag_2" data-name="Laag 2"><g id="Laag_1-2" data-name="Laag 1"><path class="cls-1" d="M15.44,16.5a.5.5,0,0,1-.5.5h-.42a1,1,0,0,1-.95-.94V14.51a1.36,1.36,0,0,0-1.36-1.36h-.32a2.51,2.51,0,0,0,0-.27l.07-.73h.21a2.36,2.36,0,0,1,2.36,2.36v1.55l.37-.06A.5.5,0,0,1,15.44,16.5Z"/><path class="cls-1" d="M3.62,13.15H3.23a1.36,1.36,0,0,0-1.36,1.36v1.55A.94.94,0,0,1,.92,17H.5a.5.5,0,0,1,0-1H.92L.87,14.51a2.36,2.36,0,0,1,2.36-2.36h.25l.1.81A1.29,1.29,0,0,0,3.62,13.15Z"/><path class="cls-1" d="M3.1,9.21a2.26,2.26,0,0,0-1.43.31A1.65,1.65,0,0,0,1,10.69a.51.51,0,0,1-.5.41H.42A.51.51,0,0,1,0,10.52,2.63,2.63,0,0,1,1.12,8.68,3.29,3.29,0,0,1,3,8.2a.76.76,0,0,0,0,.15Z"/><path class="cls-1" d="M15.42,10.52a.5.5,0,0,1-.4.58h-.09a.49.49,0,0,1-.49-.41,1.67,1.67,0,0,0-.68-1.17,2.34,2.34,0,0,0-1.47-.31l.09-.91a.28.28,0,0,0,0-.09,3.17,3.17,0,0,1,1.92.47A2.63,2.63,0,0,1,15.42,10.52Z"/><path class="cls-2" d="M11.94,7a1.78,1.78,0,0,0-.42-.35,2.42,2.42,0,0,0-.39-.21h0a1.31,1.31,0,0,0-.28-.09,2.46,2.46,0,0,0-.67-.09h-5a2.63,2.63,0,0,0-.49,0,2.42,2.42,0,0,0-.46.13L4,6.61a2.12,2.12,0,0,0-.54.44A1.62,1.62,0,0,0,3,8.2a.76.76,0,0,0,0,.15l.11.86.38,2.94.1.81a1.29,1.29,0,0,0,0,.19A4,4,0,0,0,7.75,16a4,4,0,0,0,4.14-2.85,2.51,2.51,0,0,0,0-.27l.07-.73.29-2.93h0l.09-.91a.28.28,0,0,0,0-.09A1.64,1.64,0,0,0,11.94,7Zm-7.37,5.8L4,8.22a.64.64,0,0,1,.18-.51,1.4,1.4,0,0,1,1-.42h2L7.25,15A2.85,2.85,0,0,1,4.57,12.83ZM11,12.39l0,.39v0h0A2.86,2.86,0,0,1,8.25,15L8.18,7.29h2a1.43,1.43,0,0,1,1,.41.66.66,0,0,1,.19.51Z"/><path class="cls-1" d="M14.65,1.62h-.43a.94.94,0,0,0-.94.94V4.1a1.37,1.37,0,0,1-1.36,1.37h-.37A2.33,2.33,0,0,0,10,3.91,1.61,1.61,0,0,0,8.91,2.52a5.13,5.13,0,0,1,.31-1,.77.77,0,0,1,.43-.44,1.9,1.9,0,0,1,1.24.17.5.5,0,0,0,.45-.9,2.86,2.86,0,0,0-2-.21,1.77,1.77,0,0,0-1,1,5.19,5.19,0,0,0-.39,1.26H7.59a5.72,5.72,0,0,0-.4-1.33,1.77,1.77,0,0,0-1-1,2.85,2.85,0,0,0-2,.21A.49.49,0,0,0,3.94,1a.5.5,0,0,0,.67.23,1.8,1.8,0,0,1,1.23-.16.7.7,0,0,1,.43.43,4.71,4.71,0,0,1,.32,1h0a1.42,1.42,0,0,0-.73.42A1.55,1.55,0,0,0,5.39,4,2.25,2.25,0,0,0,3.94,5.47H3.58A1.37,1.37,0,0,1,2.22,4.1V2.56a1,1,0,0,0-1-.94H.85a.5.5,0,0,0-.5.5.51.51,0,0,0,.5.5l.37-.06V4.1A2.37,2.37,0,0,0,3.58,6.47H3.9A.34.34,0,0,0,4,6.61l.3-.14a2.42,2.42,0,0,1,.46-.13,2.63,2.63,0,0,1,.49,0H4.88V5.91c0-.5.47-1,1.15-1.1a2.24,2.24,0,0,1,.46,0H9a2.22,2.22,0,0,1,.37,0h0a1.32,1.32,0,0,1,1.23,1.12v.34a.22.22,0,0,1-.14,0h-.32a2.46,2.46,0,0,1,.67.09,1.31,1.31,0,0,1,.28.09h0a2.42,2.42,0,0,1,.39.21.65.65,0,0,0,.07-.21h.33A2.37,2.37,0,0,0,14.28,4.1l-.06-1.48h.43a.51.51,0,0,0,.5-.5A.5.5,0,0,0,14.65,1.62ZM6.45,3.76A.64.64,0,0,1,7,3.42H8.37a.61.61,0,0,1,.54.34Z"/></g></g></svg>