<svg xmlns="http://www.w3.org/2000/svg" viewBox="0 0 15.61 19.68"><defs><style>.cls-1{fill:#002068;}.cls-2{fill:#0363ed;}.cls-3{fill:none;}</style></defs><g id="Laag_2" data-name="Laag 2"><g id="Laag_1-2" data-name="Laag 1"><path class="cls-1" d="M14.84,2.27h-1v1h.77V7.7H7.19a.77.77,0,0,0-.77.77v1H5a.67.67,0,0,0-.67.67v7.5a2,2,0,0,0,2,2h.86a2,2,0,0,0,2-2v-7.5a.67.67,0,0,0-.67-.67H7.42V8.7h7.42a.77.77,0,0,0,.77-.77V3A.77.77,0,0,0,14.84,2.27ZM8.21,10.52v7.17a1,1,0,0,1-1,1H6.35a1,1,0,0,1-1-1V10.52Z"/><path class="cls-2" d="M12.77,0H1.07A1.07,1.07,0,0,0,0,1.07v3.4A1.07,1.07,0,0,0,1.07,5.54h11.7a1.07,1.07,0,0,0,1.07-1.07V1.07A1.07,1.07,0,0,0,12.77,0Zm.07,4.47a.07.07,0,0,1-.07.07H1.07A.07.07,0,0,1,1,4.47V1.07A.07.07,0,0,1,1.07,1h11.7a.07.07,0,0,1,.07.07Z"/><path class="cls-1" d="M6.22,17a.5.5,0,0,1-.5-.5V11.4a.5.5,0,0,1,.5-.5.51.51,0,0,1,.5.5v5.11A.51.51,0,0,1,6.22,17Z"/><line class="cls-3" x1="4.17" y1="3.59" x2="9.4" y2="3.59"/><path class="cls-2" d="M9.9,3.59a.5.5,0,0,1-.5.5H4.17a.5.5,0,0,1,0-1H9.4A.5.5,0,0,1,9.9,3.59Z"/></g></g></svg>