<svg xmlns="http://www.w3.org/2000/svg" viewBox="0 0 13.65 18.89"><defs><style>.cls-1{fill:#002068;}.cls-2{fill:#0363ed;}</style></defs><g id="Laag_2" data-name="Laag 2"><g id="Laag_1-2" data-name="Laag 1"><path class="cls-1" d="M11.72,15.92a.51.51,0,0,1,0,.13v-.27A.59.59,0,0,1,11.72,15.92Z"/><path class="cls-1" d="M13.15,7.45H.5A.5.5,0,0,0,0,8v2.71a.5.5,0,0,0,.5.5H1.63v7.23a.51.51,0,0,0,.5.5h9.11a.5.5,0,0,0,.5-.5V16.05a.51.51,0,0,0,0-.13.59.59,0,0,0,0-.14V11.16h1.41a.5.5,0,0,0,.5-.5V8A.5.5,0,0,0,13.15,7.45ZM6.32,17.89H2.63V16.55H6.32Zm0-5.21H2.63V11.16H6.32Zm2,1v1.6H5.06v-1.6Zm-4.27,0v1.6H2.63v-1.6Zm6.68,4.21H7.32V16.55h3.42Zm0-2.61H9.33v-1.6h1.41Zm0-2.6H7.32V11.16h3.42Zm1.91-2.52H1V8.45H12.65Z"/><path class="cls-2" d="M3.32,3.89a.67.67,0,0,0-.11.73l.06.14.41.88a.5.5,0,0,1-.25.66.54.54,0,0,1-.21,0,.49.49,0,0,1-.45-.29L2.3,5a1.71,1.71,0,0,1,.84-2.25.51.51,0,0,0,.24-.19.66.66,0,0,0,.12-.7L3.42,1.7,3,.69A.5.5,0,1,1,3.94.32l.48,1.19a1.7,1.7,0,0,1-.86,2.18A.6.6,0,0,0,3.32,3.89Z"/><path class="cls-2" d="M6.8,3.87a.68.68,0,0,0-.11.75l.06.14.4.88a.49.49,0,0,1-.24.66.54.54,0,0,1-.21,0,.52.52,0,0,1-.46-.29L5.78,5a1.7,1.7,0,0,1,.84-2.25.53.53,0,0,0,.24-.2A.66.66,0,0,0,7,1.89L6.9,1.72l-.41-1A.5.5,0,0,1,6.77,0a.5.5,0,0,1,.65.28L7.9,1.51A1.69,1.69,0,0,1,7,3.69.6.6,0,0,0,6.8,3.87Z"/><path class="cls-2" d="M10.27,3.88a.71.71,0,0,0-.11.74l.07.15.4.87a.5.5,0,0,1-.25.66.49.49,0,0,1-.2,0,.51.51,0,0,1-.46-.29L9.25,5a1.71,1.71,0,0,1,.84-2.25.51.51,0,0,0,.24-.19.66.66,0,0,0,.12-.7l-.08-.19-.4-1A.5.5,0,0,1,10.25,0a.5.5,0,0,1,.65.28l.48,1.19a1.71,1.71,0,0,1-.87,2.18A.57.57,0,0,0,10.27,3.88Z"/></g></g></svg>