<?xml version="1.0" encoding="utf-8"?>
<!-- Generator: Adobe Illustrator 19.0.0, SVG Export Plug-In . SVG Version: 6.00 Build 0)  -->
<svg version="1.1" id="Layer_1" xmlns="http://www.w3.org/2000/svg" xmlns:xlink="http://www.w3.org/1999/xlink" x="0px" y="0px"
	 viewBox="-951 93.5 16.3 19.5" style="enable-background:new -951 93.5 16.3 19.5;" xml:space="preserve">
<style type="text/css">
	.st0{fill:#10BBE8;}
</style>
<g id="Laag_2">
	<g id="Laag_1-2">
		<path class="st0" d="M-935.2,93.5h-3.1c-0.3,0-0.5,0.2-0.5,0.5v0.3h-0.9v-0.1c0-0.1,0-0.1,0-0.2c0-0.3-0.2-0.5-0.5-0.5h-3.3
			c-2.9-0.1-5.6,1.1-7.4,3.4c-0.2,0.3-0.2,0.7,0,1c0.2,0.3,0.6,0.5,1,0.4c1.5-0.3,3-0.4,4.5-0.4l1.4,0v2c0,0.3,0.2,0.5,0.5,0.5h0.3
			v4.5h1v-4.5h0.7v4.5h1v-4.5h0.3c0.3,0,0.5-0.2,0.5-0.5v-1.8h0.9v0.4c0,0.3,0.2,0.5,0.5,0.5h3.1c0.3,0,0.5-0.2,0.5-0.5V94
			C-934.7,93.7-934.9,93.5-935.2,93.5z M-935.7,98h-2.1v-0.3c0-0.3-0.2-0.5-0.5-0.5h-1.9c-0.3,0-0.5,0.2-0.5,0.5v1.8h-2.3v-2
			c0-0.3-0.2-0.5-0.5-0.5c-0.7,0-1.3,0-2,0c-1.5,0-3,0.1-4.4,0.3c1.6-1.9,4-2.9,6.4-2.8h2.8v0.3c0,0.3,0.2,0.5,0.5,0.5h1.9
			c0.3,0,0.5-0.2,0.5-0.5v-0.3h2.1V98z"/>
		<path class="st0" d="M-940.5,104.9h-2.7c-0.3,0-0.6,0.3-0.6,0.7v5.4c0,1.1,0.9,1.9,1.9,1.9c1.1,0,1.9-0.9,1.9-1.9c0,0,0,0,0,0
			v-5.4C-939.9,105.3-940.1,105-940.5,104.9z M-940.9,111.1c0,0.5-0.4,0.9-0.9,0.9s-0.9-0.4-0.9-0.9v-5.1h1.8V111.1z"/>
	</g>
</g>
</svg>
