<?xml version="1.0" encoding="utf-8"?>
<!-- Generator: Adobe Illustrator 19.0.0, SVG Export Plug-In . SVG Version: 6.00 Build 0)  -->
<svg version="1.1" id="Layer_1" xmlns="http://www.w3.org/2000/svg" xmlns:xlink="http://www.w3.org/1999/xlink" x="0px" y="0px"
	 viewBox="-952 93.7 14.6 19.3" style="enable-background:new -952 93.7 14.6 19.3;" xml:space="preserve">
<style type="text/css">
	.st0{fill:#10BBE8;}
</style>
<g id="Laag_2">
	<g id="Laag_1-2">
		<path class="st0" d="M-937.9,93.7h-9.6c-0.3,0-0.5,0.2-0.5,0.5v2.3c0.3-0.1,0.7-0.1,1-0.1v-1.7h8.6v12.7h-8.6v-0.6
			c-0.3,0-0.7-0.1-1-0.1v5.8c0,0.3,0.2,0.5,0.5,0.5h9.6c0.3,0,0.5-0.2,0.5-0.5V94.2C-937.4,93.9-937.7,93.7-937.9,93.7z M-938.4,112
			h-8.6v-3.6h8.6V112z"/>
		<path class="st0" d="M-941.6,109.3c-0.2-0.3-0.5-0.6-0.9-0.6c-0.4-0.1-0.7,0-1,0.2c-0.7,0.4-0.9,1.3-0.4,1.9
			c0.2,0.4,0.6,0.6,1,0.6c0.1,0,0.2,0,0.3,0c0.3,0,0.6-0.1,0.8-0.3c0.3-0.2,0.5-0.5,0.6-0.9C-941.3,110-941.4,109.6-941.6,109.3z
			 M-942.5,110.5c-0.1,0.1-0.2,0.1-0.3,0.1c-0.2,0-0.4-0.3-0.3-0.5c0-0.2,0.2-0.4,0.4-0.4h0.1c0.1,0,0.2,0.1,0.3,0.2
			c0.1,0.1,0.1,0.2,0.1,0.3C-942.4,110.3-942.4,110.4-942.5,110.5z"/>
		<path class="st0" d="M-942,102.5c-0.1-0.1-0.3-0.2-0.5-0.2c-0.5,0-0.9-0.4-0.9-0.8s0.4-0.9,0.8-0.9c0,0,0,0,0,0
			c0.2,0,0.3-0.1,0.4-0.2c0.1-0.1,0.1-0.3,0.1-0.5c-0.3-0.8-0.7-1.4-1.3-2c-0.1-0.1-0.3-0.2-0.4-0.1c-0.2,0-0.3,0.1-0.4,0.3
			c-0.2,0.4-0.8,0.5-1.2,0.3c-0.3-0.2-0.4-0.4-0.4-0.7c0-0.1,0-0.2,0.1-0.3c0.1-0.3,0-0.6-0.2-0.7c0,0-0.1,0-0.1,0
			c-0.4-0.1-0.8-0.1-1.1-0.1c-0.3,0-0.7,0-1,0.1h-0.1c-0.1,0-0.3,0.1-0.3,0.3c-0.1,0.1-0.1,0.3,0,0.4c0,0.1,0.1,0.2,0.1,0.3
			c0,0.5-0.4,0.8-0.9,0.8l0,0c-0.3,0-0.5-0.1-0.7-0.3c-0.1-0.1-0.2-0.2-0.4-0.2c-0.1,0-0.3,0-0.4,0.2c-0.5,0.5-0.9,1.2-1.2,1.9
			c-0.1,0.1-0.1,0.3,0,0.4c0.1,0.1,0.2,0.2,0.3,0.2c0.4,0.1,0.7,0.4,0.7,0.8c0,0.4-0.3,0.8-0.8,0.8c-0.1,0-0.3,0.1-0.4,0.2
			c-0.1,0.1-0.1,0.3,0,0.4c0.2,0.8,0.6,1.5,1.1,2.1c0.1,0.1,0.3,0.2,0.5,0.2c0.2,0,0.3-0.1,0.4-0.3c0.2-0.4,0.7-0.6,1.1-0.4
			c0.3,0.1,0.5,0.4,0.5,0.7c0,0.2-0.1,0.4-0.2,0.5c-0.1,0.1-0.1,0.3-0.1,0.5c0,0.2,0.2,0.3,0.3,0.3l0.3,0.1c0.3,0.1,0.7,0.1,1,0.1
			h0.1c0.4,0,0.8,0,1.2-0.1c0.2,0,0.3-0.2,0.4-0.3c0.1-0.2,0-0.3-0.1-0.5c-0.1-0.2-0.2-0.3-0.2-0.6c0-0.5,0.4-0.8,0.8-0.8
			c0,0,0,0,0,0c0.4,0,0.7,0.2,0.8,0.6c0.1,0.2,0.2,0.3,0.4,0.3c0.2,0,0.3,0,0.5-0.2c0.6-0.6,1.1-1.4,1.3-2.3
			C-941.8,102.8-941.9,102.6-942,102.5z M-943.5,104c-0.7-0.7-1.9-0.8-2.6,0c-0.4,0.3-0.6,0.8-0.6,1.3c0,0.2,0,0.3,0.1,0.5
			c-0.2,0-0.3,0-0.5,0c-0.1,0-0.3,0-0.4,0c0-0.2,0.1-0.3,0.1-0.5c0-0.5-0.2-1-0.6-1.4c-0.7-0.6-1.7-0.6-2.4,0
			c-0.2-0.2-0.3-0.5-0.4-0.8c0.9-0.4,1.3-1.5,0.9-2.5c-0.2-0.3-0.4-0.6-0.8-0.8c0.1-0.3,0.3-0.5,0.4-0.7c0.3,0.2,0.6,0.3,1,0.3
			c0.4,0,0.9-0.2,1.2-0.5c0.4-0.3,0.6-0.9,0.6-1.4v-0.2c0.1,0,0.2,0,0.4,0c0.1,0,0.3,0,0.4,0c0,0.1,0,0.1,0,0.2c0,1,0.8,1.8,1.9,1.8
			c0,0,0,0,0,0c0.4,0,0.8-0.1,1.2-0.4c0.2,0.2,0.3,0.4,0.5,0.7c-1,0.4-1.4,1.4-1.1,2.4c0.2,0.6,0.7,1,1.3,1.1
			C-943.1,103.5-943.3,103.8-943.5,104z"/>
		<path class="st0" d="M-946.9,99.8h-0.1c-0.4,0-0.7,0.1-1,0.4c-0.8,0.6-1,1.8-0.4,2.6c0.1,0.1,0.2,0.3,0.4,0.4
			c0.3,0.2,0.6,0.4,1,0.4h0.1c1-0.1,1.8-1,1.7-2C-945.3,100.5-946,99.8-946.9,99.8L-946.9,99.8z M-946.9,102.5h-0.1
			c-0.5-0.1-0.8-0.5-0.8-0.9c0-0.4,0.4-0.7,0.8-0.8h0.1c0.5,0.1,0.8,0.5,0.8,0.9C-946.2,102.1-946.5,102.5-946.9,102.5L-946.9,102.5
			z"/>
	</g>
</g>
</svg>
