<?xml version="1.0" encoding="utf-8"?>
<!-- Generator: Adobe Illustrator 19.0.0, SVG Export Plug-In . SVG Version: 6.00 Build 0)  -->
<svg version="1.1" id="Layer_1" xmlns="http://www.w3.org/2000/svg" xmlns:xlink="http://www.w3.org/1999/xlink" x="0px" y="0px"
	 viewBox="-949 93.1 20.2 19" style="enable-background:new -949 93.1 20.2 19;" xml:space="preserve">
<style type="text/css">
	.st0{fill:#10BBE8;}
</style>
<g id="Laag_2">
	<g id="Laag_1-2">
		<path class="st0" d="M-928.9,102.8l-2.1-2.1l-7.5-7.6c-0.2-0.2-0.5-0.2-0.7,0l-7.5,7.5l-2.1,2.1c-0.2,0.2-0.2,0.5,0,0.7
			c0,0,0,0,0,0c0.1,0.1,0.2,0.1,0.3,0.2c0.1,0,0.3-0.1,0.3-0.2l1.2-1.2v9.2c0,0.3,0.2,0.5,0.5,0.5h15.1c0.3,0,0.5-0.2,0.5-0.5v-9.2
			l1.2,1.2c0.2,0.2,0.5,0.2,0.7,0c0,0,0,0,0,0C-928.7,103.3-928.7,103-928.9,102.8C-928.9,102.8-928.9,102.8-928.9,102.8z
			 M-931.8,111.1h-14.1v-9.8l7-7l7,7.1L-931.8,111.1z"/>
		<path class="st0" d="M-933.2,103.4c-3.1-3.1-8.2-3.1-11.3,0c-0.2,0.2-0.2,0.5,0,0.7c0,0,0,0,0,0l0.7,0.7l1.1,1.2l0,0l3.5,3.4
			c0.1,0.1,0.2,0.1,0.3,0.2c0.1,0,0.3-0.1,0.4-0.2l3.4-3.4l0,0l1.1-1.2l0.7-0.7C-933.1,104-933,103.7-933.2,103.4
			C-933.2,103.4-933.2,103.4-933.2,103.4z M-938.9,108.4l-2.3-2.3c1.4-1,3.3-1,4.7,0L-938.9,108.4z M-935.8,105.3
			c-1.8-1.4-4.3-1.4-6.1,0l-0.4-0.4c2-1.6,5-1.6,7,0L-935.8,105.3z M-934.7,104.2c-2.4-2-5.9-2-8.4,0l-0.4-0.4
			c2.6-2.3,6.5-2.3,9.2,0L-934.7,104.2z"/>
	</g>
</g>
</svg>
