<?xml version="1.0" encoding="utf-8"?>
<!-- Generator: Adobe Illustrator 19.0.0, SVG Export Plug-In . SVG Version: 6.00 Build 0)  -->
<svg version="1.1" id="Layer_1" xmlns="http://www.w3.org/2000/svg" xmlns:xlink="http://www.w3.org/1999/xlink" x="0px" y="0px"
	 viewBox="-951 96.2 16.7 13.8" style="enable-background:new -951 96.2 16.7 13.8;" xml:space="preserve">
<style type="text/css">
	.st0{fill:#10BBE8;}
</style>
<g id="Laag_2">
	<g id="Laag_1-2">
		<path class="st0" d="M-947.8,107.2c-0.3,0-0.5-0.2-0.5-0.5v-5.3c0-0.3,0.2-0.5,0.5-0.5s0.5,0.2,0.5,0.5v5.3
			C-947.2,106.9-947.4,107.2-947.8,107.2C-947.7,107.2-947.7,107.2-947.8,107.2z"/>
		<path class="st0" d="M-945.7,107.2c-0.3,0-0.5-0.2-0.5-0.5v-5.3c0-0.3,0.2-0.5,0.5-0.5s0.5,0.2,0.5,0.5v5.3
			C-945.2,106.9-945.4,107.2-945.7,107.2C-945.7,107.2-945.7,107.2-945.7,107.2z"/>
		<path class="st0" d="M-943.7,107.1c-0.3,0-0.5-0.2-0.5-0.5v-5.3c0-0.3,0.2-0.5,0.5-0.5c0.3,0,0.5,0.2,0.5,0.5v5.3
			C-943.2,106.9-943.4,107.1-943.7,107.1z"/>
		<path class="st0" d="M-941.7,107.1c-0.3,0-0.5-0.2-0.5-0.5v-5.3c0-0.3,0.2-0.5,0.5-0.5c0.3,0,0.5,0.2,0.5,0.5v5.3
			C-941.2,106.9-941.4,107.1-941.7,107.1z"/>
		<path class="st0" d="M-939.7,107.1c-0.3,0-0.5-0.2-0.5-0.5v-5.3c0-0.3,0.2-0.5,0.5-0.5c0.3,0,0.5,0.2,0.5,0.5v5.3
			C-939.2,106.9-939.4,107.1-939.7,107.1z"/>
		<path class="st0" d="M-937.7,107.1c-0.3,0-0.5-0.2-0.5-0.5v-5.3c0-0.3,0.2-0.5,0.5-0.5c0.3,0,0.5,0.2,0.5,0.5v5.3
			C-937.2,106.9-937.4,107.1-937.7,107.1z"/>
		<path class="st0" d="M-934.3,100.6v6.8c0,1.4-1.2,2.6-2.6,2.6h-11.5c-1.4,0-2.6-1.2-2.6-2.6c0,0,0,0,0,0v-6.8
			c0-1.2,0.9-2.3,2.1-2.6v-1.3c0-0.3,0.2-0.5,0.5-0.5h10c0.3,0,0.5,0.2,0.5,0.5v0.5c-0.1,0-0.1,0-0.2,0c-0.3,0-0.6,0.1-0.8,0.2v-0.2
			h-9V98h8.3c-0.2,0.3-0.3,0.6-0.3,1l0,0h-8.5c-0.9,0-1.6,0.7-1.6,1.6v6.8c0,0.9,0.7,1.6,1.6,1.6h11.5c0.9,0,1.6-0.7,1.6-1.6v-6.8
			c0-0.7-0.5-1.3-1.1-1.5c0,0,0-0.1,0-0.1c0-0.4-0.1-0.7-0.3-1C-935.3,98-934.3,99.2-934.3,100.6z"/>
		<path class="st0" d="M-936.7,98c-0.3-0.4-0.8-0.7-1.3-0.8c-0.1,0-0.1,0-0.2,0c-0.3,0-0.6,0.1-0.8,0.2c-0.3,0.1-0.5,0.3-0.7,0.6
			c-0.2,0.3-0.3,0.6-0.3,1l0,0c0,1,0.7,1.8,1.7,1.8s1.8-0.7,1.8-1.7c0,0,0-0.1,0-0.1C-936.4,98.6-936.5,98.3-936.7,98z M-938.2,99.7
			c-0.4,0-0.7-0.3-0.8-0.7l0,0c0-0.4,0.3-0.8,0.7-0.8c0,0,0,0,0,0c0.1,0,0.1,0,0.2,0c0.3,0.1,0.6,0.4,0.6,0.7l0,0
			C-937.4,99.3-937.8,99.7-938.2,99.7z"/>
	</g>
</g>
</svg>
