<?xml version="1.0" encoding="utf-8"?>
<!-- Generator: Adobe Illustrator 19.0.0, SVG Export Plug-In . SVG Version: 6.00 Build 0)  -->
<svg version="1.1" id="Layer_1" xmlns="http://www.w3.org/2000/svg" xmlns:xlink="http://www.w3.org/1999/xlink" x="0px" y="0px"
	 viewBox="-954 94.1 10.4 16.9" style="enable-background:new -954 94.1 10.4 16.9;" xml:space="preserve">
<style type="text/css">
	.st0{fill:#10BBE8;}
</style>
<g id="Laag_2">
	<g id="Laag_1-2">
		<path class="st0" d="M-952.1,98.7L-952.1,98.7z"/>
		<path class="st0" d="M-950.6,96.9c0.2,0.1,0.4,0.2,0.6,0.2h2.4c0.2,0,0.4-0.1,0.5-0.2H-950.6z"/>
		<path class="st0" d="M-943.6,107.5v-2.6l-0.3-0.1c-0.7-0.3-1.4-0.5-2.1-0.6l-0.3-0.1c0-0.2-0.1-0.3-0.1-0.5c1-0.9,1.5-2.2,1.5-3.6
			c0-0.1,0-0.3,0-0.4c0.3-0.2,0.5-0.5,0.5-0.8v-0.5c0.3-0.3,0.4-0.7,0.4-1.1v-1c0-1.1-0.9-2-2-2h-5.6c-1.1,0-2,0.9-2,2v1
			c0,0.5,0.2,0.9,0.5,1.3v0.3c0,0.3,0.2,0.6,0.4,0.8c0,0.2,0,0.4,0,0.5c0,1.3,0.5,2.6,1.4,3.5l0,0c0,0.2-0.1,0.3-0.1,0.5l-0.2,0.1
			c-0.7,0.1-1.4,0.4-2.1,0.6l-0.3,0.1v2.7c0,1.3,0,2.9,0.4,3.4c0.1,0.1,0.3,0.2,0.5,0.2h8.7c0.2,0,0.4-0.1,0.5-0.2
			C-943.5,110.3-943.5,108.7-943.6,107.5z M-952.4,97.2c-0.1,0-0.1,0.1-0.1,0.1l0,0c0-0.1,0-0.1,0-0.2v-1c0-0.6,0.4-1,1-1h5.5
			c0.6,0,1,0.4,1,1v1c0,0,0,0.1,0,0.1h-0.1c-0.4-0.2-0.8-0.3-1.2-0.3h-0.8c-0.1,0.1-0.3,0.2-0.6,0.2h-2.4c-0.2,0-0.4-0.1-0.5-0.2
			h-0.7c-0.1,0-0.3,0-0.4,0c-0.1,0-0.3,0.1-0.4,0.1c-0.1,0-0.2,0-0.2,0L-952.4,97.2z M-952,98.7l-0.1-0.1l0,0h-0.1v-0.4
			c0.2-0.2,0.5-0.3,0.9-0.3h5c0.2,0,0.3,0,0.5,0.1h0.1c0.1,0,0.2,0,0.2,0.1l0.1,0.1l0.1,0.4l-0.1,0.1l0,0l0,0l-0.1,0.1
			c0,0-0.1,0-0.1,0c-0.1,0-0.3,0.1-0.4,0.1h-5.4h-0.3C-951.8,98.7-951.8,98.7-952,98.7L-952,98.7z M-951.8,99.9v-0.1h0.3h5.5v0.1
			c0,1.1-0.4,2.2-1.2,2.9c-0.9,0.8-2.3,0.8-3.3,0C-951.3,102.1-951.7,101-951.8,99.9L-951.8,99.9z M-948.8,106.3
			c0.9,0,1.8-0.5,2.3-1.3v1.9h-4.4v-1.8C-950.5,105.9-949.7,106.3-948.8,106.3L-948.8,106.3z M-950.4,104.3c0.5,0.1,1,0.2,1.5,0.2
			c0.5,0,1-0.1,1.5-0.2c-0.4,0.8-1.3,1.2-2.2,0.8C-949.9,105-950.2,104.7-950.4,104.3L-950.4,104.3z M-944.7,110h-8.2
			c-0.1-0.8-0.2-1.7-0.1-2.5v-2c0.3-0.1,0.7-0.2,1-0.3v2.8h6.4v-2.8c0.3,0.1,0.7,0.2,1,0.3v2C-944.5,108.3-944.5,109.2-944.7,110
			L-944.7,110z"/>
		<path class="st0" d="M-950.6,96.9c0.2,0.1,0.4,0.2,0.6,0.2h2.4c0.2,0,0.4-0.1,0.5-0.2H-950.6z"/>
		<path class="st0" d="M-946.8,96.3L-946.8,96.3c0,0.2-0.1,0.4-0.2,0.6c-0.1,0.1-0.3,0.2-0.5,0.2h-2.4c-0.2,0-0.4-0.1-0.5-0.2
			c-0.2-0.1-0.3-0.4-0.3-0.6c0-0.4,0.4-0.8,0.8-0.8c0,0,0,0,0,0h2.4C-947.2,95.6-946.8,95.9-946.8,96.3z"/>
	</g>
</g>
</svg>
