<?xml version="1.0" encoding="utf-8"?>
<!-- Generator: Adobe Illustrator 19.0.0, SVG Export Plug-In . SVG Version: 6.00 Build 0)  -->
<svg version="1.1" id="Layer_1" xmlns="http://www.w3.org/2000/svg" xmlns:xlink="http://www.w3.org/1999/xlink" x="0px" y="0px"
	 viewBox="-953 92 11.3 21" style="enable-background:new -953 92 11.3 21;" xml:space="preserve">
<style type="text/css">
	.st0{fill:#10BBE8;}
</style>
<g id="Laag_2">
	<g id="Laag_1-2">
		<path class="st0" d="M-941.8,101.6l-4.6-9.1c-0.3-0.5-1-0.7-1.5-0.4c-0.2,0.1-0.3,0.2-0.4,0.4l-4.6,9.1c-0.2,0.3-0.2,0.7,0,1
			c0.2,0.3,0.5,0.5,0.9,0.5h4.1v1.8h1v-1.7h4.1c0.4,0,0.7-0.2,0.9-0.5C-941.7,102.4-941.7,102-941.8,101.6z M-942.8,102.2h-4.1v-2.3
			c0-0.3-0.2-0.5-0.5-0.5c-0.3,0-0.5,0.2-0.5,0.5v2.3h-4.1l0,0l0,0l4.6-9.1h0.1L-942.8,102.2L-942.8,102.2z"/>
		<path class="st0" d="M-946.1,104.9h-2.5c-0.4,0-0.7,0.3-0.7,0.7c0,0,0,0,0,0v5.4c0.1,1.1,1,1.9,2.1,1.8c1-0.1,1.7-0.8,1.8-1.8
			v-5.4C-945.4,105.3-945.7,104.9-946.1,104.9L-946.1,104.9z M-946.4,111c-0.1,0.5-0.5,0.9-1,0.8c-0.4,0-0.8-0.4-0.8-0.8v-5.1h1.9
			V111z"/>
	</g>
</g>
</svg>
