<?xml version="1.0" encoding="utf-8"?>
<!-- Generator: Adobe Illustrator 19.0.0, SVG Export Plug-In . SVG Version: 6.00 Build 0)  -->
<svg version="1.1" id="Layer_1" xmlns="http://www.w3.org/2000/svg" xmlns:xlink="http://www.w3.org/1999/xlink" x="0px" y="0px"
	 viewBox="-948 96.4 22.8 13.6" style="enable-background:new -948 96.4 22.8 13.6;" xml:space="preserve">
<style type="text/css">
	.st0{fill:#10BBE8;}
</style>
<g id="Laag_2">
	<g id="Laag_1-2">
		<path class="st0" d="M-925.5,107.2l-3.8-3.8v-6c0-0.4-0.3-0.7-0.7-0.7h-2.1c-0.4,0-0.7,0.3-0.7,0.7l0,0v2.5l-3.3-3.3
			c-0.2-0.2-0.4-0.3-0.6-0.3c-0.2,0-0.5,0.1-0.6,0.3l-10.5,10.5c-0.3,0.3-0.3,0.9,0,1.3l1.3,1.3c0.2,0.2,0.5,0.3,0.8,0.3
			c0.3,0,0.5-0.1,0.7-0.3l8.4-8.4l8.4,8.4c0.4,0.4,1.1,0.4,1.5,0l1.3-1.3l0,0C-925.2,108.1-925.2,107.5-925.5,107.2z M-927.5,109
			l-8.5-8.4c-0.2-0.2-0.4-0.3-0.6-0.3c-0.2,0-0.5,0.1-0.6,0.3l-8.5,8.4l-1.2-1.2l10.4-10.3l3.8,3.8c0.2,0.2,0.5,0.2,0.7,0.1
			c0.2-0.1,0.4-0.3,0.4-0.6v-3h1.5v5.8c0,0.2,0.1,0.3,0.2,0.5l3.8,3.8L-927.5,109z"/>
		<path class="st0" d="M-934.8,105.3h-3.5c-0.6,0-1,0.4-1,1v1.8c0,0.6,0.4,1,1,1h3.5c0.6,0,1-0.4,1-1v-1.8
			C-933.8,105.8-934.3,105.3-934.8,105.3C-934.8,105.3-934.8,105.3-934.8,105.3z M-937.1,108.2h-1.3v-1.8h1.2L-937.1,108.2z
			 M-934.8,108.2L-934.8,108.2h-1.3v-1.8h1.3V108.2z"/>
	</g>
</g>
</svg>
