<?xml version="1.0" encoding="utf-8"?>
<!-- Generator: Adobe Illustrator 19.0.0, SVG Export Plug-In . SVG Version: 6.00 Build 0)  -->
<svg version="1.1" id="Layer_1" xmlns="http://www.w3.org/2000/svg" xmlns:xlink="http://www.w3.org/1999/xlink" x="0px" y="0px"
	 viewBox="-949 94.5 20.4 17.5" style="enable-background:new -949 94.5 20.4 17.5;" xml:space="preserve">
<style type="text/css">
	.st0{fill:#10BBE8;}
</style>
<g id="Laag_2">
	<g id="Laag_1-2">
		<path class="st0" d="M-941.9,106.4c-0.1-0.2-0.3-0.4-0.6-0.4h-0.3l0.2-2c0-0.3-0.2-0.5-0.4-0.6c-0.3-0.1-0.6,0-0.8,0.2l-2.6,3.2
			c-0.2,0.2-0.2,0.5-0.1,0.7c0.1,0.2,0.3,0.4,0.6,0.4h0.4l-0.2,2c0,0.3,0.2,0.5,0.4,0.6c0.1,0,0.2,0,0.2,0c0.2,0,0.4-0.1,0.5-0.3
			l2.6-3.2C-941.8,106.9-941.8,106.6-941.9,106.4z M-945.3,106.9l1.5-1.8l-0.2,1.9h0.8l-1.5,1.8l0.2-1.9H-945.3z"/>
		<path class="st0" d="M-929.5,97.6h-0.6c0,0,0,0,0-0.1v-2c0-0.6-0.5-1.1-1.1-1.1h-0.2c-0.6,0-1.1,0.5-1.1,1.1v2c0,0,0,0,0,0.1h-0.7
			c0,0,0,0,0-0.1v-2c0-0.6-0.5-1.1-1.1-1.1h-0.2c-0.6,0-1.1,0.5-1.1,1.1v2c0,0,0,0,0,0.1h-0.8c-0.5,0-0.9,0.4-0.9,0.9v1.2
			c-0.1,2.2,1.6,4.1,3.8,4.3v1.5c0,1.1-0.9,2.1-2.1,2.1c-1.1,0-2.1-0.9-2.1-2.1v-4.8c0-0.1,0-0.1,0-0.2c-0.1-2-1.9-3.5-3.8-3.3
			c-1.9,0.1-3.3,1.7-3.3,3.5v1.1h-2.4c-1,0-1.9,0.8-1.9,1.9c0,0,0,0,0,0v6.4c0,1,0.8,1.9,1.9,1.9h6.4c1,0,1.9-0.8,1.9-1.9v-6.4
			c0-1-0.8-1.9-1.9-1.9h-3v-1.1c0-1.4,1.2-2.6,2.6-2.6s2.6,1.2,2.6,2.6v4.8c0,1.7,1.4,3.1,3.1,3.1c1.7,0,3.1-1.4,3.1-3.1v-1.5
			c2.2-0.2,3.9-2.1,3.8-4.3v-1.2C-928.6,98.1-929,97.7-929.5,97.6z M-940.8,102.9c0.5,0,0.9,0.4,0.9,0.9v6.4c0,0.5-0.4,0.9-0.9,0.9
			c0,0,0,0,0,0h-6.4c-0.5,0-0.9-0.4-0.9-0.9c0,0,0,0,0,0v-6.4c0-0.5,0.4-0.9,0.9-0.9H-940.8z M-931.5,97.6v-2c0,0,0-0.1,0.1-0.1h0.2
			c0,0,0.1,0,0.1,0.1v2c0,0,0,0.1-0.1,0.1L-931.5,97.6C-931.4,97.6-931.5,97.6-931.5,97.6z M-934.5,97.6v-2c0,0,0-0.1,0.1-0.1h0.2
			c0,0,0.1,0,0.1,0.1v2c0,0,0,0.1-0.1,0.1L-934.5,97.6C-934.5,97.6-934.5,97.6-934.5,97.6C-934.5,97.6-934.5,97.6-934.5,97.6z
			 M-929.6,99.8c0.1,1.8-1.3,3.4-3.2,3.5c-1.8,0.1-3.4-1.3-3.5-3.2c0-0.1,0-0.2,0-0.4v-1.2h6.7V99.8z"/>
		<path class="st0" d="M-937.6,100.6v0.2C-937.6,100.8-937.6,100.7-937.6,100.6z"/>
	</g>
</g>
</svg>
