<?xml version="1.0" encoding="utf-8"?>
<!-- Generator: Adobe Illustrator 19.0.0, SVG Export Plug-In . SVG Version: 6.00 Build 0)  -->
<svg version="1.1" id="Layer_1" xmlns="http://www.w3.org/2000/svg" xmlns:xlink="http://www.w3.org/1999/xlink" x="0px" y="0px"
	 viewBox="-951 93.8 16.2 18.2" style="enable-background:new -951 93.8 16.2 18.2;" xml:space="preserve">
<style type="text/css">
	.st0{fill:#10BBE8;}
</style>
<g id="Laag_2">
	<g id="Laag_1-2">
		<path class="st0" d="M-936.3,93.8h-13.1c-0.8,0-1.5,0.7-1.5,1.5v15.1c0,0.8,0.7,1.5,1.5,1.5c0,0,0,0,0,0h13.1
			c0.8,0,1.5-0.7,1.5-1.5l0,0V95.3C-934.8,94.5-935.5,93.8-936.3,93.8C-936.3,93.8-936.3,93.8-936.3,93.8z M-935.8,110.5
			c0,0.3-0.2,0.5-0.5,0.5l0,0h-13.1c-0.3,0-0.5-0.2-0.5-0.5l0,0V98.3h14.2V110.5z M-935.8,97.3H-950v-2c0-0.3,0.2-0.5,0.5-0.5
			c0,0,0,0,0,0h13.1c0.3,0,0.5,0.2,0.5,0.5c0,0,0,0,0,0V97.3z"/>
		<path class="st0" d="M-942.9,98.4c-3.3,0-6.1,2.7-6.1,6c0,3.3,2.7,6.1,6.1,6.1c3.3,0,6-2.7,6-6.1l0,0
			C-936.9,101.1-939.6,98.4-942.9,98.4z M-942.9,109.5c-2.8,0-5.1-2.3-5.1-5c0-2.8,2.3-5.1,5.1-5.1c2.8,0,5,2.3,5,5.1l0,0
			C-937.9,107.3-940.1,109.5-942.9,109.5z"/>
		<path class="st0" d="M-942.9,100.2c-2.3,0-4.2,1.9-4.2,4.2c0,2.3,1.9,4.2,4.2,4.2c2.3,0,4.2-1.9,4.2-4.2l0,0
			C-938.7,102.1-940.6,100.2-942.9,100.2z M-942.9,107.7c-1.7,0-3.1-1.3-3.2-3c0-0.1,0-0.2,0-0.2c0-0.1,0-0.3,0-0.4
			c0-0.1,0-0.2,0.1-0.3c0-0.1,0-0.2,0-0.2c0.5-1.7,2.3-2.7,4-2.2c1,0.3,1.8,1.1,2.1,2.1c0,0.1,0.1,0.2,0.1,0.3c0,0.1,0,0.1,0,0.2
			c0,0.2,0,0.3,0,0.5c0,0,0,0.1,0,0.1C-939.9,106.3-941.2,107.7-942.9,107.7z"/>
		<path class="st0" d="M-939.7,104.5c0,0,0,0.1,0,0.1l-0.4,0.4c-0.6,0.5-1.4,0.5-1.9,0l-0.5-0.4c-0.2-0.2-0.5-0.2-0.6,0l-0.6,0.4
			c-0.6,0.4-1.3,0.4-1.9,0l-0.5-0.4c0-0.1,0-0.2,0-0.2c0-0.1,0-0.3,0-0.4c0-0.1,0-0.2,0.1-0.2c0-0.1,0-0.2,0-0.2l0.3,0.2l0.7,0.5
			c0.2,0.1,0.5,0.1,0.7,0l0.6-0.5c0,0,0.1,0,0.1,0c0.5-0.3,1.1-0.3,1.6,0c0.1,0,0.1,0.1,0.2,0.1l0.5,0.4c0.2,0.2,0.5,0.2,0.7,0
			l0.6-0.5l0.4-0.3c0,0.1,0.1,0.2,0.1,0.3c0,0.1,0,0.1,0,0.2C-939.7,104.2-939.7,104.3-939.7,104.5z"/>
		<path class="st0" d="M-946,96.7h-2.5c-0.3,0-0.5-0.2-0.5-0.5c0-0.3,0.2-0.5,0.5-0.5h2.5c0.3,0,0.5,0.2,0.5,0.5
			C-945.5,96.5-945.7,96.7-946,96.7z"/>
		<path class="st0" d="M-937.4,96.7h-6.6c-0.3,0-0.5-0.2-0.5-0.5c0-0.3,0.2-0.5,0.5-0.5h6.7c0.3,0,0.5,0.2,0.5,0.5
			C-936.8,96.5-937.1,96.7-937.4,96.7C-937.3,96.7-937.3,96.7-937.4,96.7z"/>
	</g>
</g>
</svg>
