<?xml version="1.0" encoding="utf-8"?>
<!-- Generator: Adobe Illustrator 19.0.0, SVG Export Plug-In . SVG Version: 6.00 Build 0)  -->
<svg version="1.1" id="Layer_1" xmlns="http://www.w3.org/2000/svg" xmlns:xlink="http://www.w3.org/1999/xlink" x="0px" y="0px"
	 viewBox="-951 93.3 15.6 19.7" style="enable-background:new -951 93.3 15.6 19.7;" xml:space="preserve">
<style type="text/css">
	.st0{fill:#10BBE8;}
	.st1{fill:none;}
</style>
<g id="Laag_2">
	<g id="Laag_1-2">
		<path class="st0" d="M-936.2,95.6h-1v1h0.8v4.4h-7.4c-0.4,0-0.8,0.3-0.8,0.8v1h-1.4c-0.4,0-0.7,0.3-0.7,0.7l0,0v7.5
			c0,1.1,0.9,2,2,2h0.9c1.1,0,2-0.9,2-2l0,0v-7.5c0-0.4-0.3-0.7-0.7-0.7l0,0h-1.1V102h7.4c0.4,0,0.8-0.3,0.8-0.8l0,0v-4.9
			C-935.4,95.9-935.7,95.6-936.2,95.6z M-942.8,103.8v7.2c0,0.6-0.4,1-1,1h-0.9c-0.6,0-1-0.4-1-1v-7.2H-942.8z"/>
		<path class="st0" d="M-938.2,93.3h-11.7c-0.6,0-1.1,0.5-1.1,1.1c0,0,0,0,0,0v3.4c0,0.6,0.5,1.1,1.1,1.1h11.7
			c0.6,0,1.1-0.5,1.1-1.1v-3.4C-937.2,93.8-937.6,93.3-938.2,93.3z M-938.2,97.8C-938.2,97.8-938.2,97.9-938.2,97.8l-11.8,0.1
			c0,0-0.1,0-0.1-0.1l0,0v-3.4c0,0,0-0.1,0.1-0.1l0,0h11.7c0,0,0.1,0,0.1,0.1V97.8z"/>
		<path class="st0" d="M-944.8,110.3c-0.3,0-0.5-0.2-0.5-0.5v-5.1c0-0.3,0.2-0.5,0.5-0.5c0.3,0,0.5,0.2,0.5,0.5v5.1
			C-944.3,110.1-944.5,110.3-944.8,110.3z"/>
		<line class="st1" x1="-946.8" y1="96.9" x2="-941.6" y2="96.9"/>
		<path class="st0" d="M-941.1,96.9c0,0.3-0.2,0.5-0.5,0.5l0,0h-5.2c-0.3,0-0.5-0.2-0.5-0.5c0-0.3,0.2-0.5,0.5-0.5h5.2
			C-941.3,96.4-941.1,96.6-941.1,96.9z"/>
	</g>
</g>
</svg>
