<?xml version="1.0" encoding="utf-8"?>
<!-- Generator: Adobe Illustrator 19.0.0, SVG Export Plug-In . SVG Version: 6.00 Build 0)  -->
<svg version="1.1" id="Layer_1" xmlns="http://www.w3.org/2000/svg" xmlns:xlink="http://www.w3.org/1999/xlink" x="0px" y="0px"
	 viewBox="-952 93.1 13.6 18.9" style="enable-background:new -952 93.1 13.6 18.9;" xml:space="preserve">
<style type="text/css">
	.st0{fill:#10BBE8;}
</style>
<g id="Laag_2">
	<g id="Laag_1-2">
		<path class="st0" d="M-940.3,109c0,0,0,0.1,0,0.1v-0.3C-940.3,108.9-940.3,109-940.3,109z"/>
		<path class="st0" d="M-938.8,100.6h-12.7c-0.3,0-0.5,0.2-0.5,0.5c0,0,0,0,0,0.1v2.7c0,0.3,0.2,0.5,0.5,0.5h1.1v7.2
			c0,0.3,0.2,0.5,0.5,0.5h9.1c0.3,0,0.5-0.2,0.5-0.5v-2.4c0,0,0-0.1,0-0.1c0,0,0-0.1,0-0.1v-4.6h1.4c0.3,0,0.5-0.2,0.5-0.5v-2.7
			C-938.3,100.8-938.5,100.6-938.8,100.6C-938.8,100.6-938.8,100.6-938.8,100.6z M-945.7,111h-3.7v-1.3h3.7V111z M-945.7,105.8h-3.7
			v-1.5h3.7V105.8z M-943.7,106.8v1.6h-3.3v-1.6H-943.7z M-948,106.8v1.6h-1.4v-1.6H-948z M-941.3,111h-3.4v-1.3h3.4L-941.3,111z
			 M-941.3,108.4h-1.4v-1.6h1.4L-941.3,108.4z M-941.3,105.8h-3.4v-1.5h3.4L-941.3,105.8z M-939.4,103.3H-951v-1.7h11.7
			L-939.4,103.3z"/>
		<path class="st0" d="M-948.7,97c-0.2,0.2-0.2,0.5-0.1,0.7l0.1,0.1l0.4,0.9c0.1,0.3,0,0.5-0.3,0.7c-0.1,0-0.1,0-0.2,0
			c-0.2,0-0.4-0.1-0.4-0.3l-0.5-1c-0.4-0.9,0-1.9,0.8-2.3c0.1,0,0.2-0.1,0.2-0.2c0.2-0.2,0.2-0.5,0.1-0.7l-0.1-0.2l-0.4-1
			c-0.1-0.3,0-0.6,0.3-0.7c0.3-0.1,0.6,0,0.7,0.3l0.5,1.2c0.3,0.8,0,1.8-0.9,2.2C-948.5,96.8-948.6,96.9-948.7,97z"/>
		<path class="st0" d="M-945.2,97c-0.2,0.2-0.2,0.5-0.1,0.8l0.1,0.1l0.4,0.9c0.1,0.2,0,0.5-0.2,0.7c0,0,0,0,0,0c-0.1,0-0.1,0-0.2,0
			c-0.2,0-0.4-0.1-0.5-0.3l-0.5-1c-0.4-0.9,0-1.9,0.8-2.3c0.1,0,0.2-0.1,0.2-0.2c0.2-0.2,0.2-0.4,0.1-0.7l-0.1-0.2l-0.4-1
			c-0.1-0.2,0-0.5,0.2-0.7c0,0,0.1,0,0.1,0c0.3-0.1,0.5,0,0.6,0.3c0,0,0,0,0,0l0.5,1.2c0.3,0.9-0.1,1.8-0.9,2.2
			C-945.1,96.8-945.1,96.9-945.2,97z"/>
		<path class="st0" d="M-941.7,97c-0.2,0.2-0.2,0.5-0.1,0.7l0.1,0.1l0.4,0.9c0.1,0.3,0,0.5-0.3,0.7c-0.1,0-0.1,0-0.2,0
			c-0.2,0-0.4-0.1-0.5-0.3l-0.5-1c-0.4-0.9,0-1.9,0.8-2.3c0.1,0,0.2-0.1,0.2-0.2c0.2-0.2,0.2-0.5,0.1-0.7l-0.1-0.2l-0.4-1
			c-0.1-0.3,0-0.5,0.3-0.7c0,0,0,0,0,0c0.3-0.1,0.5,0,0.6,0.3c0,0,0,0,0,0l0.5,1.2c0.3,0.8,0,1.8-0.9,2.2
			C-941.6,96.8-941.7,96.9-941.7,97z"/>
	</g>
</g>
</svg>
