<?xml version="1.0" encoding="utf-8"?>
<!-- Generator: Adobe Illustrator 19.0.0, SVG Export Plug-In . SVG Version: 6.00 Build 0)  -->
<svg version="1.1" id="Layer_1" xmlns="http://www.w3.org/2000/svg" xmlns:xlink="http://www.w3.org/1999/xlink" x="0px" y="0px"
	 viewBox="-948 95.6 21.1 15.4" style="enable-background:new -948 95.6 21.1 15.4;" xml:space="preserve">
<style type="text/css">
	.st0{fill:#10BBE8;}
</style>
<g id="Laag_2">
	<g id="Laag_1-2">
		<path class="st0" d="M-927.4,95.6h-11.7c-0.3,0-0.5,0.2-0.5,0.5v9.3c0,0.3,0.2,0.5,0.5,0.5h5.4v0.5h-2.7c-0.3,0-0.5,0.2-0.5,0.5
			v0.9c0,0.3,0.2,0.5,0.5,0.5h2.7c-0.1,0.3-0.2,0.6-0.4,0.8c-1.2,1.2-4.7,1-6.8,1h-1.3c-0.5,0.1-1-0.1-1.4-0.5
			c-0.2-0.3-0.3-0.6-0.3-0.9c0,0,0-0.1,0-0.1h2.8c0.3,0,0.5-0.2,0.5-0.5V96.1c0-0.3-0.2-0.5-0.5-0.5h-6.5c-0.3,0-0.5,0.2-0.5,0.5
			v11.9c0,0.3,0.2,0.5,0.5,0.5h2.7c-0.1,0.6,0.1,1.2,0.5,1.7c0.6,0.6,1.4,0.9,2.2,0.8h1.2c0.6,0,1.3,0,2.1,0c2.1,0,4.3-0.2,5.4-1.3
			c0.4-0.4,0.7-0.9,0.7-1.5h2.7c0.3,0,0.5-0.2,0.5-0.5v-0.9c0-0.3-0.2-0.5-0.5-0.5h-2.7v-0.5h5.4c0.3,0,0.5-0.2,0.5-0.5v-9.2
			C-926.8,95.8-927.1,95.6-927.4,95.6C-927.4,95.6-927.4,95.6-927.4,95.6z M-947,107.4V96.6h5.5v10.9H-947z M-927.9,104.8h-10.7v-1
			h10.7V104.8z M-927.9,102.8h-10.7v-6.3h10.7V102.8z"/>
		<path class="st0" d="M-936.9,100.2c-0.3,0-0.5-0.2-0.5-0.5v-1.4c0-0.3,0.2-0.5,0.5-0.5h3.4c0.3,0,0.5,0.2,0.5,0.5
			c0,0.3-0.2,0.5-0.5,0.5h-2.9v0.9C-936.4,100-936.6,100.2-936.9,100.2z"/>
		<rect x="-946.2" y="97.3" class="st0" width="3.7" height="1"/>
		<rect x="-946.2" y="99.3" class="st0" width="3.7" height="1"/>
		<rect x="-946.2" y="101.3" class="st0" width="3.7" height="1"/>
		<path class="st0" d="M-944.3,103.6c-0.9,0-1.7,0.7-1.7,1.7c0,0.9,0.7,1.7,1.7,1.7c0.9,0,1.7-0.7,1.7-1.7c0,0,0,0,0,0
			C-942.7,104.3-943.4,103.6-944.3,103.6z M-944.3,105.9c-0.4,0-0.7-0.3-0.7-0.7c0-0.4,0.3-0.7,0.7-0.7s0.7,0.3,0.7,0.7l0,0
			C-943.7,105.6-944,105.9-944.3,105.9L-944.3,105.9z"/>
	</g>
</g>
</svg>
