<?xml version="1.0" encoding="utf-8"?>
<!-- Generator: Adobe Illustrator 19.0.0, SVG Export Plug-In . SVG Version: 6.00 Build 0)  -->
<svg version="1.1" id="Layer_1" xmlns="http://www.w3.org/2000/svg" xmlns:xlink="http://www.w3.org/1999/xlink" x="0px" y="0px"
	 viewBox="-951 92.4 16.2 20.6" style="enable-background:new -951 92.4 16.2 20.6;" xml:space="preserve">
<style type="text/css">
	.st0{fill:#10BBE8;}
</style>
<g id="Laag_2">
	<g id="Laag_1-2">
		<path class="st0" d="M-936.2,92.4h-6.2c-0.8,0-1.4,0.6-1.4,1.4l0,0V94c0,0.6,0.4,1.1,1,1.3v5.6h-5.2c-0.2-0.5-0.7-0.9-1.3-0.9
			h-0.4c-0.8,0-1.4,0.6-1.4,1.4v6.2c0,0.8,0.6,1.4,1.4,1.4c0,0,0,0,0,0h0.4c0.6,0,1.2-0.4,1.3-1h5.5c0.1-0.3,0.3-0.7,0.5-1h-6v-5h6
			v-6.5h5v8c0,0.8-0.3,1.6-0.8,2.3c0.2,0.3,0.4,0.6,0.6,0.8c0.8-0.8,1.3-2,1.3-3.1v-8c0.6-0.2,0.9-0.7,0.9-1.3v-0.3
			C-934.8,93-935.4,92.4-936.2,92.4C-936.2,92.4-936.2,92.4-936.2,92.4z M-948.8,107.5c0,0.2-0.2,0.4-0.4,0.4h-0.4
			c-0.2,0-0.4-0.2-0.4-0.4v-6.2c0-0.2,0.2-0.4,0.3-0.4c0,0,0,0,0,0h0.4c0.2,0,0.4,0.2,0.4,0.3c0,0,0,0,0,0V107.5z M-935.8,94
			c0,0.2-0.2,0.4-0.4,0.4h-6.2c-0.2,0-0.4-0.2-0.4-0.4v-0.3c0-0.2,0.2-0.4,0.4-0.4h6.2c0.2,0,0.4,0.2,0.4,0.4V94z"/>
		<path class="st0" d="M-937,106.4c-0.2-0.3-0.4-0.6-0.6-0.8c-0.4-0.6-0.9-1.2-1.2-1.5c-0.1-0.2-0.3-0.3-0.5-0.3
			c-0.2,0-0.4,0.1-0.5,0.3c-0.7,0.9-1.4,1.8-2,2.8c-0.2,0.3-0.4,0.7-0.5,1c-0.3,0.5-0.4,1-0.5,1.6c-0.1,1.9,1.4,3.6,3.3,3.7
			c1.9,0.1,3.6-1.4,3.7-3.3c0-0.1,0-0.3,0-0.4C-935.9,108.4-936.3,107.3-937,106.4z M-939.3,112c-1.4,0-2.5-1.1-2.5-2.5
			c0.1-0.6,0.3-1.1,0.6-1.6c0.2-0.3,0.4-0.7,0.6-1c0.4-0.6,0.9-1.3,1.4-1.9c0.3,0.4,0.6,0.8,0.9,1.3c0.2,0.3,0.4,0.6,0.5,0.8
			c0.5,0.7,0.9,1.5,1,2.4C-936.8,110.9-937.9,112-939.3,112z"/>
		<path class="st0" d="M-944.5,103.6h-2.1c-0.3,0-0.5-0.2-0.5-0.5c0-0.3,0.2-0.5,0.5-0.5h2.1c0.3,0,0.5,0.2,0.5,0.5
			C-944,103.3-944.2,103.6-944.5,103.6z"/>
		<path class="st0" d="M-941.9,103.6h-0.9c-0.3,0-0.5-0.2-0.5-0.5c0-0.3,0.2-0.5,0.5-0.5h0.9c0.3,0,0.5,0.2,0.5,0.5
			C-941.4,103.3-941.7,103.6-941.9,103.6z"/>
	</g>
</g>
</svg>
