<?xml version="1.0" encoding="utf-8"?>
<!-- Generator: Adobe Illustrator 19.0.0, SVG Export Plug-In . SVG Version: 6.00 Build 0)  -->
<svg version="1.1" id="Layer_1" xmlns="http://www.w3.org/2000/svg" xmlns:xlink="http://www.w3.org/1999/xlink" x="0px" y="0px"
	 viewBox="-951 94 15.4 17" style="enable-background:new -951 94 15.4 17;" xml:space="preserve">
<style type="text/css">
	.st0{fill:#10BBE8;}
</style>
<g id="Laag_2">
	<g id="Laag_1-2">
		<path class="st0" d="M-935.6,110.5c0,0.3-0.2,0.5-0.5,0.5h-0.4c-0.5,0-0.9-0.4-1-0.9v-1.5c0-0.8-0.6-1.4-1.4-1.4h-0.3
			c0-0.1,0-0.2,0-0.3l0.1-0.7h0.2c1.3,0,2.4,1.1,2.4,2.4v1.5l0.4-0.1C-935.8,110-935.6,110.2-935.6,110.5
			C-935.6,110.5-935.6,110.5-935.6,110.5z"/>
		<path class="st0" d="M-947.4,107.2h-0.4c-0.8,0-1.4,0.6-1.4,1.4v1.5c0,0.5-0.4,0.9-0.9,0.9c0,0,0,0,0,0h-0.4
			c-0.3,0-0.5-0.2-0.5-0.5s0.2-0.5,0.5-0.5h0.4l0-1.5c0-1.3,1.1-2.4,2.4-2.4h0.3l0.1,0.8C-947.4,107-947.4,107.1-947.4,107.2z"/>
		<path class="st0" d="M-947.9,103.2c-0.5-0.1-1,0.1-1.4,0.3c-0.4,0.3-0.6,0.7-0.7,1.2c0,0.2-0.3,0.4-0.5,0.4h-0.1
			c-0.3,0-0.5-0.3-0.4-0.6c0.1-0.7,0.5-1.4,1.1-1.8c0.6-0.3,1.2-0.5,1.9-0.5c0,0,0,0.1,0,0.2L-947.9,103.2z"/>
		<path class="st0" d="M-935.6,104.5c0,0.3-0.1,0.5-0.4,0.6h-0.1c-0.2,0-0.5-0.2-0.5-0.4c-0.1-0.5-0.3-0.9-0.7-1.2
			c-0.4-0.3-1-0.4-1.5-0.3l0.1-0.9c0,0,0-0.1,0-0.1c0.7-0.1,1.3,0.1,1.9,0.5C-936.1,103.1-935.7,103.8-935.6,104.5z"/>
		<path class="st0" d="M-939.1,101c-0.1-0.1-0.3-0.3-0.4-0.3c-0.1-0.1-0.3-0.2-0.4-0.2l0,0c-0.1,0-0.2-0.1-0.3-0.1
			c-0.2-0.1-0.4-0.1-0.7-0.1h-5c-0.2,0-0.3,0-0.5,0c-0.2,0-0.3,0.1-0.5,0.1l-0.2,0.2c-0.2,0.1-0.4,0.3-0.5,0.4
			c-0.3,0.3-0.5,0.7-0.5,1.1c0,0,0,0.1,0,0.2l0.1,0.9l0.4,2.9l0.1,0.8c0,0.1,0,0.1,0,0.2c0.5,1.8,2.3,3,4.2,2.8
			c1.9,0.1,3.6-1,4.1-2.8c0-0.1,0-0.2,0-0.3l0.1-0.7l0.3-2.9l0,0l0.1-0.9c0,0,0-0.1,0-0.1C-938.6,101.8-938.8,101.3-939.1,101z
			 M-946.4,106.8l-0.6-4.6c0-0.2,0-0.4,0.2-0.5c0.3-0.3,0.6-0.4,1-0.4h2l0.1,7.7C-945,109-946.1,108.1-946.4,106.8L-946.4,106.8z
			 M-940,106.4v0.4l0,0l0,0c-0.3,1.3-1.4,2.2-2.8,2.2l-0.1-7.7h2c0.4,0,0.7,0.1,1,0.4c0.1,0.1,0.2,0.3,0.2,0.5L-940,106.4z"/>
		<path class="st0" d="M-936.3,95.6h-0.4c-0.5,0-0.9,0.4-0.9,0.9v1.5c0,0.8-0.6,1.4-1.4,1.4h-0.4c-0.2-0.7-0.8-1.3-1.5-1.6
			c-0.1-0.6-0.5-1.2-1.1-1.4c0.1-0.3,0.2-0.7,0.3-1c0.1-0.2,0.2-0.4,0.4-0.4c0.4-0.1,0.9,0,1.2,0.2c0.2,0.1,0.6,0,0.7-0.2
			s0-0.6-0.2-0.7c-0.6-0.3-1.3-0.4-2-0.2c-0.5,0.2-0.8,0.5-1,1c-0.2,0.4-0.3,0.8-0.4,1.3h-0.4c-0.1-0.5-0.2-0.9-0.4-1.3
			c-0.2-0.5-0.5-0.8-1-1c-0.7-0.2-1.4-0.1-2,0.2c-0.3,0.1-0.4,0.4-0.3,0.6c0,0,0,0.1,0,0.1c0.1,0.2,0.4,0.4,0.7,0.2c0,0,0,0,0,0
			c0.4-0.2,0.8-0.3,1.2-0.2c0.2,0.1,0.4,0.2,0.4,0.4c0.1,0.3,0.3,0.7,0.3,1l0,0c-0.3,0.1-0.5,0.2-0.7,0.4c-0.3,0.3-0.5,0.7-0.5,1.1
			c-0.7,0.2-1.2,0.8-1.5,1.5h-0.4c-0.8,0-1.4-0.6-1.4-1.4v-1.5c0-0.5-0.5-0.9-1-0.9h-0.4c-0.3,0-0.5,0.2-0.5,0.5
			c0,0.3,0.2,0.5,0.5,0.5l0.4-0.1v1.5c0,1.3,1.1,2.4,2.4,2.4h0.3c0,0.1,0.1,0.1,0.1,0.1l0.3-0.1c0.1-0.1,0.3-0.1,0.5-0.1
			c0.2,0,0.3,0,0.5,0h-0.4v-0.4c0-0.5,0.5-1,1.2-1.1c0.2,0,0.3,0,0.5,0h2.5c0.1,0,0.2,0,0.4,0l0,0c0.6,0,1.1,0.5,1.2,1.1v0.3
			c0,0-0.1,0-0.1,0h-0.3c0.2,0,0.5,0,0.7,0.1c0.1,0,0.2,0,0.3,0.1l0,0c0.1,0.1,0.3,0.1,0.4,0.2c0-0.1,0.1-0.1,0.1-0.2h0.3
			c1.3,0,2.4-1,2.4-2.3c0,0,0,0,0,0l-0.1-1.5h0.4c0.3,0,0.5-0.2,0.5-0.5C-935.8,95.8-936.1,95.6-936.3,95.6z M-944.5,97.8
			c0.1-0.2,0.3-0.3,0.5-0.3h1.4c0.2,0,0.4,0.1,0.5,0.3H-944.5z"/>
	</g>
</g>
</svg>
