<?xml version="1.0" encoding="utf-8"?>
<!-- Generator: Adobe Illustrator 19.0.0, SVG Export Plug-In . SVG Version: 6.00 Build 0)  -->
<svg version="1.1" id="Layer_1" xmlns="http://www.w3.org/2000/svg" xmlns:xlink="http://www.w3.org/1999/xlink" x="0px" y="0px"
	 viewBox="-948 94.5 21.1 16.5" style="enable-background:new -948 94.5 21.1 16.5;" xml:space="preserve">
<style type="text/css">
	.st0{fill:#10BBE8;}
</style>
<g id="Laag_2">
	<g id="Laag_1-2">
		<path class="st0" d="M-945.9,100.4L-945.9,100.4z"/>
		<path class="st0" d="M-934,99.5c-0.1-0.1-0.3-0.1-0.5-0.1h-0.5c-0.1-1.3-1.1-2.3-2.3-2.5l-0.6-0.1l0.1-0.5
			c-0.1-0.2-0.3-0.6-0.5-0.7c-0.3-0.1-0.7,0-0.9,0.2l-0.3,0.3l-0.3-0.3c-0.3-0.3-0.7-0.4-1.1-0.4c-0.8,0-1.5,0.5-1.7,1.3l-0.2,0.6
			l-0.5-0.2c-0.2-0.1-0.4-0.1-0.7-0.1c-1,0-1.8,0.8-1.8,1.8c0,0.2,0,0.4,0.1,0.6h-0.2c-0.1,0-0.2,0-0.3,0l0,0
			c-0.2,0.1-0.3,0.2-0.4,0.3c-0.1-0.3-0.2-0.7-0.2-1c0-1.5,1.3-2.7,2.8-2.7c0.2,0,0.4,0,0.6,0.1c0.5-1,1.4-1.6,2.5-1.6
			c0.5,0,1.1,0.1,1.5,0.4c0.4-0.2,0.9-0.3,1.3-0.2c0.4,0.1,0.8,0.3,1,0.7c0.1,0.2,0.2,0.3,0.3,0.5C-935.2,96.4-934.1,97.8-934,99.5z
			"/>
		<path class="st0" d="M-927.4,98h-1.9c-0.1,0-0.2,0.1-0.3,0.1l-4,3.9l0.1-1.6c0-0.3-0.1-0.5-0.3-0.7c-0.1-0.1-0.1-0.1-0.2-0.2
			c-0.1-0.1-0.3-0.1-0.5-0.1h-11.4c-0.1,0-0.2,0-0.3,0l0,0c-0.2,0.1-0.3,0.2-0.4,0.3c0,0.1-0.1,0.1-0.1,0.2c-0.1,0.3-0.1,0.6,0,0.8
			l2.8,5.8l-0.6,0.6c-0.4-0.3-0.8-0.4-1.3-0.4c-1.2,0-2.2,1-2.2,2.2c0,1.2,1,2.2,2.2,2.2c0.8,0,1.5-0.4,1.9-1.1
			c0.2-0.3,0.3-0.7,0.3-1c0-0.3-0.1-0.7-0.3-1l0.8-0.7l0,0l2.3-0.3c0,0.1,0.1,0.2,0.1,0.2l2.8,2.6c0.1,0.1,0.2,0.1,0.3,0.1h2.5
			c0.3,0,0.5-0.2,0.5-0.5v-3.4h0.3c0.2,0,0.4-0.2,0.4-0.5l0.1-1.9l4.6-4.5h1.7c0.3,0,0.5-0.2,0.5-0.5C-926.9,98.3-927.1,98-927.4,98
			C-927.4,98-927.4,98-927.4,98z M-944.8,109.4c-0.2,0.4-0.6,0.6-1,0.6c-0.6,0.1-1.2-0.4-1.3-1.1c-0.1-0.6,0.4-1.2,1.1-1.3
			c0.1,0,0.1,0,0.2,0c0.2,0,0.3,0,0.5,0.1l-0.8,0.7c-0.2,0.2-0.2,0.5-0.1,0.7c0,0,0,0,0,0c0.1,0.1,0.2,0.2,0.4,0.2
			c0.1,0,0.2,0,0.3-0.1l0.8-0.7c0,0.1,0,0.2,0,0.3C-944.7,109-944.7,109.2-944.8,109.4z M-935.5,108.8h-1.8l-2.3-2.1l4.1-0.6V108.8z
			 M-934.5,100.4l-0.1,2.8c0,0,0,0.1,0,0.1l-0.1,1.6l-8.3,1.2l-2.9-5.7H-934.5L-934.5,100.4z"/>
	</g>
</g>
</svg>
