<?xml version="1.0" encoding="utf-8"?>
<!-- Generator: Adobe Illustrator 19.0.0, SVG Export Plug-In . SVG Version: 6.00 Build 0)  -->
<svg version="1.1" id="Layer_1" xmlns="http://www.w3.org/2000/svg" xmlns:xlink="http://www.w3.org/1999/xlink" x="0px" y="0px"
	 viewBox="-953 94.3 12.9 17.7" style="enable-background:new -953 94.3 12.9 17.7;" xml:space="preserve">
<style type="text/css">
	.st0{fill:#10BBE8;}
</style>
<g id="Laag_2">
	<g id="Laag_1-2">
		<path class="st0" d="M-940.6,101.2h-1.3v-2.3c0.1-2.6-1.9-4.7-4.4-4.9c-2.6-0.1-4.7,1.9-4.9,4.4c0,0.1,0,0.3,0,0.4v2.3h-1.3
			c-0.3,0-0.5,0.2-0.5,0.5v9.8c0,0.3,0.2,0.5,0.5,0.5h11.9c0.3,0,0.5-0.2,0.5-0.5v-9.8C-940.1,101.5-940.4,101.2-940.6,101.2z
			 M-950.2,98.9c-0.1-2,1.4-3.7,3.4-3.8c2-0.1,3.7,1.4,3.8,3.4c0,0.1,0,0.3,0,0.4v2.3h-1.2v-2.3c0-1.4-1.1-2.5-2.5-2.5c0,0,0,0,0,0
			c-1.4,0-2.5,1.1-2.5,2.5v2.3h-1.1V98.9z M-945.1,101.2h-3v-2.3c0-0.8,0.7-1.5,1.5-1.5c0,0,0,0,0,0c0.4,0,0.8,0.1,1.1,0.4
			c0.3,0.3,0.4,0.7,0.4,1.1V101.2z M-941.1,111H-952v-8.8h10.9V111z"/>
		<path class="st0" d="M-944.3,109.3L-944.3,109.3c0,0.1,0,0.2,0,0.3C-944.2,109.5-944.2,109.4-944.3,109.3z M-944.3,109.3
			L-944.3,109.3c0,0.1,0,0.2,0,0.3C-944.2,109.5-944.2,109.4-944.3,109.3z M-944.3,109.3L-944.3,109.3c0,0.1,0,0.2,0,0.3
			C-944.2,109.5-944.2,109.4-944.3,109.3z"/>
		<path class="st0" d="M-945.8,106.6v0.3c0-0.2,0-0.3,0.1-0.4L-945.8,106.6z M-947.4,106.9v-0.3l-0.2-0.2
			C-947.4,106.6-947.4,106.7-947.4,106.9z"/>
		<path class="st0" d="M-944.2,105.5c0-1.3-1-2.3-2.3-2.4c-1.2,0-2.2,0.9-2.3,2c-0.1,0.6,0.1,1.3,0.5,1.8l-0.5,2.3
			c-0.1,0.3,0.2,0.7,0.5,0.7c0,0,0.1,0,0.1,0h3.3c0.2,0,0.4-0.1,0.5-0.2c0-0.1,0.1-0.1,0.1-0.2c0-0.1,0-0.2,0-0.4l-0.5-2.3
			C-944.4,106.5-944.2,106-944.2,105.5z M-945.6,106.4c-0.1,0.1-0.2,0.3-0.1,0.4l0.4,2.2h-2.5l0.4-2.1c0-0.2,0-0.3-0.1-0.4
			c-0.5-0.5-0.5-1.4,0-1.9c0.2-0.2,0.4-0.3,0.6-0.3c0.4-0.1,0.8,0,1.2,0.3c0.6,0.4,0.7,1.3,0.2,1.9
			C-945.5,106.4-945.6,106.4-945.6,106.4L-945.6,106.4z"/>
		<path class="st0" d="M-945.8,106.6v0.3c0-0.2,0-0.3,0.1-0.4L-945.8,106.6z M-947.4,106.9v-0.3l-0.2-0.2
			C-947.4,106.6-947.4,106.7-947.4,106.9z"/>
	</g>
</g>
</svg>
