<?xml version="1.0" encoding="utf-8"?>
<!-- Generator: Adobe Illustrator 19.0.0, SVG Export Plug-In . SVG Version: 6.00 Build 0)  -->
<svg version="1.1" id="Layer_1" xmlns="http://www.w3.org/2000/svg" xmlns:xlink="http://www.w3.org/1999/xlink" x="0px" y="0px"
	 viewBox="-947 96.9 23.2 12.1" style="enable-background:new -947 96.9 23.2 12.1;" xml:space="preserve">
<style type="text/css">
	.st0{fill:#10BBE8;}
</style>
<g id="Laag_2">
	<g id="Laag_1-2">
		<path class="st0" d="M-924.8,98.9c-1-0.8-2.4-0.8-3.4,0.1v-0.4c0.1-0.8-0.5-1.5-1.3-1.6h-7.9c-0.8,0.1-1.4,0.8-1.3,1.6v2.2
			l-6.7-2.7c-0.2-0.1-0.5,0-0.6,0.2l-1,1.7c-0.1,0.2-0.1,0.5,0.2,0.7l8.1,5.2v1.4c-0.1,0.8,0.5,1.5,1.3,1.6h7.9
			c0.8-0.1,1.4-0.8,1.3-1.6v-0.1l3.8-4.6c0.4-0.5,0.6-1,0.6-1.7C-923.8,100.2-924.2,99.5-924.8,98.9z M-938.7,104.8l-7.2-4.6
			l0.5-0.9l6.6,2.7V104.8z M-929.2,107.4c0,0.4-0.2,0.6-0.3,0.6h-7.9c-0.1,0-0.3-0.3-0.3-0.6v-8.8c0-0.4,0.2-0.6,0.3-0.6h7.9
			c0.1,0,0.3,0.3,0.3,0.6V107.4z M-925.2,102l-3,3.6v-5.1l0.5-0.6c0.6-0.7,1.6-0.8,2.3-0.2c0.4,0.3,0.6,0.8,0.6,1.3
			C-924.8,101.4-925,101.7-925.2,102L-925.2,102z"/>
		<path class="st0" d="M-932.8,99.2c-0.2-0.3-0.6-0.3-0.9-0.1c0,0-0.1,0.1-0.1,0.1c-0.8,0.9-2.1,2.8-2.1,3.8c0,1.2,0.9,2.3,2.1,2.5
			v1c0,0.3,0.2,0.5,0.5,0.5s0.5-0.2,0.5-0.5v-1c1.2-0.2,2.1-1.3,2.1-2.5C-930.8,101.9-932.1,100.1-932.8,99.2z M-932.8,104.5v-1.2
			c0-0.3-0.2-0.5-0.5-0.5c-0.3,0-0.5,0.2-0.5,0.5v1.2c-0.6-0.2-1.1-0.8-1.1-1.5c0.3-1,0.8-2,1.6-2.8c0.7,0.8,1.3,1.8,1.6,2.8
			C-931.7,103.6-932.2,104.2-932.8,104.5L-932.8,104.5z"/>
	</g>
</g>
</svg>
