<?xml version="1.0" encoding="utf-8"?>
<!-- Generator: Adobe Illustrator 25.1.0, SVG Export Plug-In . SVG Version: 6.00 Build 0)  -->
<svg version="1.1" id="Laag_1" xmlns="http://www.w3.org/2000/svg" xmlns:xlink="http://www.w3.org/1999/xlink" x="0px" y="0px"
	 viewBox="0 0 383.9 482" style="enable-background:new 0 0 383.9 482;" xml:space="preserve">
<g id="Laag_2_1_">
	<g id="Layer_1">
		<path fill="#fff" d="M376.8,60.8L195.5,0.6c-2.3-0.8-4.8-0.8-7.1,0L7.1,60.8C2.8,62.2,0,66,0,70.3v120.5c0,155.9,24.6,213,187.2,290.1
			c1.5,0.7,3.1,1.1,4.8,1c1.7,0,3.3-0.4,4.8-1c162.5-77.2,187.1-134.2,187.1-290.1V70.3C383.9,66.1,381.1,62.3,376.8,60.8z
			 M305.5,184.7l-129,119.2c-3.8,3.5-8.7,5.3-13.6,5.3c-4.9,0-9.7-1.8-13.6-5.3l-71-65.6c-8.1-7.5-8.6-20.2-1.1-28.3
			s20.1-8.6,28.3-1.1L163,262l115.4-106.6c8.1-7.5,20.8-7,28.3,1.1C314.2,164.6,313.7,177.2,305.5,184.7z"/>
	</g>
</g>
</svg>
