<svg xmlns="http://www.w3.org/2000/svg" viewBox="0 0 12.86 17.71"><defs><style>.cls-1{fill:#002068;}.cls-2{fill:#0363ed;}</style></defs><g id="Laag_2" data-name="Laag 2"><g id="Laag_1-2" data-name="Laag 1"><path class="cls-1" d="M12.36,6.94h-1.3V4.64a4.64,4.64,0,1,0-9.27,0v2.3H.5a.5.5,0,0,0-.5.5v9.77a.5.5,0,0,0,.5.5H12.36a.5.5,0,0,0,.5-.5V7.44A.5.5,0,0,0,12.36,6.94ZM2.79,4.64a3.64,3.64,0,1,1,7.27,0v2.3H8.91V4.64A2.48,2.48,0,0,0,6.42,2.15,2.49,2.49,0,0,0,3.93,4.64v2.3H2.79Zm5.12,2.3h-3V4.64A1.49,1.49,0,0,1,6.42,3.15a1.47,1.47,0,0,1,1.06.43,1.49,1.49,0,0,1,.43,1.06Zm3.95,9.77H1V7.94H11.86Z"/><path class="cls-2" d="M8.73,15v0a.68.68,0,0,1,0,.35A.61.61,0,0,0,8.73,15Zm0,0v0a.68.68,0,0,1,0,.35A.61.61,0,0,0,8.73,15Zm0,0v0a.68.68,0,0,1,0,.35A.61.61,0,0,0,8.73,15Z"/><path class="cls-2" d="M7.19,12.35l0,.25a.49.49,0,0,1,.14-.44Zm-1.58.26,0-.25-.18-.19A.51.51,0,0,1,5.61,12.61Z"/><path class="cls-2" d="M8.76,11.23a2.33,2.33,0,0,0-4.64-.34,2.37,2.37,0,0,0,.46,1.77L4.13,15a.64.64,0,0,0,.63.75H8.1a.62.62,0,0,0,.48-.22.93.93,0,0,0,.11-.19.68.68,0,0,0,0-.35l-.45-2.33A2.27,2.27,0,0,0,8.76,11.23Zm-1.38.93a.49.49,0,0,0-.14.44l.42,2.15H5.2l.41-2.14a.51.51,0,0,0-.13-.44,1.34,1.34,0,0,1,.63-2.24,1.36,1.36,0,0,1,1.15.26,1.33,1.33,0,0,1,.12,2Z"/><path class="cls-2" d="M7.19,12.35l0,.25a.49.49,0,0,1,.14-.44Zm-1.58.26,0-.25-.18-.19A.51.51,0,0,1,5.61,12.61Z"/></g></g></svg>