<svg xmlns="http://www.w3.org/2000/svg" viewBox="0 0 20.22 18.95"><defs><style>.cls-1{fill:#002068;}.cls-2{fill:#0363ed;}</style></defs><g id="Laag_2" data-name="Laag 2"><g id="Laag_1-2" data-name="Laag 1"><path class="cls-1" d="M20.07,9.75,18,7.69,10.46.14a.5.5,0,0,0-.7,0L2.21,7.68.15,9.75a.48.48,0,0,0,0,.7.49.49,0,0,0,.35.15.47.47,0,0,0,.35-.15L2.07,9.24v9.21a.5.5,0,0,0,.5.5H17.66a.5.5,0,0,0,.5-.5V9.24l1.21,1.21a.48.48,0,0,0,.7,0A.48.48,0,0,0,20.07,9.75ZM17.16,18H3.07V8.24l7-7,7.05,7.05Z"/><path class="cls-2" d="M15.77,10.39a8,8,0,0,0-11.31,0,.5.5,0,0,0,0,.71l.73.73L6.31,13h0L9.76,16.4a.5.5,0,0,0,.35.15.51.51,0,0,0,.36-.15L13.91,13h0L15,11.83l.73-.73A.5.5,0,0,0,15.77,10.39Zm-5.66,4.95L7.77,13a4,4,0,0,1,4.69,0Zm3.07-3.06a5,5,0,0,0-6.13,0l-.42-.42a5.58,5.58,0,0,1,7,0Zm1.12-1.12a6.54,6.54,0,0,0-8.37,0l-.4-.4a7,7,0,0,1,9.17,0Z"/></g></g></svg>