<svg xmlns="http://www.w3.org/2000/svg" viewBox="0 0 21.1 16.47"><defs><style>.cls-1{fill:#0363ed;}.cls-2{fill:#002068;}</style></defs><g id="Laag_2" data-name="Laag 2"><g id="Laag_1-2" data-name="Laag 1"><path class="cls-1" d="M2.1,5.9h0Z"/><path class="cls-1" d="M14,5a.84.84,0,0,0-.46-.13H13a2.74,2.74,0,0,0-2.33-2.5l-.58-.07.12-.45c-.06-.21-.25-.62-.5-.66a1,1,0,0,0-.92.24l-.35.27-.31-.32A1.38,1.38,0,0,0,7,1,1.77,1.77,0,0,0,5.27,2.29l-.16.56-.52-.23a1.62,1.62,0,0,0-.66-.13A1.79,1.79,0,0,0,2.14,4.27a1.68,1.68,0,0,0,.12.63H2.1a1,1,0,0,0-.3,0l0,0a.88.88,0,0,0-.42.31,2.67,2.67,0,0,1-.2-1A2.79,2.79,0,0,1,3.93,1.49a2.67,2.67,0,0,1,.56.06A2.79,2.79,0,0,1,7,0,2.47,2.47,0,0,1,8.52.43,1.86,1.86,0,0,1,9.84.23a1.49,1.49,0,0,1,1,.71,3.47,3.47,0,0,1,.26.52A3.79,3.79,0,0,1,14,5Z"/><path class="cls-2" d="M20.6,3.5H18.73a.48.48,0,0,0-.34.14l-4,3.89.08-1.62a.94.94,0,0,0-.26-.71A.91.91,0,0,0,14,5a.84.84,0,0,0-.46-.13H2.1a1,1,0,0,0-.3,0l0,0a.88.88,0,0,0-.42.31.82.82,0,0,0-.12.2,1,1,0,0,0,0,.81L4.08,12l-.64.55a2.12,2.12,0,0,0-1.27-.41,2.17,2.17,0,1,0,1.9,3.2,2.24,2.24,0,0,0,.27-1,2.11,2.11,0,0,0-.25-1l.81-.71h0l2.31-.32a.46.46,0,0,0,.13.21l2.8,2.6a.51.51,0,0,0,.34.13H13a.5.5,0,0,0,.5-.5V11.39l.32,0a.49.49,0,0,0,.43-.47L14.34,9l4.6-4.49H20.6a.5.5,0,0,0,.5-.5A.5.5,0,0,0,20.6,3.5ZM3.19,14.86a1.14,1.14,0,0,1-1,.61,1.17,1.17,0,1,1,0-2.33,1.2,1.2,0,0,1,.47.1l-.8.69a.49.49,0,0,0-.05.7.48.48,0,0,0,.38.17.52.52,0,0,0,.33-.12L3.3,14a1.55,1.55,0,0,1,0,.31A1.09,1.09,0,0,1,3.19,14.86Zm9.31-.64H10.69L8.41,12.11l4.09-.57Zm1-8.32-.13,2.77a.38.38,0,0,0,0,.1l-.08,1.65L5,11.58,2.1,5.9H13.49Z"/></g></g></svg>