<svg xmlns="http://www.w3.org/2000/svg" viewBox="0 0 11.29 20.96"><defs><style>.cls-1{fill:#002068;}.cls-2{fill:#0363ed;}</style></defs><g id="Laag_2" data-name="Laag 2"><g id="Laag_1-2" data-name="Laag 1"><path class="cls-1" d="M11.17,9.6,6.59.54a1.11,1.11,0,0,0-1.9,0L.12,9.6a1,1,0,0,0,0,1,1,1,0,0,0,.9.51H5.14v1.77h1V11.14h4.08a1.07,1.07,0,0,0,.91-.51A1.05,1.05,0,0,0,11.17,9.6Zm-.95.54H6.14V7.84a.5.5,0,0,0-.5-.5.5.5,0,0,0-.5.5v2.28H1a0,0,0,0,1,0,0s0,0,0,0L5.59,1H5.7l4.58,9.06Z"/><path class="cls-2" d="M6.89,12.91H4.4a.67.67,0,0,0-.68.68V19a1.93,1.93,0,0,0,3.85,0V13.59A.68.68,0,0,0,6.89,12.91ZM6.57,19a.93.93,0,0,1-1.85,0V13.91H6.57Z"/></g></g></svg>