<svg xmlns="http://www.w3.org/2000/svg" viewBox="0 0 14.57 19.3"><defs><style>.cls-1{fill:#002068;}.cls-2{fill:#0363ed;}</style></defs><g id="Laag_2" data-name="Laag 2"><g id="Laag_1-2" data-name="Laag 1"><path class="cls-1" d="M14.07,0H4.44a.5.5,0,0,0-.5.5V2.85a4.15,4.15,0,0,1,1-.12V1h8.63V13.74H4.94v-.6a4.81,4.81,0,0,1-1-.13V18.8a.51.51,0,0,0,.5.5h9.63a.5.5,0,0,0,.5-.5V.5A.5.5,0,0,0,14.07,0Zm-.5,18.3H4.94V14.74h8.63Z"/><path class="cls-1" d="M10.4,15.63A1.39,1.39,0,0,0,9.49,15a1.36,1.36,0,0,0-1.05.23A1.41,1.41,0,0,0,9,17.82a1.07,1.07,0,0,0,.25,0,1.46,1.46,0,0,0,.81-.25,1.38,1.38,0,0,0,.58-.92A1.36,1.36,0,0,0,10.4,15.63Zm-.92,1.14a.38.38,0,0,1-.31.07.42.42,0,0,1-.34-.48A.42.42,0,0,1,9.24,16h.08a.39.39,0,0,1,.26.18.38.38,0,0,1,.07.31A.41.41,0,0,1,9.48,16.77Z"/><path class="cls-2" d="M10,8.76a.57.57,0,0,0-.47-.16.85.85,0,1,1,0-1.7.52.52,0,0,0,.41-.21A.52.52,0,0,0,10,6.24a5.34,5.34,0,0,0-1.28-2,.54.54,0,0,0-.42-.14.51.51,0,0,0-.37.25.85.85,0,0,1-1.58-.43.78.78,0,0,1,.08-.35.51.51,0,0,0-.35-.72,4.82,4.82,0,0,0-1.13-.08,4.15,4.15,0,0,0-1,.12H3.85a.51.51,0,0,0-.33.26.51.51,0,0,0,0,.42.83.83,0,0,1,.07.34.85.85,0,0,1-.85.85.83.83,0,0,1-.68-.34.48.48,0,0,0-.37-.2.47.47,0,0,0-.39.15A5,5,0,0,0,.13,6.27a.53.53,0,0,0,0,.41.5.5,0,0,0,.34.23.86.86,0,0,1,.69.84.85.85,0,0,1-.76.85.47.47,0,0,0-.35.21A.54.54,0,0,0,0,9.22a5.26,5.26,0,0,0,1.13,2.14.51.51,0,0,0,.45.16A.49.49,0,0,0,2,11.25a.85.85,0,0,1,1.61.37.9.9,0,0,1-.18.53.5.5,0,0,0-.08.46.5.5,0,0,0,.33.33l.29.07a4.81,4.81,0,0,0,1,.13h.12A4.53,4.53,0,0,0,6.3,13a.5.5,0,0,0,.35-.34.48.48,0,0,0-.11-.47.83.83,0,0,1-.2-.55.85.85,0,0,1,.85-.85.86.86,0,0,1,.81.57.48.48,0,0,0,.36.33.52.52,0,0,0,.47-.15,5.16,5.16,0,0,0,1.28-2.3A.54.54,0,0,0,10,8.76ZM8.52,10.33a1.85,1.85,0,0,0-3.18,1.29,2.08,2.08,0,0,0,.07.5,2.46,2.46,0,0,1-.47,0,2,2,0,0,1-.42,0,2,2,0,0,0,.06-.48,1.83,1.83,0,0,0-.64-1.39,1.82,1.82,0,0,0-2.41,0,3.91,3.91,0,0,1-.4-.79,1.86,1.86,0,0,0,.12-3.3,4.48,4.48,0,0,1,.44-.72,1.88,1.88,0,0,0,1,.32,1.8,1.8,0,0,0,1.21-.46,1.83,1.83,0,0,0,.64-1.39V3.74a2.17,2.17,0,0,1,.36,0,2.81,2.81,0,0,1,.41,0,.92.92,0,0,0,0,.16A1.85,1.85,0,0,0,7.19,5.73a1.82,1.82,0,0,0,1.17-.42A4.1,4.1,0,0,1,8.82,6,1.85,1.85,0,0,0,9,9.52,4,4,0,0,1,8.52,10.33Z"/><path class="cls-2" d="M5.06,6.07H4.94a1.69,1.69,0,0,0-1,.38,1.84,1.84,0,0,0,0,2.93,1.69,1.69,0,0,0,1,.38h.12a1.86,1.86,0,0,0,0-3.71Zm0,2.71H4.94a.85.85,0,0,1,0-1.69h.12a.86.86,0,0,1,0,1.71Z"/></g></g></svg>