<svg xmlns="http://www.w3.org/2000/svg" viewBox="0 0 16.33 19.5"><defs><style>.cls-1{fill:#002068;}.cls-2{fill:#0363ed;}</style></defs><g id="Laag_2" data-name="Laag 2"><g id="Laag_1-2" data-name="Laag 1"><path class="cls-1" d="M15.83,0H12.75a.5.5,0,0,0-.5.5V.82h-.91V.69a.41.41,0,0,0,0-.19.5.5,0,0,0-.5-.5H7.52A8.76,8.76,0,0,0,.17,3.37a.89.89,0,0,0,0,1,.91.91,0,0,0,1,.39,20.44,20.44,0,0,1,4.47-.39L7,4.41v2a.5.5,0,0,0,.5.5h.33v4.54h1V6.91h.67v4.53h1V6.91h.32a.5.5,0,0,0,.5-.5V4.64h.91V5a.5.5,0,0,0,.5.5h3.08a.5.5,0,0,0,.5-.5V.5A.5.5,0,0,0,15.83,0Zm-.5,4.46H13.25V4.14a.5.5,0,0,0-.5-.5H10.84a.5.5,0,0,0-.5.5V5.91H8v-2a.51.51,0,0,0-.48-.5c-.65,0-1.3,0-2,0a23,23,0,0,0-4.44.35A7.89,7.89,0,0,1,7.52,1h2.82v.32a.5.5,0,0,0,.5.5h1.91a.5.5,0,0,0,.5-.5V1h2.08Z"/><path class="cls-2" d="M10.52,11.45H7.85a.67.67,0,0,0-.59.67v5.45a1.92,1.92,0,1,0,3.84,0V12.12A.67.67,0,0,0,10.52,11.45Zm-.42,6.12a.92.92,0,1,1-1.84,0V12.44H10.1Z"/></g></g></svg>