<?xml version="1.0" encoding="utf-8"?>
<!-- Generator: Adobe Illustrator 24.3.0, SVG Export Plug-In . SVG Version: 6.00 Build 0)  -->
<svg version="1.1" id="Layer_1" xmlns="http://www.w3.org/2000/svg" xmlns:xlink="http://www.w3.org/1999/xlink" x="0px" y="0px"
	 viewBox="0 0 469.3 469.3" style="enable-background:new 0 0 469.3 469.3;" xml:space="preserve">
<g>
	<g>
		<path d="M468.7,306l0.1,0l-60.4-181.2c10.8-5.2,18.3-16.1,18.3-28.8c0-17.6-14.4-32-32-32H274.8c1.5-3.3,2.5-6.9,2.5-10.7
			c0-15.4-17-53.3-42.7-53.3S192,37.9,192,53.3c0,3.8,1,7.3,2.5,10.7H74.7c-17.6,0-32,14.4-32,32c0,12.7,7.5,23.6,18.3,28.8L0.6,306
			l0.1,0c-0.4,1.1-0.7,2.2-0.7,3.3C0,350.5,33.5,384,74.7,384s74.7-33.5,74.7-74.7c0-1.2-0.3-2.3-0.7-3.3l0.1,0L88.4,124.8
			c4-2,7.6-4.7,10.5-8.2c34.4,17.6,72.1,27.9,110.6,31.2c-6.8,120.7-20.7,227.6-26.1,257.5h-12.7c-23.5,0-42.7,19.1-42.7,42.7v10.7
			c0,5.9,4.8,10.7,10.7,10.7h192c5.9,0,10.7-4.8,10.7-10.7V448c0-23.5-19.1-42.7-42.7-42.7H286c-5.4-29.9-19.3-136.8-26.1-257.5
			c38.5-3.3,76.1-13.6,110.6-31.2c2.9,3.5,6.5,6.2,10.5,8.2L320.6,306l0.1,0c-0.4,1.1-0.7,2.2-0.7,3.3c0,41.2,33.5,74.7,74.7,74.7
			s74.7-33.5,74.7-74.7C469.3,308.1,469,307.1,468.7,306z M234.7,21.3c9.2,0,21.3,23.4,21.3,32c0,4.4-8.3,10.7-21.3,10.7
			s-21.3-6.3-21.3-10.7C213.3,44.8,225.4,21.3,234.7,21.3z M74.7,362.7c-25.8,0-47.3-18.4-52.3-42.7h104.5
			C122,344.3,100.4,362.7,74.7,362.7z M123.9,298.7H25.5l49.2-147.6L123.9,298.7z M298.7,426.7c11.8,0,21.3,9.6,21.3,21.3H149.3
			c0-11.8,9.6-21.3,21.3-21.3H298.7z M264.3,405.3H205c6.7-38.9,19.5-145.4,25.7-256.2c1.3,0,2.6,0.2,3.9,0.2s2.6-0.2,3.9-0.2
			C244.8,259.9,257.6,366.4,264.3,405.3z M378.6,92.4c-3-1.2-6.3-1-9.1,0.6c-82.2,45.8-187.3,45.8-269.5,0c-1.6-0.9-3.4-1.4-5.2-1.4
			c-1.3,0-2.7,0.2-3.9,0.8c-3,1.2-5.3,3.6-6.2,6.7c-1.4,4.6-5.3,7.6-9.9,7.6c-5.9,0-10.7-4.8-10.7-10.7s4.8-10.7,10.7-10.7h320
			c5.9,0,10.7,4.8,10.7,10.7c0,5.9-4.8,10.7-10.7,10.7c-4.6,0-8.4-3-9.9-7.6C383.8,96,381.5,93.6,378.6,92.4z M394.7,151.1
			l49.2,147.6h-98.4L394.7,151.1z M394.7,362.7c-25.8,0-47.3-18.4-52.3-42.7h104.5C442,344.3,420.4,362.7,394.7,362.7z" fill="#fff"/>
	</g>
</g>
</svg>
