<?xml version="1.0" encoding="utf-8"?>
<!-- Generator: Adobe Illustrator 24.3.0, SVG Export Plug-In . SVG Version: 6.00 Build 0)  -->
<svg version="1.1" id="Layer_1" xmlns="http://www.w3.org/2000/svg" xmlns:xlink="http://www.w3.org/1999/xlink" x="0px" y="0px"
	 viewBox="0 0 512 512" style="enable-background:new 0 0 512 512;" xml:space="preserve">
<g>
	<g>
		<g>
			<path d="M440.9,64.6l-181.3-64c-2.3-0.8-4.8-0.8-7.1,0l-181.3,64c-4.3,1.5-7.1,5.5-7.1,10.1v128c0,165.6,24.6,226.2,187.2,308.2
				c1.5,0.8,3.2,1.1,4.8,1.1c1.6,0,3.3-0.4,4.8-1.1C423.4,428.9,448,368.3,448,202.7v-128C448,70.2,445.1,66.1,440.9,64.6z
				 M426.7,202.7c0,158.7-20.2,210-170.7,286.7C105.6,412.7,85.3,361.3,85.3,202.7V82.2L256,22l170.7,60.2V202.7L426.7,202.7z" fill="#fff"/>
		</g>
	</g>
</g>
<path d="M320.2,178.8l-94,93.5l-34.3-34.5c-4.8-4.8-12.5-4.8-17.3-0.1s-4.8,12.5-0.1,17.3l42.9,43.2c2.4,2.4,5.5,3.6,8.7,3.6
	c3.1,0,6.2-1.2,8.6-3.6l102.7-102.1c4.8-4.8,4.8-12.5,0.1-17.3C332.7,174,325,174,320.2,178.8z" fill="#fff"/>
</svg>
