<svg xmlns="http://www.w3.org/2000/svg" xmlns:xlink="http://www.w3.org/1999/xlink" version="1.1" style="enable-background:new 0 0 469.3 469.3;" xml:space="preserve" width="469.3" height="469.3"><rect id="backgroundrect" width="100%" height="100%" x="0" y="0" fill="none" stroke="none"/>

<g class="currentLayer" style=""><title>Layer 1</title><g id="svg_1" class="selected" fill-opacity="1" fill="#13ca72">
	<g id="svg_2" fill="#13ca72">
		<g id="svg_3" fill="#13ca72">
			<path d="M234.7,106.7c29.4,0,53.3-23.9,53.3-53.3S264.1,0,234.7,0s-53.3,23.9-53.3,53.3S205.3,106.7,234.7,106.7z M234.7,21.3     c17.6,0,32,14.4,32,32s-14.4,32-32,32s-32-14.4-32-32C202.7,35.7,217,21.3,234.7,21.3z" id="svg_4" fill="#ffffff"/>
			<path d="M161.5,213.3h146.3c12.6,0,22.9-11.1,22.9-24.7v-6.8c0-17.8-8.8-34.1-23-42.5c-17-10-43.5-22-73-22s-55.9,12-73,22     c-14.2,8.4-23,24.7-23,42.5v6.8C138.7,202.3,148.9,213.3,161.5,213.3z M160,181.8c0-10.2,4.9-19.6,12.5-24.1     c14.7-8.7,37.5-19.1,62.1-19.1s47.4,10.4,62.1,19.1c7.6,4.5,12.5,14,12.5,24.1v6.8c0,2.2-1.3,3.3-1.5,3.3H161.5     c-0.3,0-1.5-1.1-1.5-3.3V181.8z" id="svg_5" fill="#ffffff"/>
			<path d="M96,362.7c29.4,0,53.3-23.9,53.3-53.3S125.4,256,96,256s-53.3,23.9-53.3,53.3S66.6,362.7,96,362.7z M96,277.3     c17.6,0,32,14.4,32,32s-14.4,32-32,32s-32-14.4-32-32S78.4,277.3,96,277.3z" id="svg_6" fill="#ffffff"/>
			<path d="M169,395.3c-17-10-43.5-22-73-22s-55.9,12-73,22C8.8,403.7,0,420,0,437.8v6.8c0,13.6,10.2,24.7,22.9,24.7h146.3     c12.6,0,22.9-11.1,22.9-24.7v-6.8C192,420,183.2,403.7,169,395.3z M170.7,444.7c0,2.2-1.3,3.3-1.5,3.3H22.9     c-0.3,0-1.5-1.1-1.5-3.3v-6.8c0-10.2,4.9-19.6,12.5-24.1c14.7-8.7,37.5-19.1,62.1-19.1s47.4,10.4,62.1,19.1     c7.6,4.5,12.5,14,12.5,24.1L170.7,444.7L170.7,444.7z" id="svg_7" fill="#ffffff"/>
			<path d="M373.3,362.7c29.4,0,53.3-23.9,53.3-53.3S402.7,256,373.3,256S320,279.9,320,309.3S343.9,362.7,373.3,362.7z      M373.3,277.3c17.6,0,32,14.4,32,32s-14.4,32-32,32s-32-14.4-32-32S355.7,277.3,373.3,277.3z" id="svg_8" fill="#ffffff"/>
			<path d="M446.3,395.3c-17-10-43.5-22-73-22s-55.9,12-73,22c-14.2,8.4-23,24.7-23,42.5v6.8c0,13.6,10.2,24.7,22.9,24.7h146.3     c12.6,0,22.9-11.1,22.9-24.7v-6.8C469.3,420,460.5,403.7,446.3,395.3z M448,444.7c0,2.2-1.3,3.3-1.5,3.3H300.2     c-0.3,0-1.5-1.1-1.5-3.3v-6.8c0-10.2,4.9-19.6,12.5-24.1c14.7-8.7,37.5-19.1,62.1-19.1s47.4,10.4,62.1,19.1     c7.6,4.5,12.5,14,12.5,24.1V444.7z" id="svg_9" fill="#ffffff"/>
			<path d="M288,362.7c3.1,0,6.2-1.4,8.3-4c3.7-4.6,2.9-11.3-1.7-15l-49.3-39.5v-58.9c0-5.9-4.8-10.7-10.7-10.7s-10.7,4.8-10.7,10.7     v58.9l-49.3,39.5c-4.6,3.7-5.3,10.4-1.7,15c2.1,2.6,5.2,4,8.3,4c2.3,0,4.7-0.8,6.7-2.3l46.7-37.3l46.7,37.3     C283.3,361.9,285.7,362.7,288,362.7z" id="svg_10" fill="#ffffff"/>
		</g>
	</g>
</g></g></svg>