<svg xmlns="http://www.w3.org/2000/svg" viewBox="0 0 16.18 18.18"><defs><style>.cls-1{fill:#002068;}.cls-2{fill:#0363ed;}</style></defs><g id="Laag_2" data-name="Laag 2"><g id="Laag_1-2" data-name="Laag 1"><path class="cls-1" d="M14.66,0H1.52A1.52,1.52,0,0,0,0,1.52V16.66a1.52,1.52,0,0,0,1.52,1.52H14.66a1.52,1.52,0,0,0,1.52-1.52V1.52A1.52,1.52,0,0,0,14.66,0Zm.52,16.66a.52.52,0,0,1-.52.52H1.52A.52.52,0,0,1,1,16.66V4.53H15.18Zm0-13.13H1v-2A.52.52,0,0,1,1.52,1H14.66a.52.52,0,0,1,.52.52Z"/><path class="cls-1" d="M8.09,4.61a6.05,6.05,0,1,0,6.05,6.05A6.05,6.05,0,0,0,8.09,4.61Zm0,11.1a5.05,5.05,0,1,1,5.05-5.05A5.06,5.06,0,0,1,8.09,15.71Z"/><path class="cls-1" d="M8.09,6.42a4.24,4.24,0,1,0,4.24,4.24A4.24,4.24,0,0,0,8.09,6.42Zm0,7.48a3.24,3.24,0,0,1-3.23-3,1.69,1.69,0,0,1,0-.23,2.56,2.56,0,0,1,0-.39A1.13,1.13,0,0,1,4.94,10a.86.86,0,0,1,0-.23,3.24,3.24,0,0,1,6.17-.09,1.16,1.16,0,0,1,.08.32.79.79,0,0,1,0,.22,2.63,2.63,0,0,1,0,.49.61.61,0,0,1,0,.14A3.23,3.23,0,0,1,8.09,13.9Z"/><path class="cls-2" d="M11.33,10.66a.61.61,0,0,1,0,.14l-.44.38a1.54,1.54,0,0,1-1.94,0l-.49-.39a.51.51,0,0,0-.64,0l-.6.45a1.57,1.57,0,0,1-1.86,0l-.49-.38a1.69,1.69,0,0,1,0-.23,2.56,2.56,0,0,1,0-.39A1.13,1.13,0,0,1,4.94,10a.86.86,0,0,1,0-.23l.29.23.68.53a.56.56,0,0,0,.65,0L7.2,10A.57.57,0,0,1,7.33,10a1.52,1.52,0,0,1,1.59,0,.65.65,0,0,1,.15.1l.49.38a.52.52,0,0,0,.67,0l.55-.47.38-.32a1.16,1.16,0,0,1,.08.32.79.79,0,0,1,0,.22A2.63,2.63,0,0,1,11.33,10.66Z"/><path class="cls-1" d="M5,2.88H2.47a.5.5,0,0,1-.5-.5.5.5,0,0,1,.5-.5H5a.5.5,0,0,1,.5.5A.5.5,0,0,1,5,2.88Z"/><path class="cls-1" d="M13.64,2.88H7a.5.5,0,0,1-.5-.5.5.5,0,0,1,.5-.5h6.67a.5.5,0,0,1,.5.5A.5.5,0,0,1,13.64,2.88Z"/></g></g></svg>